<svg width="48" height="46" viewBox="0 0 48 46" fill="none" xmlns="http://www.w3.org/2000/svg">
<g clip-path="url(#clip0_26_296)">
<path d="M23.6593 43.3456C35.4583 43.3456 45.0233 34.2365 45.0233 23C45.0233 11.7634 35.4583 2.65442 23.6593 2.65442C11.8602 2.65442 2.2952 11.7634 2.2952 23C2.2952 34.2365 11.8602 43.3456 23.6593 43.3456Z" fill="#CCE4FF"/>
<path d="M23.6592 45.1953C36.5097 45.1953 46.9655 35.2389 46.9655 23.0001C46.9655 10.7613 36.5097 0.804932 23.6592 0.804932C10.8088 0.804932 0.352997 10.7613 0.352997 23.0001C0.352997 35.2389 10.8088 45.1953 23.6592 45.1953ZM23.6592 4.50413C34.3685 4.50413 43.0811 12.8014 43.0811 23.0001C43.0811 33.1988 34.3685 41.4961 23.6592 41.4961C12.95 41.4961 4.23737 33.1988 4.23737 23.0001C4.23737 12.8014 12.95 4.50413 23.6592 4.50413Z" fill="#007AFF"/>
<path d="M14.8874 30.3984H31.428V26.6992H20.778L22.4425 23H29.4858V19.3008H24.1079L26.2094 14.6306L22.6387 13.1731L19.8817 19.3008H13.9483V23H18.2163L14.8874 30.3984Z" fill="#007AFF"/>
</g>
<defs>
<clipPath id="clip0_26_296">
<rect width="47.0833" height="44.8387" fill="white" transform="translate(0.117584 0.580688)"/>
</clipPath>
</defs>
</svg>
