<svg width="49" height="47" viewBox="0 0 49 47" fill="none" xmlns="http://www.w3.org/2000/svg">
<g clip-path="url(#clip0_26_314)">
<g clip-path="url(#clip1_26_314)">
<path d="M24.4374 45.4487C37.8994 45.4487 48.8124 35.4125 48.8124 23.0323C48.8124 10.652 37.8994 0.615845 24.4374 0.615845C10.9755 0.615845 0.062439 10.652 0.062439 23.0323C0.062439 35.4125 10.9755 45.4487 24.4374 45.4487Z" fill="#8AC9FE"/>
<path d="M34.9975 2.82324C37.8584 6.49673 39.543 10.9977 39.543 15.8609C39.543 28.2412 28.6299 38.2773 15.168 38.2773C11.3847 38.2773 7.80281 37.4846 4.60788 36.07C9.03004 41.7482 16.2635 45.4488 24.4374 45.4488C37.8994 45.4488 48.8124 35.4126 48.8124 23.0323C48.8124 14.1314 43.1713 6.44218 34.9975 2.82324Z" fill="#60B7FF"/>
<path d="M24.4369 42.5515C36.1591 42.5515 45.6617 33.8124 45.6617 23.0322C45.6617 12.2519 36.1591 3.51282 24.4369 3.51282C12.7148 3.51282 3.2121 12.2519 3.2121 23.0322C3.2121 33.8124 12.7148 42.5515 24.4369 42.5515Z" fill="#EAF6FF"/>
<path d="M38.0125 8.02734C39.0016 10.466 39.5436 13.105 39.5436 15.8608C39.5436 28.2411 28.6306 38.2773 15.1686 38.2773C13.6361 38.2773 12.1373 38.1458 10.6832 37.8971C14.3879 40.7991 19.1901 42.5516 24.438 42.5516C36.1601 42.5516 45.6628 33.8124 45.6628 23.0322C45.6628 17.0002 42.6869 11.6078 38.0125 8.02734Z" fill="#D8ECFE"/>
<path d="M24.1514 11.3201L17.3057 21.4729C17.2231 21.5955 17.2633 21.7564 17.396 21.8334L24.3794 25.8896C24.4737 25.9443 24.5939 25.9436 24.6874 25.8879L31.4814 21.8351C31.6123 21.757 31.6509 21.5967 31.5678 21.4751L24.6361 11.3188C24.5238 11.1542 24.2628 11.1549 24.1514 11.3201Z" fill="#60B7FF"/>
<path d="M24.6309 29.4022L30.6314 25.97C30.8916 25.8212 31.1893 26.1022 31.0209 26.3375L24.975 34.7832C24.8649 34.9372 24.621 34.9417 24.5043 34.7918L17.9622 26.3968C17.7806 26.1638 18.0783 25.8698 18.3439 26.0199L24.3305 29.4029C24.4228 29.4551 24.539 29.4548 24.6309 29.4022Z" fill="#60B7FF"/>
</g>
</g>
<defs>
<clipPath id="clip0_26_314">
<rect width="48.75" height="46.0645" fill="white" transform="translate(0.062439)"/>
</clipPath>
<clipPath id="clip1_26_314">
<rect width="48.75" height="44.8329" fill="white" transform="translate(0.062439 0.615845)"/>
</clipPath>
</defs>
</svg>
