<svg width="47" height="48" viewBox="0 0 47 48" fill="none" xmlns="http://www.w3.org/2000/svg">
<g clip-path="url(#clip0_26_337)">
<path d="M23.5 47.3871C36.4442 47.3871 46.9375 36.9163 46.9375 24C46.9375 11.0837 36.4442 0.612915 23.5 0.612915C10.5558 0.612915 0.0625 11.0837 0.0625 24C0.0625 36.9163 10.5558 47.3871 23.5 47.3871Z" fill="#F5AC6E"/>
<path d="M23.5001 43.1533C34.101 43.1533 42.6946 34.5781 42.6946 24C42.6946 13.422 34.101 4.8468 23.5001 4.8468C12.8993 4.8468 4.30562 13.422 4.30562 24C4.30562 34.5781 12.8993 43.1533 23.5001 43.1533Z" fill="#F5AC6E"/>
<path d="M24.3535 14.6478C23.8952 14.6478 23.561 14.2137 23.6795 13.7719L24.3105 11.4193C24.4101 11.0481 24.7924 10.8277 25.1644 10.927C25.5364 11.0263 25.7573 11.4079 25.6577 11.779L25.0267 14.1317C24.9432 14.4427 24.6615 14.6478 24.3535 14.6478Z" fill="white"/>
<path d="M29.0681 15.908C28.6085 15.908 28.2757 15.4727 28.3941 15.0318L29.026 12.68C29.1258 12.3088 29.5081 12.0888 29.8802 12.1882C30.2522 12.2877 30.4728 12.6692 30.3731 13.0405L29.7411 15.3922C29.6576 15.703 29.3759 15.908 29.0681 15.908Z" fill="white"/>
<path d="M18.5781 36.1549C18.1184 36.1549 17.7857 35.7196 17.9042 35.2787L18.5322 32.9417C18.6066 32.6372 18.8816 32.4109 19.2096 32.4109C19.5918 32.4109 19.9069 32.7188 19.9069 33.1071C19.9069 33.2371 19.9362 33.0893 19.2512 35.6391C19.1677 35.9499 18.8859 36.1549 18.5781 36.1549Z" fill="white"/>
<path d="M23.2927 37.4151C22.833 37.4151 22.5003 36.9798 22.6187 36.5391L23.2506 34.1864C23.3504 33.8153 23.7326 33.5949 24.1047 33.6945C24.4767 33.794 24.6974 34.1755 24.5977 34.5466L23.9657 36.8993C23.8823 37.2101 23.6005 37.4151 23.2927 37.4151Z" fill="white"/>
<path d="M14.6626 32.039C14.2755 31.9407 14.0462 31.5641 14.1499 31.1973L14.7034 29.2403C14.7873 28.9436 15.0689 28.729 15.3932 28.731C16.3201 28.7367 17.1706 28.1531 17.4219 27.2655L19.8856 18.5571C20.1375 17.6567 19.7002 16.7608 18.9103 16.3315C18.6261 16.1771 18.4889 15.8596 18.5737 15.5598L19.1273 13.6023C19.231 13.2356 19.6284 13.0179 20.0156 13.1161L28.9415 15.3814C33.7575 16.6041 34.3698 23.7125 29.5593 25.7231C33.5561 28.4031 31.457 36.2995 23.5014 34.2828C23.4888 34.2828 14.6768 32.0426 14.6626 32.039ZM29.2554 21.2878C29.6262 19.9731 28.7998 18.6374 27.4275 18.2882L24.7548 17.6102C24.3677 17.5119 23.9698 17.7296 23.8661 18.0963L22.9036 21.4993C22.8 21.866 23.0297 22.243 23.4169 22.3412L26.0895 23.0191C27.4683 23.3697 28.8862 22.5938 29.2554 21.2878ZM27.4166 29.4496C27.7858 28.1427 26.9676 26.8006 25.5878 26.4501L22.3899 25.6389C22.0028 25.5406 21.6049 25.7583 21.5012 26.1249L20.351 30.1912C24.5383 31.2542 24.4625 31.2652 24.9202 31.2652C26.0623 31.2652 27.1064 30.5435 27.4166 29.4496Z" fill="white"/>
</g>
<defs>
<clipPath id="clip0_26_337">
<rect width="46.875" height="46.7742" fill="white" transform="translate(0.0625 0.612915)"/>
</clipPath>
</defs>
</svg>
