<?xml version="1.0" encoding="utf-8"?>
<!-- Generator: Adobe Illustrator 26.3.1, SVG Export Plug-In . SVG Version: 6.00 Build 0)  -->
<svg version="1.1" xmlns="http://www.w3.org/2000/svg" xmlns:xlink="http://www.w3.org/1999/xlink" x="0px" y="0px"
	 viewBox="0 0 424.42 370.69" style="enable-background:new 0 0 424.42 370.69;" xml:space="preserve">
<style type="text/css">
	.st0{fill:none;stroke:rgba(255, 156, 84, 0.79);;stroke-width:0.5;stroke-miterlimit:10;}
	.st1{fill:url(#SVGID_1_);}
</style>
<g id="BACKGROUND">
</g>
<g id="OBJECTS">
	<g>
		<g>
			<g>
				<g>
					<path class="st0" d="M348.18,229.53c45.59-21.23,71.37-65.52,66.85-111.72c-2.17-22.21-13.46-43.97-31.61-54.31
						c-33.25-18.96-55.13,28.12-156.9-30.21c-36-20.63-86.15-15.79-115.22,15.04c-23.2,24.61,8,39.5,10.4,8.97
						c3.21-40.89-43.93-69.6-83.83-39.65C0.65,45.57-1.01,105.73,23.79,118.32c15.06,7.64,31.76-4.31,47.73-9.27
						c39.4-12.22,70.14,11.28,73.87,37.74c6.94,49.26-39.81,64.07-51.79,99.15c-15.32,44.86,20.28,77.27,52.18,60.01
						c25.45-13.76,12.89-44.66-5.35-31.58c-35.14,25.19-12.71,93.39,37.97,90.11c20.16-1.3,38.89-14.96,49.27-33.87"/>
				</g>
				<g>
					<linearGradient id="SVGID_1_" gradientUnits="userSpaceOnUse" x1="200.2839" y1="309.8504" x2="200.2839" y2="-9.649">
						<stop  offset="0.1159" style="stop-color:#c9150f"/>
						<stop  offset="1" style="stop-color:rgb(255, 109, 3)"/>
					</linearGradient>
					<path class="st1" d="M163.94,98.56c102.01,29.67,76.65-44.27,134.04-70.5c63.85-29.19,125.55,48.34,83.01,98.19
						c-33.93,39.76-10.66,50.38-3.76,61.7c34.33,56.27-4.54,120.22-66.52,121.96c-30.61,0.86-61.37-17.36-69.6-43.33
						c-2.25-7.1-3.77-15.63-11.23-18.97c-22.04-9.85-47.58,36.76-60.41,52.52c-58.79,72.23-149.02-9.63-75.22-91.12
						c30.96-34.19-27.75-69.21-12.58-101.18C98.14,73.14,129.84,88.64,163.94,98.56z M77.52,43.36
						C62.87,21.68,38.69,18.19,24.52,23.43C-4.1,33.99-5.15,108.69,54.81,87.75C72.86,81.45,90.02,61.84,77.52,43.36z"/>
				</g>
			</g>
		</g>
	</g>
</g>
</svg>
