<?xml version="1.0" encoding="utf-8"?>
<!-- Generator: Adobe Illustrator 26.3.1, SVG Export Plug-In . SVG Version: 6.00 Build 0)  -->
<svg version="1.1" id="Capa_1" xmlns="http://www.w3.org/2000/svg" xmlns:xlink="http://www.w3.org/1999/xlink" x="0px" y="0px"
	 viewBox="0 0 424.42 370.69" style="enable-background:new 0 0 424.42 370.69;" xml:space="preserve">
<style type="text/css">
	.st0{fill:url(#SVGID_1_);}
	.st1{fill:none;stroke:rgba(255, 156, 84, 0.79);stroke-width:0.5;stroke-miterlimit:10;}
</style>
<g id="BACKGROUND">
</g>
<g id="OBJECTS">
	
		<linearGradient id="SVGID_1_" gradientUnits="userSpaceOnUse" x1="66.2305" y1="100.285" x2="86.3525" y2="442.9684" gradientTransform="matrix(1 0 0 -1 0 369.8898)">
		<stop  offset="0.1065" style="stop-color:#c9150f"/>
		<stop  offset="1" style="stop-color:rgb(255, 109, 3)"/>
	</linearGradient>
	<path class="st0" d="M0-37.56C32.62,58.32,102.74,31.59,105.59,63.66c2.12,23.88-31.28,24.2-46.92,30.23
		C-10.69,120.62,63.63,179.52,0,225.35V-37.56z M130.4,66.15c0.25,6.52,5.57,13.17,11.7,15.03c26.46,8.03,27.03-42.61,3.05-29.88
		C140.33,53.86,130.16,59.82,130.4,66.15z"/>
	<path class="st1" d="M216.12,369.21c-30.73-23.72-27.3-71.7,6.87-90.63c31.05-17.21,63,4.52,58.26,30.79
		c-2.06,11.4-14,9.41-10.55-3.18c11.31-41.27,60.01-34.57,53.84,7.08c-1.8,12.1-7.7,23.14-11.59,34.74
		c-5.65,16.83,6,21.61,13.79,15.06c6.68-5.62,9.42-20.2,20.35-30.79c25.34-24.55,53.6,9.8,39.01,38.42"/>
</g>
</svg>
