<svg width="196" height="76" viewBox="0 0 196 76" fill="none" xmlns="http://www.w3.org/2000/svg">
<path d="M1.9375 74.0323L35.7389 43.788C36.5457 43.0661 37.7805 43.1172 38.5248 43.9033L53.7821 60.0171C54.2711 60.5335 54.9976 60.7514 55.6901 60.5894L89.9575 52.5717C90.4881 52.4476 90.945 52.1123 91.2227 51.6436L108.906 21.7898C109.671 20.4981 111.534 20.4785 112.326 21.7537L130.763 51.4328C131.128 52.0202 131.771 52.3774 132.462 52.3774H165.404C166.141 52.3774 166.818 51.9721 167.166 51.3228L194.125 1.06458" stroke="white" stroke-width="2" stroke-linecap="round" stroke-linejoin="round"/>
<path d="M1.9375 74.0323L35.7389 43.788C36.5457 43.0661 37.7805 43.1172 38.5248 43.9033L53.7821 60.0171C54.2711 60.5335 54.9976 60.7514 55.6901 60.5894L89.9575 52.5717C90.4881 52.4476 90.945 52.1123 91.2227 51.6436L108.906 21.7898C109.671 20.4981 111.534 20.4785 112.326 21.7537L130.763 51.4328C131.128 52.0202 131.771 52.3774 132.462 52.3774H165.404C166.141 52.3774 166.818 51.9721 167.166 51.3228L194.125 1.06458" stroke="url(#paint0_linear_26_325)" stroke-width="2" stroke-linecap="round" stroke-linejoin="round"/>
<defs>
<linearGradient id="paint0_linear_26_325" x1="1.9375" y1="74.0323" x2="194.125" y2="74.0323" gradientUnits="userSpaceOnUse">
<stop offset="0.583333" stop-color="white" stop-opacity="0"/>
<stop offset="1" stop-color="#2AB927"/>
</linearGradient>
</defs>
</svg>
