<svg width="56" height="18" viewBox="0 0 56 18" fill="none" xmlns="http://www.w3.org/2000/svg">
<path d="M9.26069 12.4514C9.08216 12.6299 8.79272 12.6299 8.61419 12.4514L5.70495 9.54218C5.52643 9.36366 5.52642 9.07421 5.70495 8.89569C5.88348 8.71716 6.17292 8.71716 6.35145 8.89569L8.93744 11.4817L11.5234 8.89569C11.702 8.71716 11.9914 8.71716 12.1699 8.89569C12.3485 9.07421 12.3485 9.36366 12.1699 9.54218L9.26069 12.4514ZM8.4803 6.03294C8.4803 5.78046 8.68497 5.57579 8.93744 5.57579C9.18991 5.57579 9.39458 5.78046 9.39458 6.03294L8.4803 6.03294ZM8.4803 12.1282L8.4803 6.03294L9.39458 6.03294L9.39458 12.1282L8.4803 12.1282Z" fill="#E72D04"/>
<rect x="0.380952" y="-0.380952" width="15.2381" height="15.2381" rx="7.61905" transform="matrix(1 0 0 -1 0.937439 16.3187)" stroke="#E72D04" stroke-width="0.761905"/>
<path d="M26.4964 14.7198C28.6739 14.7198 30.2599 13.4719 30.2549 11.7517C30.2599 10.479 29.4644 9.56423 28.0376 9.3604V9.28085C29.1413 9.04221 29.882 8.2219 29.8771 7.07844C29.882 5.5273 28.5596 4.25954 26.5262 4.25954C24.5475 4.25954 23.0163 5.43781 22.9765 7.14307H24.7514C24.7812 6.28795 25.5766 5.75599 26.5163 5.75599C27.4658 5.75599 28.0972 6.3327 28.0923 7.18781C28.0972 8.07773 27.3614 8.66934 26.3075 8.66934H25.4076V10.0912H26.3075C27.5951 10.0912 28.3607 10.7375 28.3558 11.6573C28.3607 12.5571 27.5802 13.1736 26.4914 13.1736C25.4673 13.1736 24.6768 12.6416 24.632 11.8114H22.7627C22.8124 13.5316 24.3487 14.7198 26.4964 14.7198ZM32.7892 14.6899C33.3758 14.6899 33.878 14.2027 33.8829 13.5962C33.878 12.9996 33.3758 12.5124 32.7892 12.5124C32.1826 12.5124 31.6905 12.9996 31.6954 13.5962C31.6905 14.2027 32.1826 14.6899 32.7892 14.6899ZM38.9577 14.7198C41.1601 14.7198 42.7361 13.5067 42.7411 11.8512C42.7361 10.5784 41.7965 9.51452 40.6132 9.31565V9.24605C41.6423 9.01736 42.3582 8.09264 42.3632 6.98895C42.3582 5.4229 40.9165 4.25954 38.9577 4.25954C36.984 4.25954 35.5422 5.41792 35.5472 6.98895C35.5422 8.09264 36.2482 9.01736 37.2972 9.24605V9.31565C36.094 9.51452 35.1644 10.5784 35.1693 11.8512C35.1644 13.5067 36.7354 14.7198 38.9577 14.7198ZM38.9577 13.2979C37.8043 13.2979 37.0585 12.6615 37.0685 11.7219C37.0585 10.7475 37.859 10.0564 38.9577 10.0564C40.0415 10.0564 40.8369 10.7524 40.8469 11.7219C40.8369 12.6615 40.0962 13.2979 38.9577 13.2979ZM38.9577 8.6594C38.0131 8.6594 37.3369 8.0479 37.3469 7.16295C37.3369 6.28795 37.9932 5.7013 38.9577 5.7013C39.9073 5.7013 40.5585 6.28795 40.5685 7.16295C40.5585 8.05287 39.8874 8.6594 38.9577 8.6594ZM49.8194 12.6715C49.8243 13.8547 50.575 14.8639 51.9721 14.8639C53.3641 14.8639 54.1297 13.8547 54.1248 12.6715V12.1345C54.1297 10.9414 53.384 9.94207 51.9721 9.94207C50.5949 9.94207 49.8243 10.9513 49.8194 12.1345V12.6715ZM44.6439 6.84477C44.6489 8.02801 45.3996 9.0273 46.8016 9.0273C48.1887 9.0273 48.9543 8.03795 48.9493 6.84477V6.30784C48.9543 5.11466 48.2086 4.11537 46.8016 4.11537C45.4294 4.11537 44.6489 5.11466 44.6439 6.30784V6.84477ZM45.0914 14.5806H46.3393L53.3392 4.39875H52.0914L45.0914 14.5806ZM51.1169 12.1345C51.1219 11.6076 51.3456 11.0756 51.9721 11.0756C52.6283 11.0756 52.8222 11.6076 52.8172 12.1345V12.6715C52.8222 13.1985 52.6084 13.7205 51.9721 13.7205C51.3357 13.7205 51.1219 13.1935 51.1169 12.6715V12.1345ZM45.9515 6.30784C45.9564 5.78582 46.1702 5.24889 46.8016 5.24889C47.4579 5.24889 47.6468 5.78085 47.6418 6.30784V6.84477C47.6468 7.37176 47.438 7.89378 46.8016 7.89378C46.1652 7.89378 45.9564 7.37176 45.9515 6.84477V6.30784Z" fill="#E72D04"/>
</svg>
