<svg width="340" height="544" viewBox="0 0 340 544" fill="none" xmlns="http://www.w3.org/2000/svg">
<path opacity="0.3" d="M219.191 216.392H120.482L46.2097 0H293.326L219.191 216.392Z" fill="url(#paint0_linear_14_28)"/>
<path opacity="0.15" d="M233.469 216.392H106.204L0.355835 6.10352e-05H339.18L233.469 216.392Z" fill="url(#paint1_linear_14_28)"/>
<path d="M232.783 96.9173C232.096 94.5567 231.273 92.196 230.312 89.9666C229.488 88.2617 228.664 86.4256 227.703 84.8519C226.879 83.4092 225.918 81.9666 224.82 80.6551C223.859 79.3437 222.761 78.1634 221.663 76.9831C221.251 76.5896 220.839 76.065 220.427 75.6716L212.19 67.5405C212.602 67.9339 213.013 68.4585 213.425 68.852C214.524 70.0323 215.622 71.2126 216.583 72.5241C217.681 73.8355 218.642 75.2781 219.466 76.7208C220.427 78.4257 221.388 80.1306 222.074 81.8355C223.035 84.065 223.859 86.4256 224.546 88.7862C226.605 96.3927 226.879 104.655 225.095 113.442C224.683 115.671 224.134 117.77 223.447 119.868C222.624 122.491 221.663 124.983 220.427 127.474C219.466 129.442 218.505 131.278 217.407 133.114C216.446 134.819 215.347 136.392 214.249 137.966C213.151 139.409 212.052 140.851 210.954 142.294C209.856 143.605 208.62 144.917 207.385 146.228C206.149 147.54 204.776 148.72 203.541 149.901C202.168 151.081 200.795 152.261 199.285 153.441C197.775 154.622 196.127 155.802 194.48 156.851C192.558 158.032 190.773 159.212 188.714 160.13C186.243 161.441 183.771 162.491 181.3 163.54C172.651 166.818 163.316 168.523 153.98 168.13C139.839 167.474 127.895 161.966 119.246 153.573L127.484 161.704C135.995 170.228 148.077 175.605 162.217 176.261C171.553 176.786 180.888 175.081 189.537 171.671C192.009 170.753 194.48 169.572 196.951 168.261C198.873 167.212 200.795 166.163 202.717 164.982C204.364 163.933 206.012 162.753 207.522 161.573C209.032 160.392 210.405 159.343 211.778 158.032C213.151 156.851 214.386 155.671 215.622 154.36C216.858 153.048 218.093 151.737 219.191 150.425C220.427 148.982 221.525 147.54 222.486 146.097C223.585 144.524 224.683 142.95 225.644 141.245C226.742 139.409 227.703 137.573 228.664 135.606C229.763 133.114 230.861 130.622 231.685 127.999C232.371 125.901 232.92 123.802 233.332 121.573C235.117 112.917 234.842 104.524 232.783 96.9173Z" fill="url(#paint2_linear_14_28)"/>
<path d="M177.593 52.9831C210.405 54.688 231.822 81.7042 225.232 113.573C218.642 145.31 186.792 169.835 153.98 168.13C121.168 166.425 99.7516 139.409 106.341 107.54C112.794 75.8026 144.644 51.2782 177.593 52.9831Z" fill="url(#paint3_linear_14_28)"/>
<path d="M176.221 59.5405C205.325 60.9831 224.134 84.9829 218.368 113.048C212.602 141.114 184.321 162.753 155.353 161.31C126.248 159.868 107.44 135.868 113.206 107.802C118.835 79.7371 147.116 58.0979 176.221 59.5405Z" fill="url(#paint4_linear_14_28)"/>
<path d="M132.289 120.392L134.76 122.884L127.484 122.622L124.875 119.999L132.289 120.392Z" fill="#864A4A"/>
<path d="M135.035 106.753L137.506 109.376L134.76 122.884L132.289 120.392L135.035 106.753Z" fill="#864A4A"/>
<path d="M136.27 94.8187L138.879 97.3105L147.665 111.605L145.194 108.982L136.27 94.8187Z" fill="#864A4A"/>
<path d="M149.999 121.311L152.607 123.802L146.429 123.54L143.821 121.048L149.999 121.311Z" fill="#864A4A"/>
<path d="M155.216 95.7368L157.824 98.3597L152.607 123.802L149.999 121.31L155.216 95.7368Z" fill="#864A4A"/>
<path d="M155.216 95.737L149.999 121.311L143.821 121.048L135.035 106.753L132.289 120.392L124.875 119.999L130.23 94.5566L136.27 94.8189L145.194 108.983L147.94 95.4747L155.216 95.737Z" fill="url(#paint5_linear_14_28)"/>
<path d="M181.163 97.048L180.065 102.687L166.885 102.032L165.65 107.671L168.258 110.163L169.356 104.523L182.536 105.179L183.771 99.6709L181.163 97.048Z" fill="#864A4A"/>
<path d="M176.221 113.704L164.551 113.179L162.766 121.966L155.216 121.572L157.824 124.064L165.238 124.458L167.022 115.671L178.692 116.327L179.79 110.687L177.319 108.195L176.221 113.704Z" fill="#864A4A"/>
<path d="M181.163 97.0482L180.065 102.688L166.885 102.032L165.649 107.671L177.319 108.196L176.221 113.704L164.551 113.179L162.766 121.966L155.216 121.573L160.57 95.9991L181.163 97.0482Z" fill="url(#paint6_linear_14_28)"/>
<path d="M189.263 103.212L181.163 102.819L183.772 105.442L191.871 105.835L189.263 103.212Z" fill="#864A4A"/>
<path d="M206.012 98.3596L204.776 103.999L196.814 103.605L192.695 123.409L185.282 123.015L187.753 125.638L195.304 125.9L199.285 106.228L207.385 106.622L208.483 100.851L206.012 98.3596Z" fill="#864A4A"/>
<path d="M206.012 98.3598L204.776 103.999L196.814 103.606L192.695 123.409L185.282 123.015L189.263 103.212L181.163 102.819L182.399 97.1795L206.012 98.3598Z" fill="url(#paint7_linear_14_28)"/>
<path d="M121.031 42.8849C124.292 42.8849 126.935 40.3601 126.935 37.2456C126.935 34.1311 124.292 31.6063 121.031 31.6063C117.771 31.6063 115.128 34.1311 115.128 37.2456C115.128 40.3601 117.771 42.8849 121.031 42.8849Z" fill="url(#paint8_linear_14_28)"/>
<path opacity="0.5" d="M137.368 187.015C137.368 190.949 134.073 194.228 129.818 194.228C125.562 194.228 122.267 191.08 122.267 187.015C122.267 182.949 125.562 179.802 129.818 179.802C134.073 179.802 137.368 183.08 137.368 187.015Z" fill="url(#paint9_linear_14_28)"/>
<path d="M222.212 169.573C222.212 171.015 220.976 172.196 219.466 172.196C217.956 172.196 216.72 171.015 216.72 169.573C216.72 168.13 217.956 166.95 219.466 166.95C220.976 166.95 222.212 168.13 222.212 169.573Z" fill="url(#paint10_linear_14_28)"/>
<path d="M176.907 205.769C176.907 206.949 175.946 207.999 174.573 207.999C173.338 207.999 172.239 207.08 172.239 205.769C172.239 204.458 173.2 203.54 174.573 203.54C175.946 203.54 176.907 204.589 176.907 205.769Z" fill="url(#paint11_linear_14_28)"/>
<path d="M95.3586 93.6387C95.3586 94.819 94.3975 95.8682 93.0247 95.8682C91.7891 95.8682 90.6908 94.9502 90.6908 93.6387C90.6908 92.3272 91.6518 91.4092 93.0247 91.4092C94.2603 91.4092 95.3586 92.4584 95.3586 93.6387Z" fill="url(#paint12_linear_14_28)"/>
<path d="M204.776 39.4751C204.776 40.6554 203.815 41.7045 202.442 41.7045C201.207 41.7045 200.108 40.7865 200.108 39.4751C200.108 38.2947 201.069 37.2456 202.442 37.2456C203.815 37.2456 204.776 38.2947 204.776 39.4751Z" fill="url(#paint13_linear_14_28)"/>
<path opacity="0.2" d="M206.012 194.228C207.907 194.228 209.444 192.76 209.444 190.949C209.444 189.139 207.907 187.671 206.012 187.671C204.116 187.671 202.58 189.139 202.58 190.949C202.58 192.76 204.116 194.228 206.012 194.228Z" fill="url(#paint14_linear_14_28)"/>
<path opacity="0.3" d="M244.727 83.278C244.727 85.1141 243.217 86.5567 241.295 86.5567C239.373 86.5567 237.862 85.1141 237.862 83.278C237.862 81.442 239.373 79.9994 241.295 79.9994C243.217 79.9994 244.727 81.442 244.727 83.278Z" fill="url(#paint15_linear_14_28)"/>
<path d="M316.445 48.2181C307.125 48.2181 299.601 41.0304 299.601 32.1275C299.601 23.2246 307.125 16.0369 316.445 16.0369C325.765 16.0369 333.289 23.2246 333.289 32.1275C333.289 41.0304 325.679 48.2181 316.445 48.2181ZM316.445 18.1605C308.408 18.1605 301.824 24.4498 301.824 32.1275C301.824 39.8053 308.408 46.0945 316.445 46.0945C324.482 46.0945 331.066 39.8053 331.066 32.1275C331.066 24.4498 324.482 18.1605 316.445 18.1605Z" fill="url(#paint16_linear_14_28)"/>
<path d="M323.798 35.9662C323.798 34.9044 323.542 34.0059 322.943 33.4342C322.345 32.7808 321.661 32.2907 320.891 31.964C320.122 31.6373 319.096 31.3922 317.984 31.0655V25.8381C318.839 25.9198 319.694 26.1648 320.464 26.4099C321.233 26.6549 322.088 26.3282 322.345 25.6748C322.516 25.3481 322.516 24.9397 322.345 24.5313C322.174 24.2046 321.917 23.9595 321.575 23.7962C320.549 23.3878 319.267 23.1427 317.899 22.9794V21.4275C317.899 20.6107 317.215 19.8756 316.36 19.8756C315.505 19.8756 314.735 20.529 314.735 21.4275V23.0611C312.854 23.3061 311.4 23.8778 310.46 24.858C309.434 25.8381 308.921 26.9816 308.921 28.3702C308.921 29.432 309.177 30.3304 309.776 30.9839C310.374 31.6373 311.058 32.1274 311.913 32.4541C312.683 32.7808 313.709 33.1075 314.821 33.3525V38.4983C313.88 38.4166 312.939 38.1715 312.084 37.8448C311.742 37.7631 311.486 37.5998 311.144 37.4364C310.973 37.3548 310.802 37.3548 310.545 37.3548C310.374 37.3548 310.203 37.3548 310.032 37.4364C309.69 37.5998 309.348 37.8448 309.177 38.1715C308.835 38.9066 309.177 39.7234 309.947 40.0501C310.374 40.2135 310.802 40.3769 311.315 40.5402C312.426 40.8669 313.623 41.112 314.821 41.1936V42.7455C314.821 43.5623 315.505 44.2157 316.445 44.2157C317.3 44.2157 317.984 43.5623 317.984 42.7455V41.112C319.865 40.8669 321.319 40.2952 322.259 39.315C323.371 38.4166 323.798 37.2731 323.798 35.9662ZM313.281 29.5136C312.854 29.1869 312.597 28.6969 312.597 28.2068C312.597 27.635 312.768 27.145 313.196 26.7366C313.538 26.3282 314.051 26.0832 314.735 25.9198V30.2487C314.222 30.0037 313.709 29.7587 313.281 29.5136ZM319.523 37.5998C319.181 37.9265 318.668 38.1715 317.984 38.3349V34.0876C318.668 34.3327 319.181 34.5777 319.523 34.9044C319.951 35.2311 320.122 35.7212 320.122 36.2113C320.122 36.783 319.951 37.2731 319.523 37.5998Z" fill="url(#paint17_linear_14_28)"/>
<g filter="url(#filter0_d_14_28)">
<path d="M235.629 445.915C236.015 447.022 236.208 448.313 236.594 449.604C241.807 468.605 247.793 497.013 246.248 508.819C245.862 511.586 245.09 513.431 243.738 514.169C243.352 514.353 242.966 514.353 242.58 514.353C241.228 514.538 239.49 513.984 237.366 513.062C225.009 507.159 203.384 483.178 199.522 475.061C198.943 474.139 198.75 473.216 198.943 472.848C201.067 464.731 227.133 429.313 230.222 431.157C230.995 431.711 233.119 437.614 235.629 445.915Z" fill="url(#paint18_linear_14_28)"/>
<path d="M199.522 475.061C199.522 478.013 234.277 457.721 230.222 431.157C230.222 431.157 199.522 447.391 199.522 475.061Z" fill="url(#paint19_linear_14_28)"/>
<path opacity="0.3" d="M235.629 445.915C235.629 445.915 217.672 459.566 216.9 470.818C216.127 481.887 227.326 503.101 237.56 513.062C225.202 507.159 203.577 483.178 199.715 475.061C199.136 474.139 198.943 473.216 199.136 472.848C201.26 464.731 227.326 429.313 230.416 431.157C230.995 431.711 233.119 437.614 235.629 445.915Z" fill="url(#paint20_linear_14_28)"/>
<path d="M113.6 450.527C113.214 451.633 113.021 452.925 112.635 454.216C107.422 473.216 101.436 501.625 102.981 513.431C103.367 516.198 104.139 518.042 105.491 518.78C105.877 518.965 106.263 518.965 106.649 518.965C108.001 519.149 109.739 518.596 111.863 517.673C124.22 511.77 145.845 487.789 149.707 479.673C150.286 478.75 150.479 477.828 150.286 477.459C148.162 469.342 122.096 433.924 119.007 435.769C118.041 436.322 115.917 442.041 113.6 450.527Z" fill="url(#paint21_linear_14_28)"/>
<path d="M149.514 479.673C149.514 482.624 114.759 462.332 118.814 435.769C118.814 435.769 149.514 452.002 149.514 479.673Z" fill="url(#paint22_linear_14_28)"/>
<path d="M125.378 480.042C126.73 481.149 122.096 492.77 119.2 492.401C116.497 492.217 122.289 477.644 125.378 480.042Z" fill="white"/>
<path d="M230.029 497.198C231.767 497.013 235.629 503.838 233.312 505.499C230.995 507.159 225.975 497.566 230.029 497.198Z" fill="white"/>
<path opacity="0.3" d="M113.6 450.527C113.6 450.527 131.557 464.177 132.329 475.43C133.102 486.498 121.903 507.712 111.67 517.673C124.027 511.77 145.652 487.789 149.514 479.673C150.093 478.75 150.286 477.828 150.093 477.459C147.969 469.342 121.903 433.924 118.814 435.769C118.041 436.322 115.917 442.041 113.6 450.527Z" fill="url(#paint23_linear_14_28)"/>
<path d="M122.096 217.911C122.096 217.911 109.932 207.949 95.2577 206.289C95.2577 206.289 90.8168 208.318 85.4105 223.998C80.1972 239.493 89.8514 270.3 89.8514 270.3L122.096 217.911Z" fill="url(#paint24_linear_14_28)"/>
<path d="M89.4652 214.037C89.4652 214.037 91.7822 208.687 95.2577 206.289C95.2577 206.289 107.422 216.988 106.843 242.629L103.367 246.134L89.4652 214.037Z" fill="url(#paint25_linear_14_28)"/>
<path d="M221.92 217.911C221.92 217.911 234.084 207.949 248.758 206.289C248.758 206.289 253.199 208.318 258.606 223.998C263.819 239.493 254.165 270.3 254.165 270.3L221.92 217.911Z" fill="url(#paint26_linear_14_28)"/>
<path d="M248.758 206.289C248.758 206.289 236.787 218.464 236.787 238.202L241.421 240.969L254.937 214.405C254.937 214.405 250.496 205.92 248.758 206.289Z" fill="url(#paint27_linear_14_28)"/>
<path d="M241.035 239.678C241.035 239.678 237.946 222.891 249.531 210.347C249.531 210.347 262.66 216.25 268.067 238.202C273.473 260.154 259.378 273.251 259.378 273.251L241.035 239.678Z" fill="url(#paint28_linear_14_28)"/>
<path d="M102.981 239.678C102.981 239.678 106.07 222.891 94.4853 210.347C94.4853 210.347 81.3556 216.25 75.9493 238.202C70.543 260.154 84.6381 273.251 84.6381 273.251L102.981 239.678Z" fill="url(#paint29_linear_14_28)"/>
<path d="M257.254 332.835C230.222 368.991 103.56 366.224 87.1481 337.078C76.3355 318.078 77.494 289.3 87.9205 262.921C101.436 228.241 130.978 197.619 169.981 197.619C215.934 197.619 251.269 241.338 261.888 281.184C267.101 301.475 266.329 320.66 257.254 332.835Z" fill="url(#paint30_linear_14_28)"/>
<path d="M96.6092 299.262C102.595 323.796 214.004 326.563 241.228 304.242C268.453 281.921 229.257 202.784 168.822 206.289C113.794 209.425 86.762 259.047 96.6092 299.262Z" fill="#DFE3FB"/>
<path d="M96.0299 296.31C102.016 320.845 213.424 323.612 240.649 301.291C268.067 278.97 228.678 199.833 168.243 203.338C113.214 206.474 86.1827 256.096 96.0299 296.31Z" fill="url(#paint31_linear_14_28)"/>
<path opacity="0.3" d="M257.254 332.835C230.222 368.991 103.56 366.224 87.1481 337.078C76.3355 318.077 77.494 289.3 87.9205 262.921C87.5343 264.397 76.9148 301.475 87.7274 317.708C98.7331 334.311 142.563 332.097 189.675 330.068C236.787 328.223 252.234 321.582 260.15 308.854C266.329 298.893 260.15 276.941 257.254 267.902L261.888 280.999C267.101 301.475 266.329 320.66 257.254 332.835Z" fill="url(#paint32_linear_14_28)"/>
<path d="M169.981 359.398C143.721 359.398 124.606 356.631 113.987 352.389C107.036 349.806 103.56 346.486 104.139 343.35C104.526 341.32 109.546 339.66 117.655 338.184C141.597 334.126 191.027 332.835 217.672 336.709C219.989 337.078 222.113 337.447 224.044 337.816C224.43 337.816 224.816 338 225.202 338H225.395C230.029 339.107 233.312 340.398 234.663 342.058C235.05 342.427 235.243 342.796 235.436 343.35C238.332 351.466 193.923 359.398 169.981 359.398Z" fill="url(#paint33_linear_14_28)"/>
<path opacity="0.5" d="M235.436 341.32C235.436 341.505 235.243 341.874 235.05 342.058C232.539 345.563 221.92 349.991 221.92 349.991C221.92 349.991 181.759 334.311 149.128 341.32C116.497 348.33 113.987 352.389 113.987 352.389C107.036 349.806 103.56 346.486 104.139 343.35C104.526 341.32 109.546 339.66 117.655 338.184C141.597 334.126 191.027 332.835 217.672 336.709C220.375 337.262 223.078 337.631 225.202 338.184H225.395C231.96 339.476 235.822 340.583 235.436 341.32Z" fill="url(#paint34_linear_14_28)"/>
<path d="M224.237 337.816C218.058 343.534 188.13 348.33 171.139 348.33C140.632 348.33 122.096 343.719 117.848 338.185C143.914 333.757 200.102 332.651 224.237 337.816Z" fill="url(#paint35_linear_14_28)"/>
<path opacity="0.5" d="M87.1481 337.078C87.1481 337.078 92.5544 331.175 102.981 326.379C113.407 321.583 123.062 317.893 124.606 314.019C126.151 310.145 95.8368 312.359 95.8368 312.359L80.7764 318.631C80.7764 318.447 83.0934 330.068 87.1481 337.078Z" fill="url(#paint36_linear_14_28)"/>
<path d="M74.7909 245.95C74.7909 245.95 82.5142 250.746 77.494 261.814C77.494 261.814 41.0014 280.815 43.1253 301.475C44.863 318.815 95.2576 310.33 95.2576 310.33L96.9954 316.048C96.9954 316.048 54.131 323.98 39.4567 314.388C39.4567 314.388 34.4366 302.951 46.987 282.475C59.3442 262.183 74.7909 245.95 74.7909 245.95Z" fill="url(#paint37_linear_14_28)"/>
<path d="M88.886 308.854C84.252 313.835 94.0992 319.184 102.016 320.107C111.09 321.029 126.923 317.709 125.958 309.038C124.992 300.368 99.6986 297.232 88.886 308.854Z" fill="url(#paint38_linear_14_28)"/>
<path opacity="0.5" d="M114.18 234.144C112.828 242.076 131.364 241.707 156.658 240.969C186.972 240.047 217.479 264.95 235.243 247.057C238.139 244.105 209.176 205.367 174.035 206.105C138.894 206.842 115.531 227.319 114.18 234.144Z" fill="url(#paint39_linear_14_28)"/>
<path opacity="0.5" d="M131.364 303.504C129.819 309.223 142.37 314.019 173.456 313.65C212.845 313.281 219.796 304.058 219.024 303.504C219.024 303.504 202.612 312.728 171.911 306.087C151.638 301.844 133.102 297.417 131.364 303.504Z" fill="url(#paint40_linear_14_28)"/>
<path opacity="0.3" d="M256.868 267.348L255.902 264.766C256.096 265.135 256.482 266.057 256.868 267.348Z" fill="url(#paint41_linear_14_28)"/>
<path d="M191.413 202.599C188.71 203.153 211.107 214.59 212.073 213.114C213.038 211.823 198.75 200.939 191.413 202.599Z" fill="white"/>
<path d="M234.277 211.085C231.96 212.192 232.153 214.59 236.787 214.037C241.421 213.483 243.931 209.978 243.352 209.24C242.966 208.687 236.787 209.794 234.277 211.085Z" fill="white"/>
<path d="M89.465 309.776C89.272 311.252 121.324 311.621 122.096 306.087C122.868 300.737 91.589 298.893 89.465 309.776Z" fill="url(#paint42_linear_14_28)"/>
<path opacity="0.2" d="M97.3815 288.193C97.3815 288.193 96.0299 279.892 97.5746 268.64C99.1192 257.387 102.209 250.193 104.139 251.115C106.07 252.222 105.684 263.105 106.843 273.989C107.615 282.475 109.353 290.407 109.353 290.407C109.353 290.407 101.243 297.786 97.3815 288.193Z" fill="url(#paint43_linear_14_28)"/>
<path opacity="0.72" d="M259.571 220.309C259.571 220.309 255.323 215.328 249.531 216.619C243.738 217.911 243.352 235.435 246.828 235.804C250.303 236.173 251.848 226.212 254.358 224.551C257.061 222.891 261.695 223.629 261.695 223.629L259.571 220.309Z" fill="url(#paint44_linear_14_28)"/>
<path opacity="0.72" d="M80.3903 226.396C80.3903 226.396 82.7073 223.998 87.7274 224.736C92.7476 225.474 95.6438 235.435 98.1539 234.328C100.664 233.406 98.9262 217.357 91.9752 212.745C91.9752 212.745 83.2865 219.94 80.3903 226.396Z" fill="url(#paint45_linear_14_28)"/>
<path d="M73.4392 249.639C73.4392 249.639 55.6756 268.64 56.8341 270.115C57.7995 271.407 74.5977 251.668 73.4392 249.639Z" fill="url(#paint46_linear_14_28)"/>
<path d="M135.033 352.573C132.716 363.457 128.082 378.952 120.358 390.759C107.615 410.312 89.272 434.478 88.6928 435.216C79.811 438.352 70.543 436.323 64.7505 434.478C61.275 433.371 58.958 432.08 58.958 432.08C58.958 432.08 66.4882 408.283 85.7965 383.564C95.4507 371.02 107.036 359.952 116.497 351.835C116.497 351.835 116.497 351.835 116.69 351.651C116.883 351.467 116.883 351.466 117.076 351.282L117.269 351.098L117.462 350.913L117.655 350.729C127.309 342.612 134.84 338.185 135.998 339.107C136.963 339.845 136.577 345.195 135.033 352.573Z" fill="url(#paint47_linear_14_28)"/>
<path opacity="0.3" d="M135.033 352.573C132.716 363.457 128.082 378.952 120.358 390.758C107.615 410.312 89.272 434.478 88.6928 435.215L64.7505 434.478C61.275 433.371 58.958 432.079 58.958 432.079C58.958 432.079 66.4882 408.283 85.7965 383.564C95.4506 371.02 107.036 359.952 116.497 351.835C111.09 356.631 87.7273 377.292 78.6525 396.846C68.4191 419.167 92.9406 414.37 105.105 401.642C117.269 388.914 134.646 352.204 134.646 352.204L135.033 352.573Z" fill="url(#paint48_linear_14_28)"/>
<path d="M109.932 375.447C108.194 374.525 114.373 365.301 117.269 365.67C120.165 366.039 111.283 376.37 109.932 375.447Z" fill="white"/>
<path d="M100.857 388.36C99.5054 387.438 97.3815 390.943 98.54 391.865C99.6985 392.603 102.209 389.467 100.857 388.36Z" fill="white"/>
<path d="M63.0127 422.118C63.0127 422.118 69.1914 410.312 79.6179 415.108C90.0443 419.72 82.5141 435.953 82.5141 435.953C82.5141 435.953 68.6121 442.041 58.958 432.449C58.958 432.264 60.3096 428.021 63.0127 422.118Z" fill="url(#paint49_linear_14_28)"/>
<path d="M62.6266 419.167C62.6266 419.167 75.9493 414.002 82.128 419.905C87.1481 424.701 85.2173 435.031 82.3211 441.672C79.4248 448.313 59.1511 469.527 50.0762 469.342C41.0014 468.973 36.1743 459.566 39.8429 448.497C39.8429 448.497 52.7794 426.545 62.6266 419.167Z" fill="url(#paint50_linear_14_28)"/>
<path d="M62.6266 419.167C62.6266 419.167 62.4335 430.973 54.5171 439.09C46.6007 447.206 41.3875 464.915 41.3875 464.915C41.3875 464.915 37.1397 460.488 39.6498 448.497C42.3529 436.507 62.6266 419.167 62.6266 419.167Z" fill="url(#paint51_linear_14_28)"/>
<path opacity="0.5" d="M40.422 446.099L47.1799 450.342C47.1799 450.342 49.69 444.624 53.1655 440.565C56.6409 436.507 59.5372 428.575 59.5372 428.575L40.422 446.099Z" fill="url(#paint52_linear_14_28)"/>
<path d="M60.5027 420.643C60.5027 420.643 54.5171 421.934 45.4422 427.652C36.5604 433.555 31.1541 440.381 30.5748 442.041C29.9956 443.886 32.6988 447.022 35.7881 447.206C38.8774 447.391 49.3039 441.672 49.3039 441.672C49.3039 441.672 63.3989 428.944 60.5027 420.643Z" fill="url(#paint53_linear_14_28)"/>
<path d="M54.5171 439.089C54.5171 439.089 70.9291 433.555 83.2864 439.089L82.1279 441.672C82.1279 441.672 69.5775 435.769 52.9724 440.565L54.5171 439.089Z" fill="url(#paint54_linear_14_28)"/>
<path d="M38.6843 439.643C37.912 438.72 46.7938 433.002 47.1799 434.478C47.7592 435.953 39.8428 440.934 38.6843 439.643Z" fill="white"/>
<path d="M136.191 339.292C136.191 339.292 123.448 359.583 124.799 382.826C124.992 382.826 141.404 354.418 136.191 339.292Z" fill="url(#paint55_linear_14_28)"/>
<path d="M208.983 350.728C211.3 361.612 215.934 377.108 223.658 388.914C236.401 408.467 254.744 432.633 255.323 433.371C264.205 436.507 273.473 434.478 279.266 432.633C282.741 431.526 285.058 430.235 285.058 430.235C285.058 430.235 277.528 406.438 258.219 381.719C248.565 369.175 236.98 358.107 227.519 349.991C227.519 349.991 227.519 349.991 227.326 349.806C227.133 349.622 227.133 349.622 226.94 349.437L226.747 349.253L226.554 349.068L226.361 348.884C216.707 340.767 209.176 336.34 208.018 337.262C207.053 338 207.439 343.35 208.983 350.728Z" fill="url(#paint56_linear_14_28)"/>
<path opacity="0.3" d="M208.983 350.729C211.3 361.612 215.934 377.108 223.658 388.914C236.401 408.468 254.744 432.633 255.323 433.371L279.265 432.633C282.741 431.526 285.058 430.235 285.058 430.235C285.058 430.235 277.528 406.439 258.219 381.72C248.565 369.176 236.98 358.108 227.519 349.991C232.926 354.787 256.289 375.448 265.364 395.001C275.597 417.322 251.075 412.526 238.911 399.798C226.747 387.069 209.369 350.36 209.369 350.36L208.983 350.729Z" fill="url(#paint57_linear_14_28)"/>
<path d="M234.084 373.603C235.822 372.681 229.643 363.457 226.747 363.826C223.851 364.195 232.733 374.525 234.084 373.603Z" fill="white"/>
<path d="M281.003 420.089C281.003 420.089 274.825 408.283 264.398 413.079C253.972 417.691 261.502 433.924 261.502 433.924C261.502 433.924 275.404 440.012 285.058 430.42C285.058 430.42 283.706 426.177 281.003 420.089Z" fill="url(#paint58_linear_14_28)"/>
<path d="M281.389 417.322C281.389 417.322 268.067 412.157 261.888 418.06C256.868 422.856 258.799 433.186 261.695 439.827C264.591 446.468 284.865 467.682 293.94 467.498C303.015 467.129 307.842 457.721 304.173 446.653C304.173 446.653 291.237 424.701 281.389 417.322Z" fill="url(#paint59_linear_14_28)"/>
<path d="M276.948 416.031C276.948 416.031 280.038 428.759 289.499 437.245C297.995 444.808 302.628 463.07 302.628 463.07C302.628 463.07 306.876 458.643 304.366 446.653C301.663 434.662 276.948 416.031 276.948 416.031Z" fill="url(#paint60_linear_14_28)"/>
<path opacity="0.5" d="M303.594 444.255L297.029 447.944C297.029 447.944 294.519 442.41 290.851 438.72C279.459 427.283 277.142 416.031 277.142 416.031L292.588 429.497C292.588 429.497 296.45 433.371 299.153 436.876C300.505 438.72 303.594 444.255 303.594 444.255Z" fill="url(#paint61_linear_14_28)"/>
<path d="M276.948 416.031C276.948 416.031 280.038 415.108 291.044 414.924C302.242 414.739 308.228 417.691 309.773 418.613C311.317 419.536 311.703 423.594 309.579 425.808C307.456 428.021 287.761 431.342 287.761 431.342C287.761 431.342 280.617 423.963 276.948 416.031Z" fill="url(#paint62_linear_14_28)"/>
<path d="M289.499 437.245C289.499 437.245 273.087 431.711 260.73 437.245L261.888 439.827C261.888 439.827 274.438 433.924 291.044 438.721L289.499 437.245Z" fill="url(#paint63_linear_14_28)"/>
<path d="M300.891 417.506C301.084 416.4 290.271 416.584 290.85 418.06C291.237 419.536 300.698 419.167 300.891 417.506Z" fill="white"/>
<path d="M207.825 337.447C207.825 337.447 220.568 357.738 219.217 380.981C219.024 380.981 202.612 352.389 207.825 337.447Z" fill="url(#paint64_linear_14_28)"/>
<path d="M158.975 296.126C158.975 296.126 166.505 287.087 174.421 285.426C182.338 283.766 185.041 292.99 185.041 292.99C185.041 292.99 170.367 291.883 158.975 296.126Z" fill="#2F95CD"/>
<path d="M224.43 442.779C220.761 463.439 201.26 477.275 173.456 477.275C149.128 477.275 128.661 468.605 123.254 449.604C117.848 430.604 119.972 395.37 127.116 373.603C128.275 370.282 129.433 367.146 130.978 364.195C132.329 361.428 133.874 358.845 135.612 356.447C144.494 343.719 157.43 335.418 172.104 335.418C187.358 335.418 198.943 341.321 207.052 350.36C210.721 354.418 213.617 359.214 215.741 364.195C218.058 369.913 220.182 376.185 221.727 382.457V382.642C226.554 402.564 227.712 424.332 224.43 442.779Z" fill="url(#paint65_linear_14_28)"/>
<path opacity="0.3" d="M224.43 442.779C220.761 463.439 201.26 477.275 173.456 477.275C149.128 477.275 128.661 468.605 123.255 449.604C117.848 430.604 119.972 395.37 127.116 373.603C128.275 370.282 129.433 367.146 130.978 364.195C130.978 364.195 116.304 410.681 128.082 440.381C139.86 470.08 194.502 469.342 213.038 449.604C230.609 430.973 222.499 386.885 221.727 382.642C226.554 402.564 227.712 424.332 224.43 442.779Z" fill="url(#paint66_linear_14_28)"/>
<path d="M124.22 430.42C128.275 402.565 151.831 383.749 177.704 386.147C205.701 388.729 220.761 414.186 220.375 436.138C219.989 458.09 203.191 475.061 173.263 475.061C143.142 475.061 120.358 456.614 124.22 430.42Z" fill="url(#paint67_linear_14_28)"/>
<path d="M124.606 432.817C128.661 404.963 152.217 386.147 178.09 388.36C206.087 390.943 221.147 416.4 220.761 438.352C220.375 460.303 203.577 477.275 173.649 477.275C143.721 477.275 120.551 458.828 124.606 432.817Z" fill="url(#paint68_radial_14_28)"/>
<path opacity="0.5" d="M206.859 350.36C200.874 359.214 168.243 364.379 149.321 362.719C132.909 361.243 135.419 357 135.419 356.447C144.3 343.719 157.237 335.418 171.911 335.418C187.358 335.418 198.943 341.321 206.859 350.36Z" fill="url(#paint69_linear_14_28)"/>
<path d="M195.275 365.671C193.73 366.224 193.73 377.846 195.275 379.69C196.819 381.535 199.329 380.982 200.295 378.215C201.26 375.632 197.592 364.933 195.275 365.671Z" fill="white"/>
<path opacity="0.72" d="M134.453 415.108C139.474 422.671 159.747 418.613 182.531 420.827C205.315 423.04 209.37 430.05 214.197 428.574C219.024 427.099 211.493 394.263 177.125 392.05C142.949 389.836 133.295 413.264 134.453 415.108Z" fill="url(#paint70_linear_14_28)"/>
<path opacity="0.72" d="M141.404 461.964C141.404 461.964 148.162 473.032 173.07 473.216C197.978 473.401 208.211 459.012 208.211 459.012C208.211 459.012 196.626 466.206 180.214 461.964C163.802 457.721 147.583 455.323 141.404 461.964Z" fill="url(#paint71_linear_14_28)"/>
</g>
<defs>
<filter id="filter0_d_14_28" x="30.4961" y="197.619" width="300.573" height="345.401" filterUnits="userSpaceOnUse" color-interpolation-filters="sRGB">
<feFlood flood-opacity="0" result="BackgroundImageFix"/>
<feColorMatrix in="SourceAlpha" type="matrix" values="0 0 0 0 0 0 0 0 0 0 0 0 0 0 0 0 0 0 127 0" result="hardAlpha"/>
<feOffset dx="10.4087" dy="14.412"/>
<feGaussianBlur stdDeviation="4.804"/>
<feComposite in2="hardAlpha" operator="out"/>
<feColorMatrix type="matrix" values="0 0 0 0 0 0 0 0 0 0 0 0 0 0 0 0 0 0 0.25 0"/>
<feBlend mode="normal" in2="BackgroundImageFix" result="effect1_dropShadow_14_28"/>
<feBlend mode="normal" in="SourceGraphic" in2="effect1_dropShadow_14_28" result="shape"/>
</filter>
<linearGradient id="paint0_linear_14_28" x1="169.797" y1="216.384" x2="169.797" y2="4.5096" gradientUnits="userSpaceOnUse">
<stop stop-color="#8AFFFF"/>
<stop offset="1" stop-color="#79D3FD" stop-opacity="0"/>
</linearGradient>
<linearGradient id="paint1_linear_14_28" x1="169.797" y1="216.384" x2="169.797" y2="4.50967" gradientUnits="userSpaceOnUse">
<stop stop-color="#8AFFFF"/>
<stop offset="1" stop-color="#79D3FD" stop-opacity="0"/>
</linearGradient>
<linearGradient id="paint2_linear_14_28" x1="195.981" y1="105.431" x2="163.266" y2="169.287" gradientUnits="userSpaceOnUse">
<stop stop-color="#F9DD68"/>
<stop offset="1" stop-color="#F9A942"/>
</linearGradient>
<linearGradient id="paint3_linear_14_28" x1="105.069" y1="110.513" x2="226.343" y2="110.513" gradientUnits="userSpaceOnUse">
<stop stop-color="#F9DD68"/>
<stop offset="1" stop-color="#F9A942"/>
</linearGradient>
<linearGradient id="paint4_linear_14_28" x1="112.064" y1="110.513" x2="219.349" y2="110.513" gradientUnits="userSpaceOnUse">
<stop stop-color="#F9DD68"/>
<stop offset="1" stop-color="#F9A942"/>
</linearGradient>
<linearGradient id="paint5_linear_14_28" x1="133.236" y1="104.48" x2="192.664" y2="137.15" gradientUnits="userSpaceOnUse">
<stop stop-color="#A58C26"/>
<stop offset="1" stop-color="#F9A942"/>
</linearGradient>
<linearGradient id="paint6_linear_14_28" x1="138.713" y1="94.519" x2="198.139" y2="127.188" gradientUnits="userSpaceOnUse">
<stop stop-color="#A58C26"/>
<stop offset="1" stop-color="#F9A942"/>
</linearGradient>
<linearGradient id="paint7_linear_14_28" x1="144.041" y1="84.8259" x2="203.468" y2="117.495" gradientUnits="userSpaceOnUse">
<stop stop-color="#A58C26"/>
<stop offset="1" stop-color="#F9A942"/>
</linearGradient>
<linearGradient id="paint8_linear_14_28" x1="115.239" y1="37.2581" x2="126.961" y2="37.2581" gradientUnits="userSpaceOnUse">
<stop stop-color="#F9DD68"/>
<stop offset="1" stop-color="#F9A942"/>
</linearGradient>
<linearGradient id="paint9_linear_14_28" x1="122.349" y1="186.998" x2="137.366" y2="186.998" gradientUnits="userSpaceOnUse">
<stop stop-color="#F9DD68"/>
<stop offset="1" stop-color="#F9A942"/>
</linearGradient>
<linearGradient id="paint10_linear_14_28" x1="216.554" y1="169.572" x2="222.144" y2="169.572" gradientUnits="userSpaceOnUse">
<stop stop-color="#F9DD68"/>
<stop offset="1" stop-color="#F9A942"/>
</linearGradient>
<linearGradient id="paint11_linear_14_28" x1="172.429" y1="205.726" x2="176.971" y2="205.726" gradientUnits="userSpaceOnUse">
<stop stop-color="#F9DD68"/>
<stop offset="1" stop-color="#F9A942"/>
</linearGradient>
<linearGradient id="paint12_linear_14_28" x1="90.7518" y1="93.6205" x2="95.2942" y2="93.6205" gradientUnits="userSpaceOnUse">
<stop stop-color="#F9DD68"/>
<stop offset="1" stop-color="#F9A942"/>
</linearGradient>
<linearGradient id="paint13_linear_14_28" x1="200.276" y1="39.4276" x2="204.818" y2="39.4276" gradientUnits="userSpaceOnUse">
<stop stop-color="#F9DD68"/>
<stop offset="1" stop-color="#F9A942"/>
</linearGradient>
<linearGradient id="paint14_linear_14_28" x1="202.547" y1="190.887" x2="209.42" y2="190.887" gradientUnits="userSpaceOnUse">
<stop stop-color="#F9DD68"/>
<stop offset="1" stop-color="#F9A942"/>
</linearGradient>
<linearGradient id="paint15_linear_14_28" x1="237.88" y1="83.3073" x2="244.753" y2="83.3073" gradientUnits="userSpaceOnUse">
<stop stop-color="#F9DD68"/>
<stop offset="1" stop-color="#F9A942"/>
</linearGradient>
<linearGradient id="paint16_linear_14_28" x1="303.619" y1="19.9221" x2="326.908" y2="44.3022" gradientUnits="userSpaceOnUse">
<stop stop-color="#F9DD68"/>
<stop offset="1" stop-color="#F9A942"/>
</linearGradient>
<linearGradient id="paint17_linear_14_28" x1="303.419" y1="20.1131" x2="326.708" y2="44.4931" gradientUnits="userSpaceOnUse">
<stop stop-color="#F9DD68"/>
<stop offset="1" stop-color="#F9A942"/>
</linearGradient>
<linearGradient id="paint18_linear_14_28" x1="233.338" y1="516.857" x2="212.485" y2="435.619" gradientUnits="userSpaceOnUse">
<stop stop-color="#CBC1F7"/>
<stop offset="1" stop-color="#E8DCF7"/>
</linearGradient>
<linearGradient id="paint19_linear_14_28" x1="220.997" y1="467.406" x2="209.976" y2="439.135" gradientUnits="userSpaceOnUse">
<stop stop-color="#BE9DEA"/>
<stop offset="1" stop-color="#9E8CEF"/>
</linearGradient>
<linearGradient id="paint20_linear_14_28" x1="240.212" y1="512.06" x2="211.46" y2="438.306" gradientUnits="userSpaceOnUse">
<stop stop-color="#9D68C2"/>
<stop offset="1" stop-color="#CCEDFF"/>
</linearGradient>
<linearGradient id="paint21_linear_14_28" x1="115.747" y1="521.404" x2="136.6" y2="440.166" gradientUnits="userSpaceOnUse">
<stop stop-color="#CBC1F7"/>
<stop offset="1" stop-color="#E8DCF7"/>
</linearGradient>
<linearGradient id="paint22_linear_14_28" x1="128.087" y1="471.953" x2="139.109" y2="443.682" gradientUnits="userSpaceOnUse">
<stop stop-color="#BE9DEA"/>
<stop offset="1" stop-color="#9E8CEF"/>
</linearGradient>
<linearGradient id="paint23_linear_14_28" x1="108.873" y1="516.607" x2="137.625" y2="442.853" gradientUnits="userSpaceOnUse">
<stop stop-color="#9D68C2"/>
<stop offset="1" stop-color="#CCEDFF"/>
</linearGradient>
<linearGradient id="paint24_linear_14_28" x1="102.965" y1="270.181" x2="102.965" y2="206.216" gradientUnits="userSpaceOnUse">
<stop stop-color="#B9ACF4"/>
<stop offset="1" stop-color="#E1D1F5"/>
</linearGradient>
<linearGradient id="paint25_linear_14_28" x1="98.1709" y1="246.016" x2="98.1709" y2="206.216" gradientUnits="userSpaceOnUse">
<stop stop-color="#BE9DEA"/>
<stop offset="1" stop-color="#9E8CEF"/>
</linearGradient>
<linearGradient id="paint26_linear_14_28" x1="241.063" y1="270.181" x2="241.063" y2="206.216" gradientUnits="userSpaceOnUse">
<stop stop-color="#B9ACF4"/>
<stop offset="1" stop-color="#E1D1F5"/>
</linearGradient>
<linearGradient id="paint27_linear_14_28" x1="245.926" y1="240.984" x2="245.926" y2="206.211" gradientUnits="userSpaceOnUse">
<stop stop-color="#BE9DEA"/>
<stop offset="1" stop-color="#9E8CEF"/>
</linearGradient>
<linearGradient id="paint28_linear_14_28" x1="254.974" y1="273.242" x2="254.974" y2="210.394" gradientUnits="userSpaceOnUse">
<stop stop-color="#c9150f"/>
<stop offset="1" stop-color="rgb(255, 156, 84)"/>
</linearGradient>
<linearGradient id="paint29_linear_14_28" x1="89.0539" y1="273.242" x2="89.0539" y2="210.394" gradientUnits="userSpaceOnUse">
<stop stop-color="#c9150f"/>
<stop offset="1" stop-color="rgb(255, 156, 84)"/>
</linearGradient>
<linearGradient id="paint30_linear_14_28" x1="164.792" y1="360.909" x2="184.247" y2="198.773" gradientUnits="userSpaceOnUse">
<stop stop-color="#CBC1F7"/>
<stop offset="1" stop-color="#E8DCF7"/>
</linearGradient>
<linearGradient id="paint31_linear_14_28" x1="171.738" y1="316.521" x2="171.738" y2="203.225" gradientUnits="userSpaceOnUse">
<stop stop-color="#0665BD"/>
<stop offset="1" stop-color="#1A1F77"/>
</linearGradient>
<linearGradient id="paint32_linear_14_28" x1="172.321" y1="359.412" x2="172.321" y2="262.901" gradientUnits="userSpaceOnUse">
<stop stop-color="#9D68C2"/>
<stop offset="1" stop-color="#CCEDFF"/>
</linearGradient>
<linearGradient id="paint33_linear_14_28" x1="104.237" y1="346.866" x2="235.874" y2="346.866" gradientUnits="userSpaceOnUse">
<stop stop-color="#8879EA"/>
<stop offset="1" stop-color="#9E8CEF"/>
</linearGradient>
<linearGradient id="paint34_linear_14_28" x1="169.863" y1="352.47" x2="169.863" y2="334.343" gradientUnits="userSpaceOnUse">
<stop stop-color="#8DA4E5"/>
<stop offset="1" stop-color="#755CBB"/>
</linearGradient>
<linearGradient id="paint35_linear_14_28" x1="169.529" y1="349.905" x2="171.787" y2="331.085" gradientUnits="userSpaceOnUse">
<stop stop-color="#c9150f"/>
<stop offset="1" stop-color="#6C4A96"/>
</linearGradient>
<linearGradient id="paint36_linear_14_28" x1="102.665" y1="337.035" x2="102.665" y2="311.601" gradientUnits="userSpaceOnUse">
<stop stop-color="#8DA4E5"/>
<stop offset="1" stop-color="#755CBB"/>
</linearGradient>
<linearGradient id="paint37_linear_14_28" x1="66.5238" y1="320.415" x2="75.4412" y2="246.1" gradientUnits="userSpaceOnUse">
<stop stop-color="#BE9DEA"/>
<stop offset="1" stop-color="#9E8CEF"/>
</linearGradient>
<linearGradient id="paint38_linear_14_28" x1="104.406" y1="320.856" x2="109.008" y2="300.399" gradientUnits="userSpaceOnUse">
<stop stop-color="rgb(255, 156, 84)"/>
<stop offset="1" stop-color="#c9150f"/>
</linearGradient>
<linearGradient id="paint39_linear_14_28" x1="114.16" y1="229.881" x2="235.474" y2="229.881" gradientUnits="userSpaceOnUse">
<stop/>
<stop offset="1" stop-color="#6A9BFF"/>
</linearGradient>
<linearGradient id="paint40_linear_14_28" x1="131.31" y1="307.1" x2="219.234" y2="307.1" gradientUnits="userSpaceOnUse">
<stop/>
<stop offset="1" stop-color="#6A9BFF"/>
</linearGradient>
<linearGradient id="paint41_linear_14_28" x1="256.458" y1="267.311" x2="256.458" y2="264.696" gradientUnits="userSpaceOnUse">
<stop stop-color="#9D68C2"/>
<stop offset="1" stop-color="#CCEDFF"/>
</linearGradient>
<linearGradient id="paint42_linear_14_28" x1="105.759" y1="310.725" x2="105.759" y2="301.843" gradientUnits="userSpaceOnUse">
<stop stop-color="rgb(255, 156, 84)"/>
<stop offset="1" stop-color="#c9150f"/>
</linearGradient>
<linearGradient id="paint43_linear_14_28" x1="102.451" y1="293.088" x2="105.198" y2="251.154" gradientUnits="userSpaceOnUse">
<stop/>
<stop offset="1" stop-color="#00E3FF"/>
</linearGradient>
<linearGradient id="paint44_linear_14_28" x1="244.518" y1="226.116" x2="261.634" y2="226.116" gradientUnits="userSpaceOnUse">
<stop/>
<stop offset="1" stop-color="#D4E2FF"/>
</linearGradient>
<linearGradient id="paint45_linear_14_28" x1="80.3337" y1="223.592" x2="99.1961" y2="223.592" gradientUnits="userSpaceOnUse">
<stop stop-color="#D4E2FF"/>
<stop offset="1"/>
</linearGradient>
<linearGradient id="paint46_linear_14_28" x1="64.9816" y1="270.255" x2="65.309" y2="249.488" gradientUnits="userSpaceOnUse">
<stop stop-color="#CBC1F7"/>
<stop offset="1" stop-color="#E8DCF7"/>
</linearGradient>
<linearGradient id="paint47_linear_14_28" x1="81.5103" y1="439.848" x2="114.756" y2="332.644" gradientUnits="userSpaceOnUse">
<stop stop-color="#CBC1F7"/>
<stop offset="1" stop-color="#E8DCF7"/>
</linearGradient>
<linearGradient id="paint48_linear_14_28" x1="87.7748" y1="438.848" x2="104.546" y2="347.036" gradientUnits="userSpaceOnUse">
<stop stop-color="#9D68C2"/>
<stop offset="1" stop-color="#CCEDFF"/>
</linearGradient>
<linearGradient id="paint49_linear_14_28" x1="72.3922" y1="437.712" x2="71.5623" y2="413.974" gradientUnits="userSpaceOnUse">
<stop stop-color="#BE9DEA"/>
<stop offset="1" stop-color="#9E8CEF"/>
</linearGradient>
<linearGradient id="paint50_linear_14_28" x1="84.1006" y1="421.846" x2="41.0083" y2="464.587" gradientUnits="userSpaceOnUse">
<stop stop-color="#CBC1F7"/>
<stop offset="1" stop-color="#E8DCF7"/>
</linearGradient>
<linearGradient id="paint51_linear_14_28" x1="70.4186" y1="429.176" x2="34.9517" y2="456.446" gradientUnits="userSpaceOnUse">
<stop stop-color="#BE9DEA"/>
<stop offset="1" stop-color="#9E8CEF"/>
</linearGradient>
<linearGradient id="paint52_linear_14_28" x1="62.8771" y1="432.753" x2="42.3324" y2="448.55" gradientUnits="userSpaceOnUse">
<stop stop-color="#8DA4E5"/>
<stop offset="1" stop-color="#755CBB"/>
</linearGradient>
<linearGradient id="paint53_linear_14_28" x1="61.4026" y1="421.719" x2="34.6626" y2="448.241" gradientUnits="userSpaceOnUse">
<stop stop-color="#CBC1F7"/>
<stop offset="1" stop-color="#E8DCF7"/>
</linearGradient>
<linearGradient id="paint54_linear_14_28" x1="78.8147" y1="433.138" x2="59.1545" y2="448.254" gradientUnits="userSpaceOnUse">
<stop stop-color="#BE9DEA"/>
<stop offset="1" stop-color="#9E8CEF"/>
</linearGradient>
<linearGradient id="paint55_linear_14_28" x1="125.956" y1="360.806" x2="136.266" y2="361.508" gradientUnits="userSpaceOnUse">
<stop stop-color="#8879EA"/>
<stop offset="1" stop-color="#9E8CEF"/>
</linearGradient>
<linearGradient id="paint56_linear_14_28" x1="262.517" y1="437.959" x2="229.272" y2="330.755" gradientUnits="userSpaceOnUse">
<stop stop-color="#CBC1F7"/>
<stop offset="1" stop-color="#E8DCF7"/>
</linearGradient>
<linearGradient id="paint57_linear_14_28" x1="256.253" y1="436.96" x2="239.482" y2="345.149" gradientUnits="userSpaceOnUse">
<stop stop-color="#9D68C2"/>
<stop offset="1" stop-color="#CCEDFF"/>
</linearGradient>
<linearGradient id="paint58_linear_14_28" x1="271.636" y1="435.824" x2="272.466" y2="412.086" gradientUnits="userSpaceOnUse">
<stop stop-color="#BE9DEA"/>
<stop offset="1" stop-color="#9E8CEF"/>
</linearGradient>
<linearGradient id="paint59_linear_14_28" x1="259.927" y1="419.958" x2="303.019" y2="462.699" gradientUnits="userSpaceOnUse">
<stop stop-color="#CBC1F7"/>
<stop offset="1" stop-color="#E8DCF7"/>
</linearGradient>
<linearGradient id="paint60_linear_14_28" x1="269.709" y1="425.446" x2="308.517" y2="455.284" gradientUnits="userSpaceOnUse">
<stop stop-color="#BE9DEA"/>
<stop offset="1" stop-color="#9E8CEF"/>
</linearGradient>
<linearGradient id="paint61_linear_14_28" x1="272.505" y1="421.809" x2="302.859" y2="445.148" gradientUnits="userSpaceOnUse">
<stop stop-color="#8DA4E5"/>
<stop offset="1" stop-color="#755CBB"/>
</linearGradient>
<linearGradient id="paint62_linear_14_28" x1="276.916" y1="422.941" x2="311.091" y2="423.198" gradientUnits="userSpaceOnUse">
<stop stop-color="#CBC1F7"/>
<stop offset="1" stop-color="#E8DCF7"/>
</linearGradient>
<linearGradient id="paint63_linear_14_28" x1="265.213" y1="431.249" x2="284.874" y2="446.366" gradientUnits="userSpaceOnUse">
<stop stop-color="#BE9DEA"/>
<stop offset="1" stop-color="#9E8CEF"/>
</linearGradient>
<linearGradient id="paint64_linear_14_28" x1="218.072" y1="358.918" x2="207.762" y2="359.62" gradientUnits="userSpaceOnUse">
<stop stop-color="#8879EA"/>
<stop offset="1" stop-color="#9E8CEF"/>
</linearGradient>
<linearGradient id="paint65_linear_14_28" x1="165.715" y1="477.128" x2="182.617" y2="336.273" gradientUnits="userSpaceOnUse">
<stop stop-color="#CBC1F7"/>
<stop offset="1" stop-color="#E8DCF7"/>
</linearGradient>
<linearGradient id="paint66_linear_14_28" x1="173.231" y1="477.368" x2="173.231" y2="364.198" gradientUnits="userSpaceOnUse">
<stop stop-color="#9D68C2"/>
<stop offset="1" stop-color="#CCEDFF"/>
</linearGradient>
<linearGradient id="paint67_linear_14_28" x1="172.097" y1="475.067" x2="172.097" y2="385.934" gradientUnits="userSpaceOnUse">
<stop stop-color="#BE9DEA"/>
<stop offset="1" stop-color="#9E8CEF"/>
</linearGradient>
<radialGradient id="paint68_radial_14_28" cx="0" cy="0" r="1" gradientUnits="userSpaceOnUse" gradientTransform="translate(175.285 466.36) scale(74.5058 71.1822)">
<stop stop-color="rgb(255, 156, 84)"/>
<stop offset="1" stop-color="#c9150f"/>
</radialGradient>
<linearGradient id="paint69_linear_14_28" x1="171.187" y1="362.999" x2="171.187" y2="335.411" gradientUnits="userSpaceOnUse">
<stop stop-color="#8DA4E5"/>
<stop offset="1" stop-color="#755CBB"/>
</linearGradient>
<linearGradient id="paint70_linear_14_28" x1="134.341" y1="410.319" x2="215.469" y2="410.319" gradientUnits="userSpaceOnUse">
<stop/>
<stop offset="1" stop-color="#FF955C"/>
</linearGradient>
<linearGradient id="paint71_linear_14_28" x1="174.905" y1="473.298" x2="174.905" y2="457.859" gradientUnits="userSpaceOnUse">
<stop stop-color="#FF4B90"/>
<stop offset="1"/>
</linearGradient>
</defs>
</svg>
