<svg width="391" height="259" viewBox="0 0 391 259" fill="none" xmlns="http://www.w3.org/2000/svg">
<g clip-path="url(#clip0_35_243)">
<g clip-path="url(#clip1_35_243)">
<path d="M30.6477 19.7273H29.7812V25.4517H29.7102L25.733 19.7273H24.8807V27H25.7614V21.2898H25.8324L29.7955 27H30.6477V19.7273ZM33.9015 27.1278C34.8532 27.1278 35.3503 26.6165 35.5208 26.2614H35.5634V27H36.4015V23.4062C36.4015 21.6733 35.0804 21.4744 34.3844 21.4744C33.5605 21.4744 32.623 21.7585 32.1969 22.7528L32.9924 23.0369C33.177 22.6392 33.6138 22.2131 34.4128 22.2131C35.1834 22.2131 35.5634 22.6214 35.5634 23.321V23.3494C35.5634 23.7543 35.1515 23.7188 34.1571 23.8466C33.1451 23.978 32.0407 24.2017 32.0407 25.4517C32.0407 26.517 32.8645 27.1278 33.9015 27.1278ZM34.0293 26.375C33.3617 26.375 32.8787 26.0767 32.8787 25.4943C32.8787 24.8551 33.4611 24.6562 34.1145 24.571C34.4696 24.5284 35.4213 24.429 35.5634 24.2585V25.0256C35.5634 25.7074 35.0236 26.375 34.0293 26.375ZM37.9311 27H38.7692V23.5909C38.7692 22.7919 39.3516 22.2273 40.005 22.2273C40.6406 22.2273 41.0845 22.6428 41.0845 23.2642V27H41.9368V23.4489C41.9368 22.7457 42.3771 22.2273 43.1442 22.2273C43.7408 22.2273 44.2521 22.5433 44.2521 23.3494V27H45.0902V23.3494C45.0902 22.0675 44.4013 21.4744 43.4283 21.4744C42.647 21.4744 42.0753 21.8331 41.7947 22.3977H41.7379C41.468 21.8153 40.9922 21.4744 40.2749 21.4744C39.5646 21.4744 39.0391 21.8153 38.8118 22.3977H38.7408V21.5455H37.9311V27ZM48.9094 27.1136C50.0174 27.1136 50.8271 26.5597 51.0827 25.7358L50.2731 25.5085C50.06 26.0767 49.5664 26.3608 48.9094 26.3608C47.9258 26.3608 47.2475 25.7251 47.2085 24.5568H51.168V24.2017C51.168 22.1705 49.9606 21.4744 48.8242 21.4744C47.3469 21.4744 46.3668 22.6392 46.3668 24.3153C46.3668 25.9915 47.3327 27.1136 48.9094 27.1136ZM47.2085 23.8324C47.2653 22.9837 47.8654 22.2273 48.8242 22.2273C49.7333 22.2273 50.3157 22.9091 50.3157 23.8324H47.2085Z" fill="#BFB7B7"/>
<path d="M186.906 27H191.167V26.2188H187.786V19.7273H186.906V27ZM194.022 27.1278C194.974 27.1278 195.471 26.6165 195.642 26.2614H195.684V27H196.522V23.4062C196.522 21.6733 195.201 21.4744 194.505 21.4744C193.681 21.4744 192.744 21.7585 192.318 22.7528L193.113 23.0369C193.298 22.6392 193.735 22.2131 194.534 22.2131C195.304 22.2131 195.684 22.6214 195.684 23.321V23.3494C195.684 23.7543 195.272 23.7188 194.278 23.8466C193.266 23.978 192.161 24.2017 192.161 25.4517C192.161 26.517 192.985 27.1278 194.022 27.1278ZM194.15 26.375C193.482 26.375 192.999 26.0767 192.999 25.4943C192.999 24.8551 193.582 24.6562 194.235 24.571C194.59 24.5284 195.542 24.429 195.684 24.2585V25.0256C195.684 25.7074 195.144 26.375 194.15 26.375ZM201.915 22.767C201.653 21.9929 201.063 21.4744 199.984 21.4744C198.833 21.4744 197.981 22.1278 197.981 23.0511C197.981 23.804 198.428 24.3082 199.43 24.5426L200.339 24.7557C200.889 24.8835 201.148 25.1463 201.148 25.5227C201.148 25.9915 200.651 26.375 199.87 26.375C199.185 26.375 198.755 26.0803 198.606 25.4943L197.81 25.6932C198.006 26.62 198.769 27.1136 199.884 27.1136C201.152 27.1136 202.015 26.4212 202.015 25.4801C202.015 24.7202 201.539 24.2408 200.566 24.0028L199.756 23.804C199.11 23.6442 198.819 23.4276 198.819 23.0085C198.819 22.5398 199.316 22.1989 199.984 22.1989C200.715 22.1989 201.017 22.6037 201.163 22.9801L201.915 22.767ZM205.649 21.5455H204.484V20.2386H203.646V21.5455H202.822V22.2557H203.646V25.6648C203.646 26.6165 204.413 27.071 205.123 27.071C205.436 27.071 205.634 27.0142 205.748 26.9716L205.578 26.2188C205.507 26.233 205.393 26.2614 205.208 26.2614C204.839 26.2614 204.484 26.1477 204.484 25.4375V22.2557H205.649V21.5455ZM209.835 27H210.716V24.3438H212.307C214.001 24.3438 214.764 23.3139 214.764 22.0284C214.764 20.7429 214.001 19.7273 212.293 19.7273H209.835V27ZM210.716 23.5625V20.5085H212.264C213.447 20.5085 213.898 21.1548 213.898 22.0284C213.898 22.902 213.447 23.5625 212.279 23.5625H210.716ZM216.069 27H216.907V23.5483C216.907 22.8097 217.49 22.2699 218.285 22.2699C218.509 22.2699 218.74 22.3125 218.797 22.3267V21.4744C218.701 21.4673 218.481 21.4602 218.356 21.4602C217.703 21.4602 217.135 21.8295 216.936 22.3693H216.879V21.5455H216.069V27ZM219.79 27H220.628V21.5455H219.79V27ZM220.216 20.6364C220.543 20.6364 220.813 20.3807 220.813 20.0682C220.813 19.7557 220.543 19.5 220.216 19.5C219.89 19.5 219.62 19.7557 219.62 20.0682C219.62 20.3807 219.89 20.6364 220.216 20.6364ZM224.379 27.1136C225.586 27.1136 226.382 26.375 226.524 25.4091H225.686C225.53 26.0057 225.032 26.3608 224.379 26.3608C223.385 26.3608 222.746 25.5369 222.746 24.2727C222.746 23.0369 223.399 22.2273 224.379 22.2273C225.118 22.2273 225.558 22.6818 225.686 23.179H226.524C226.382 22.1562 225.515 21.4744 224.365 21.4744C222.888 21.4744 221.907 22.6392 221.907 24.3011C221.907 25.9347 222.845 27.1136 224.379 27.1136ZM230.036 27.1136C231.144 27.1136 231.954 26.5597 232.209 25.7358L231.4 25.5085C231.187 26.0767 230.693 26.3608 230.036 26.3608C229.052 26.3608 228.374 25.7251 228.335 24.5568H232.295V24.2017C232.295 22.1705 231.087 21.4744 229.951 21.4744C228.474 21.4744 227.493 22.6392 227.493 24.3153C227.493 25.9915 228.459 27.1136 230.036 27.1136ZM228.335 23.8324C228.392 22.9837 228.992 22.2273 229.951 22.2273C230.86 22.2273 231.442 22.9091 231.442 23.8324H228.335Z" fill="#BFB7B7"/>
<path d="M286.803 27H291.391V26.2188H288.01V26.1619L289.644 24.4148C290.894 23.076 291.263 22.451 291.263 21.6449C291.263 20.5227 290.354 19.6278 289.076 19.6278C287.801 19.6278 286.831 20.4943 286.831 21.7727H287.669C287.669 20.9453 288.206 20.3949 289.047 20.3949C289.835 20.3949 290.439 20.8778 290.439 21.6449C290.439 22.3161 290.045 22.8132 289.203 23.733L286.803 26.3608V27ZM292.531 25.5085H295.954V27H296.792V25.5085H297.786V24.7273H296.792V19.7273H295.727L292.531 24.7841V25.5085ZM295.954 24.7273H293.483V24.6705L295.897 20.8494H295.954V24.7273ZM299.97 23.7188C299.97 22.767 300.577 22.2273 301.404 22.2273C302.193 22.2273 302.668 22.7244 302.668 23.5909V27H303.506V23.5341C303.506 22.1314 302.761 21.4744 301.646 21.4744C300.786 21.4744 300.296 21.8331 300.041 22.3977H299.97V19.7273H299.131V27H299.97V23.7188ZM313.818 22C313.548 20.5085 312.355 19.6278 310.892 19.6278C309.031 19.6278 307.682 21.0625 307.682 23.3636C307.682 25.6648 309.031 27.0994 310.892 27.0994C312.355 27.0994 313.548 26.2188 313.818 24.7273H312.937C312.724 25.7358 311.858 26.2756 310.892 26.2756C309.571 26.2756 308.534 25.2528 308.534 23.3636C308.534 21.4744 309.571 20.4517 310.892 20.4517C311.858 20.4517 312.724 20.9915 312.937 22H313.818ZM315.966 23.7188C315.966 22.767 316.573 22.2273 317.4 22.2273C318.189 22.2273 318.665 22.7244 318.665 23.5909V27H319.503V23.5341C319.503 22.1314 318.757 21.4744 317.642 21.4744C316.782 21.4744 316.292 21.8331 316.037 22.3977H315.966V19.7273H315.128V27H315.966V23.7188ZM322.641 27.1278C323.593 27.1278 324.09 26.6165 324.26 26.2614H324.303V27H325.141V23.4062C325.141 21.6733 323.82 21.4744 323.124 21.4744C322.3 21.4744 321.362 21.7585 320.936 22.7528L321.732 23.0369C321.916 22.6392 322.353 22.2131 323.152 22.2131C323.923 22.2131 324.303 22.6214 324.303 23.321V23.3494C324.303 23.7543 323.891 23.7188 322.897 23.8466C321.885 23.978 320.78 24.2017 320.78 25.4517C320.78 26.517 321.604 27.1278 322.641 27.1278ZM322.769 26.375C322.101 26.375 321.618 26.0767 321.618 25.4943C321.618 24.8551 322.201 24.6562 322.854 24.571C323.209 24.5284 324.161 24.429 324.303 24.2585V25.0256C324.303 25.7074 323.763 26.375 322.769 26.375ZM327.509 23.7188C327.509 22.767 328.098 22.2273 328.901 22.2273C329.678 22.2273 330.151 22.7351 330.151 23.5909V27H330.989V23.5341C330.989 22.142 330.247 21.4744 329.142 21.4744C328.318 21.4744 327.807 21.8438 327.551 22.3977H327.48V21.5455H326.671V27H327.509V23.7188ZM334.722 29.1591C336.029 29.1591 337.08 28.5625 337.08 27.1562V21.5455H336.27V22.4119H336.185C336 22.1278 335.659 21.4744 334.594 21.4744C333.216 21.4744 332.264 22.5682 332.264 24.2443C332.264 25.9489 333.259 26.9148 334.58 26.9148C335.645 26.9148 335.986 26.2898 336.171 25.9915H336.242V27.0994C336.242 28.0085 335.603 28.4205 334.722 28.4205C333.731 28.4205 333.383 27.8984 333.159 27.5966L332.492 28.0653C332.833 28.6371 333.504 29.1591 334.722 29.1591ZM334.693 26.1619C333.642 26.1619 333.103 25.3665 333.103 24.2301C333.103 23.1222 333.628 22.2273 334.693 22.2273C335.716 22.2273 336.256 23.0511 336.256 24.2301C336.256 25.4375 335.702 26.1619 334.693 26.1619ZM340.901 27.1136C342.009 27.1136 342.818 26.5597 343.074 25.7358L342.264 25.5085C342.051 26.0767 341.558 26.3608 340.901 26.3608C339.917 26.3608 339.239 25.7251 339.2 24.5568H343.159V24.2017C343.159 22.1705 341.952 21.4744 340.816 21.4744C339.338 21.4744 338.358 22.6392 338.358 24.3153C338.358 25.9915 339.324 27.1136 340.901 27.1136ZM339.2 23.8324C339.257 22.9837 339.857 22.2273 340.816 22.2273C341.725 22.2273 342.307 22.9091 342.307 23.8324H339.2Z" fill="#BFB7B7"/>
</g>
</g>
<g clip-path="url(#clip2_35_243)">
<g clip-path="url(#clip3_35_243)">
<path d="M25.0326 59H28.1137C30.129 59 30.9617 58.0174 30.9617 56.7349C30.9617 55.3859 30.029 54.6531 29.2463 54.6031V54.5199C29.9791 54.32 30.6286 53.837 30.6286 52.7378C30.6286 51.4887 29.7959 50.4727 28.0138 50.4727H25.0326V59ZM26.0652 58.084V55.1194H28.1637C29.2796 55.1194 29.9791 55.8689 29.9791 56.7349C29.9791 57.4844 29.4628 58.084 28.1137 58.084H26.0652ZM26.0652 54.2201V51.3887H28.0138C29.1463 51.3887 29.646 51.9883 29.646 52.7378C29.646 53.6371 28.9132 54.2201 27.9805 54.2201H26.0652ZM32.5606 51.3887H35.242V59H36.2746V51.3887H38.956V50.4727H32.5606V51.3887ZM47.425 53.1375C47.1086 51.3887 45.7096 50.3561 43.9941 50.3561C41.8124 50.3561 40.2302 52.0383 40.2302 54.7364C40.2302 57.4344 41.8124 59.1166 43.9941 59.1166C45.7096 59.1166 47.1086 58.084 47.425 56.3352H46.3924C46.1426 57.5177 45.1267 58.1506 43.9941 58.1506C42.4452 58.1506 41.2294 56.9515 41.2294 54.7364C41.2294 52.5213 42.4452 51.3221 43.9941 51.3221C45.1267 51.3221 46.1426 51.955 46.3924 53.1375H47.425Z" fill="white"/>
<path d="M56.7945 59H59.8756C61.8908 59 62.7236 58.0174 62.7236 56.7349C62.7236 55.3859 61.7909 54.6531 61.0081 54.6031V54.5199C61.7409 54.32 62.3905 53.837 62.3905 52.7378C62.3905 51.4887 61.5577 50.4727 59.7757 50.4727H56.7945V59ZM57.8271 58.084V55.1194H59.9256C61.0414 55.1194 61.7409 55.8689 61.7409 56.7349C61.7409 57.4844 61.2246 58.084 59.8756 58.084H57.8271ZM57.8271 54.2201V51.3887H59.7757C60.9082 51.3887 61.4078 51.9883 61.4078 52.7378C61.4078 53.6371 60.675 54.2201 59.7424 54.2201H57.8271ZM64.6556 59H65.6382V52.6045H64.6556V59ZM65.1552 51.5386C65.5383 51.5386 65.8547 51.2388 65.8547 50.8724C65.8547 50.506 65.5383 50.2062 65.1552 50.2062C64.7721 50.2062 64.4557 50.506 64.4557 50.8724C64.4557 51.2388 64.7721 51.5386 65.1552 51.5386ZM70.5878 52.6045H69.2221V51.0723H68.2395V52.6045H67.2735V53.4373H68.2395V57.4344C68.2395 58.5503 69.1388 59.0833 69.9716 59.0833C70.338 59.0833 70.5712 59.0167 70.7044 58.9667L70.5045 58.084C70.4213 58.1006 70.288 58.1339 70.0715 58.1339C69.6385 58.1339 69.2221 58.0007 69.2221 57.168V53.4373H70.5878V52.6045ZM74.9639 59.1332C76.3795 59.1332 77.3122 58.2672 77.4788 57.1347H76.4961C76.3129 57.8342 75.73 58.2505 74.9639 58.2505C73.798 58.2505 73.0486 57.2846 73.0486 55.8023C73.0486 54.3533 73.8147 53.404 74.9639 53.404C75.8299 53.404 76.3462 53.9369 76.4961 54.5199H77.4788C77.3122 53.3207 76.2963 52.5213 74.9472 52.5213C73.2151 52.5213 72.0659 53.887 72.0659 55.8356C72.0659 57.7509 73.1652 59.1332 74.9639 59.1332ZM81.8819 59.1332C83.614 59.1332 84.7798 57.8175 84.7798 55.8356C84.7798 53.837 83.614 52.5213 81.8819 52.5213C80.1498 52.5213 78.9839 53.837 78.9839 55.8356C78.9839 57.8175 80.1498 59.1332 81.8819 59.1332ZM81.8819 58.2505C80.5662 58.2505 79.9666 57.118 79.9666 55.8356C79.9666 54.5532 80.5662 53.404 81.8819 53.404C83.1976 53.404 83.7972 54.5532 83.7972 55.8356C83.7972 57.118 83.1976 58.2505 81.8819 58.2505ZM86.6483 59H87.6309V52.6045H86.6483V59ZM87.1479 51.5386C87.531 51.5386 87.8475 51.2388 87.8475 50.8724C87.8475 50.506 87.531 50.2062 87.1479 50.2062C86.7649 50.2062 86.4484 50.506 86.4484 50.8724C86.4484 51.2388 86.7649 51.5386 87.1479 51.5386ZM90.7818 55.1527C90.7818 54.0369 91.473 53.404 92.414 53.404C93.3259 53.404 93.8796 53.9994 93.8796 55.0028V59H94.8623V54.9362C94.8623 53.304 93.9921 52.5213 92.6971 52.5213C91.7312 52.5213 91.1316 52.9543 90.8318 53.6038H90.7485V52.6045H89.7992V59H90.7818V55.1527Z" fill="#9A9A9A"/>
<path d="M189.423 60.0659H190.105V59.1374C191.854 59.0167 192.837 57.9841 192.837 56.685C192.837 55.0861 191.321 54.5698 190.439 54.3366L190.105 54.245V51.2847C190.988 51.3721 191.629 51.8468 191.721 52.6045H192.72C192.679 51.3887 191.613 50.4644 190.105 50.3645V49.4068H189.423V50.377C187.994 50.5227 186.924 51.4304 186.924 52.7378C186.924 53.887 187.757 54.5698 189.09 54.9529L189.423 55.0486V58.2006C188.548 58.109 187.832 57.6593 187.757 56.8016H186.691C186.787 58.1131 187.786 59.0291 189.423 59.1374V60.0659ZM190.105 58.2006V55.2443L190.139 55.2527C191.038 55.5025 191.838 55.8189 191.838 56.6683C191.838 57.5052 191.113 58.0881 190.105 58.2006ZM189.423 54.0618C188.79 53.8828 187.924 53.5331 187.924 52.6878C187.924 51.9675 188.507 51.4179 189.423 51.2971V54.0618ZM197.485 59.1166C199.188 59.1166 200.374 58.1215 200.383 56.7349C200.374 55.6565 199.654 54.7405 198.734 54.5698V54.5199C199.533 54.3117 200.058 53.5289 200.066 52.6212C200.058 51.3221 198.967 50.3561 197.485 50.3561C195.986 50.3561 194.895 51.3221 194.903 52.6212C194.895 53.5289 195.419 54.3117 196.235 54.5199V54.5698C195.299 54.7405 194.578 55.6565 194.587 56.7349C194.578 58.1215 195.765 59.1166 197.485 59.1166ZM197.485 58.2006C196.315 58.2006 195.594 57.601 195.603 56.685C195.594 55.7232 196.39 55.0362 197.485 55.0362C198.563 55.0362 199.358 55.7232 199.367 56.685C199.358 57.601 198.638 58.2006 197.485 58.2006ZM197.485 54.1534C196.552 54.1534 195.894 53.5705 195.902 52.6878C195.894 51.8218 196.527 51.2555 197.485 51.2555C198.426 51.2555 199.058 51.8218 199.067 52.6878C199.058 53.5705 198.401 54.1534 197.485 54.1534ZM205.012 59.1166C206.635 59.1166 207.826 57.9174 207.826 56.2853C207.826 54.6323 206.677 53.4206 205.111 53.4206C204.537 53.4206 203.979 53.6247 203.629 53.9036H203.579L203.879 51.3887H207.443V50.4727H203.013L202.497 54.6697L203.463 54.7863C203.817 54.5323 204.42 54.3491 204.945 54.3533C206.032 54.3616 206.827 55.186 206.827 56.3019C206.827 57.397 206.061 58.2006 205.012 58.2006C204.137 58.2006 203.442 57.6385 203.363 56.8682H202.363C202.426 58.1673 203.546 59.1166 205.012 59.1166ZM212.563 50.3561C210.831 50.3353 209.716 51.6386 209.716 53.2041C209.716 54.8529 210.931 56.0354 212.397 56.0354C213.28 56.0354 214.029 55.6024 214.495 54.9029H214.562C214.562 57.0014 213.746 58.2006 212.43 58.2006C211.531 58.2006 210.981 57.6343 210.798 56.8515H209.782C209.982 58.2006 210.998 59.1166 212.43 59.1166C214.346 59.1166 215.528 57.4178 215.528 54.3866C215.528 51.2555 213.962 50.3728 212.563 50.3561ZM212.563 51.2722C213.629 51.2722 214.412 52.1882 214.412 53.1875C214.412 54.2034 213.579 55.1194 212.53 55.1194C211.481 55.1194 210.715 54.27 210.715 53.2041C210.715 52.1382 211.514 51.2722 212.563 51.2722ZM217.334 57.2512H221.348V59H222.331V57.2512H223.496V56.3352H222.331V50.4727H221.081L217.334 56.4018V57.2512ZM221.348 56.3352H218.45V56.2686L221.281 51.7885H221.348V56.3352Z" fill="#9292C1"/>
<path d="M286.933 59H292.312V58.084H288.348V58.0174L290.264 55.9688C291.729 54.3991 292.162 53.6663 292.162 52.7211C292.162 51.4054 291.096 50.3561 289.597 50.3561C288.103 50.3561 286.966 51.3721 286.966 52.871H287.949C287.949 51.9009 288.577 51.2555 289.564 51.2555C290.489 51.2555 291.196 51.8218 291.196 52.7211C291.196 53.5081 290.734 54.091 289.747 55.1694L286.933 58.2505V59ZM295.883 57.8342H294.817L294.767 58.3005C294.646 59.4289 294.409 60.5531 294.3 61.0819H295.05C295.25 60.5156 295.674 59.2332 295.816 58.2838L295.883 57.8342ZM300.548 59.1166C302.172 59.1166 303.363 57.9174 303.363 56.2853C303.363 54.6323 302.214 53.4206 300.648 53.4206C300.073 53.4206 299.515 53.6247 299.166 53.9036H299.116L299.416 51.3887H302.98V50.4727H298.549L298.033 54.6697L298.999 54.7863C299.353 54.5323 299.957 54.3491 300.481 54.3533C301.568 54.3616 302.363 55.186 302.363 56.3019C302.363 57.397 301.597 58.2006 300.548 58.2006C299.674 58.2006 298.978 57.6385 298.899 56.8682H297.9C297.962 58.1673 299.082 59.1166 300.548 59.1166ZM305.185 57.2512H309.199V59H310.182V57.2512H311.348V56.3352H310.182V50.4727H308.933L305.185 56.4018V57.2512ZM309.199 56.3352H306.301V56.2686L309.133 51.7885H309.199V56.3352ZM316.058 59.1166C317.94 59.1166 319.022 57.5219 319.022 54.7364C319.022 51.9717 317.923 50.3561 316.058 50.3561C314.193 50.3561 313.093 51.9717 313.093 54.7364C313.093 57.5219 314.176 59.1166 316.058 59.1166ZM316.058 58.2006C314.817 58.2006 314.093 56.9556 314.093 54.7364C314.093 52.5213 314.825 51.2555 316.058 51.2555C317.29 51.2555 318.023 52.5213 318.023 54.7364C318.023 56.9556 317.299 58.2006 316.058 58.2006Z" fill="white"/>
</g>
<g clip-path="url(#clip4_35_243)">
<g clip-path="url(#clip5_35_243)">
<path d="M339.025 52L344.168 58.6667H333.882L339.025 52Z" fill="#00B929"/>
</g>
</g>
</g>
<g clip-path="url(#clip6_35_243)">
<g clip-path="url(#clip7_35_243)">
<path d="M25.0326 88H28.1137C30.129 88 30.9617 87.0174 30.9617 85.7349C30.9617 84.3859 30.029 83.6531 29.2463 83.6031V83.5199C29.9791 83.32 30.6286 82.837 30.6286 81.7378C30.6286 80.4887 29.7959 79.4727 28.0138 79.4727H25.0326V88ZM26.0652 87.084V84.1194H28.1637C29.2796 84.1194 29.9791 84.8689 29.9791 85.7349C29.9791 86.4844 29.4628 87.084 28.1137 87.084H26.0652ZM26.0652 83.2201V80.3887H28.0138C29.1463 80.3887 29.646 80.9883 29.646 81.7378C29.646 82.6371 28.9132 83.2201 27.9805 83.2201H26.0652ZM39.7888 79.4727H38.7728V86.1846H38.6896L34.0262 79.4727H33.0269V88H34.0595V81.3048H34.1428L38.7895 88H39.7888V79.4727ZM42.2235 88H45.3047C47.3199 88 48.1527 87.0174 48.1527 85.7349C48.1527 84.3859 47.22 83.6531 46.4372 83.6031V83.5199C47.17 83.32 47.8196 82.837 47.8196 81.7378C47.8196 80.4887 46.9868 79.4727 45.2047 79.4727H42.2235V88ZM43.2561 87.084V84.1194H45.3546C46.4705 84.1194 47.17 84.8689 47.17 85.7349C47.17 86.4844 46.6537 87.084 45.3047 87.084H43.2561ZM43.2561 83.2201V80.3887H45.2047C46.3373 80.3887 46.8369 80.9883 46.8369 81.7378C46.8369 82.6371 46.1041 83.2201 45.1714 83.2201H43.2561Z" fill="white"/>
<path d="M57.5502 88H60.6313C62.6466 88 63.4793 87.0174 63.4793 85.7349C63.4793 84.3859 62.5466 83.6531 61.7638 83.6031V83.5199C62.4967 83.32 63.1462 82.837 63.1462 81.7378C63.1462 80.4887 62.3135 79.4727 60.5314 79.4727H57.5502V88ZM58.5828 87.084V84.1194H60.6813C61.7972 84.1194 62.4967 84.8689 62.4967 85.7349C62.4967 86.4844 61.9804 87.084 60.6313 87.084H58.5828ZM58.5828 83.2201V80.3887H60.5314C61.6639 80.3887 62.1636 80.9883 62.1636 81.7378C62.1636 82.6371 61.4307 83.2201 60.4981 83.2201H58.5828ZM72.3064 79.4727H71.2904V86.1846H71.2071L66.5438 79.4727H65.5445V88H66.5771V81.3048H66.6604L71.3071 88H72.3064V79.4727ZM74.7411 88H77.8222C79.8375 88 80.6702 87.0174 80.6702 85.7349C80.6702 84.3859 79.7376 83.6531 78.9548 83.6031V83.5199C79.6876 83.32 80.3371 82.837 80.3371 81.7378C80.3371 80.4887 79.5044 79.4727 77.7223 79.4727H74.7411V88ZM75.7737 87.084V84.1194H77.8722C78.9881 84.1194 79.6876 84.8689 79.6876 85.7349C79.6876 86.4844 79.1713 87.084 77.8222 87.084H75.7737ZM75.7737 83.2201V80.3887H77.7223C78.8548 80.3887 79.3545 80.9883 79.3545 81.7378C79.3545 82.6371 78.6217 83.2201 77.689 83.2201H75.7737Z" fill="#9A9A9A"/>
<path d="M189.423 89.0659H190.105V88.1374C191.854 88.0167 192.837 86.9841 192.837 85.685C192.837 84.0861 191.321 83.5698 190.439 83.3366L190.105 83.245V80.2847C190.988 80.3721 191.629 80.8468 191.721 81.6045H192.72C192.679 80.3887 191.613 79.4644 190.105 79.3645V78.4068H189.423V79.377C187.994 79.5227 186.924 80.4304 186.924 81.7378C186.924 82.887 187.757 83.5698 189.09 83.9529L189.423 84.0486V87.2006C188.548 87.109 187.832 86.6593 187.757 85.8016H186.691C186.787 87.1131 187.786 88.0291 189.423 88.1374V89.0659ZM190.105 87.2006V84.2443L190.139 84.2527C191.038 84.5025 191.838 84.8189 191.838 85.6683C191.838 86.5052 191.113 87.0881 190.105 87.2006ZM189.423 83.0618C188.79 82.8828 187.924 82.5331 187.924 81.6878C187.924 80.9675 188.507 80.4179 189.423 80.2971V83.0618ZM197.418 88.1166C199.042 88.1166 200.233 86.9174 200.233 85.2853C200.233 83.6323 199.083 82.4206 197.518 82.4206C196.943 82.4206 196.385 82.6247 196.036 82.9036H195.986L196.285 80.3887H199.85V79.4727H195.419L194.903 83.6697L195.869 83.7863C196.223 83.5323 196.827 83.3491 197.351 83.3533C198.438 83.3616 199.233 84.186 199.233 85.3019C199.233 86.397 198.467 87.2006 197.418 87.2006C196.544 87.2006 195.848 86.6385 195.769 85.8682H194.77C194.832 87.1673 195.952 88.1166 197.418 88.1166ZM202.522 88H203.604L207.402 80.4387V79.4727H201.939V80.3887H206.336V80.4554L202.522 88ZM209.322 88H214.702V87.084H210.738V87.0174L212.653 84.9688C214.119 83.3991 214.552 82.6663 214.552 81.7211C214.552 80.4054 213.486 79.3561 211.987 79.3561C210.492 79.3561 209.355 80.3721 209.355 81.871H210.338C210.338 80.9009 210.967 80.2555 211.954 80.2555C212.878 80.2555 213.586 80.8218 213.586 81.7211C213.586 82.5081 213.124 83.091 212.137 84.1694L209.322 87.2505V88ZM219.571 88.1166C221.453 88.1166 222.536 86.5219 222.536 83.7364C222.536 80.9717 221.436 79.3561 219.571 79.3561C217.706 79.3561 216.606 80.9717 216.606 83.7364C216.606 86.5219 217.689 88.1166 219.571 88.1166ZM219.571 87.2006C218.33 87.2006 217.606 85.9556 217.606 83.7364C217.606 81.5213 218.339 80.2555 219.571 80.2555C220.803 80.2555 221.536 81.5213 221.536 83.7364C221.536 85.9556 220.812 87.2006 219.571 87.2006ZM224.524 88H225.606L229.404 80.4387V79.4727H223.941V80.3887H228.338V80.4554L224.524 88Z" fill="#9292C1"/>
<path d="M286.933 88H292.312V87.084H288.348V87.0174L290.264 84.9688C291.729 83.3991 292.162 82.6663 292.162 81.7211C292.162 80.4054 291.096 79.3561 289.597 79.3561C288.103 79.3561 286.966 80.3721 286.966 81.871H287.949C287.949 80.9009 288.577 80.2555 289.564 80.2555C290.489 80.2555 291.196 80.8218 291.196 81.7211C291.196 82.5081 290.734 83.091 289.747 84.1694L286.933 87.2505V88ZM295.883 86.8342H294.817L294.767 87.3005C294.646 88.4289 294.409 89.5531 294.3 90.0819H295.05C295.25 89.5156 295.674 88.2332 295.816 87.2838L295.883 86.8342ZM300.616 88.1166C302.269 88.1166 303.497 87.0798 303.497 85.685C303.497 84.6024 302.856 83.8155 301.782 83.6364V83.5698C302.643 83.3075 303.181 82.5997 303.181 81.6379C303.181 80.4304 302.227 79.3561 300.649 79.3561C299.175 79.3561 297.951 80.2638 297.901 81.6045H298.9C298.938 80.7551 299.745 80.2555 300.632 80.2555C301.573 80.2555 302.181 80.8259 302.181 81.6878C302.181 82.5872 301.478 83.1701 300.466 83.1701H299.783V84.0861H300.466C301.761 84.0861 302.481 84.744 302.481 85.685C302.481 86.5885 301.694 87.2006 300.599 87.2006C299.612 87.2006 298.829 86.6926 298.767 85.8682H297.718C297.78 87.2089 298.963 88.1166 300.616 88.1166ZM308.35 88.1166C310.232 88.1166 311.314 86.5219 311.314 83.7364C311.314 80.9717 310.215 79.3561 308.35 79.3561C306.484 79.3561 305.385 80.9717 305.385 83.7364C305.385 86.5219 306.468 88.1166 308.35 88.1166ZM308.35 87.2006C307.109 87.2006 306.385 85.9556 306.385 83.7364C306.385 81.5213 307.117 80.2555 308.35 80.2555C309.582 80.2555 310.315 81.5213 310.315 83.7364C310.315 85.9556 309.591 87.2006 308.35 87.2006ZM313.065 86.2512H317.079V88H318.062V86.2512H319.227V85.3352H318.062V79.4727H316.813L313.065 85.4018V86.2512ZM317.079 85.3352H314.181V85.2686L317.012 80.7885H317.079V85.3352Z" fill="white"/>
</g>
<g clip-path="url(#clip8_35_243)">
<g clip-path="url(#clip9_35_243)">
<path d="M339.025 87.6667L333.882 81L344.168 81L339.025 87.6667Z" fill="#FF2D2E"/>
</g>
</g>
</g>
<g clip-path="url(#clip10_35_243)">
<path d="M25.0326 117V108.473H30.1789V109.389H26.0652V112.27H29.9125V113.186H26.0652V116.084H30.2456V117H25.0326ZM31.9423 109.389V108.473H38.3377V109.389H35.6563V117H34.6237V109.389H31.9423ZM40.2999 117V108.473H41.3325V112.27H45.8793V108.473H46.9119V117H45.8793V113.186H41.3325V117H40.2999Z" fill="white"/>
<path d="M56.68 117V108.473H61.8263V109.389H57.7126V112.27H61.5598V113.186H57.7126V116.084H61.8929V117H56.68ZM66.7041 110.605V111.437H63.3898V110.605H66.7041ZM64.3558 109.072H65.3384V115.168C65.3384 115.446 65.3787 115.654 65.4591 115.793C65.5424 115.929 65.6479 116.02 65.7756 116.067C65.9061 116.112 66.0435 116.134 66.1878 116.134C66.2961 116.134 66.3849 116.128 66.4543 116.117C66.5237 116.103 66.5792 116.092 66.6208 116.084L66.8207 116.967C66.7541 116.992 66.6611 117.017 66.5417 117.042C66.4224 117.069 66.2711 117.083 66.0879 117.083C65.8103 117.083 65.5383 117.024 65.2718 116.904C65.0081 116.785 64.7888 116.603 64.6139 116.359C64.4418 116.115 64.3558 115.806 64.3558 115.434V109.072ZM69.6707 113.153V117H68.6881V108.473H69.6707V111.604H69.754C69.9039 111.274 70.1288 111.011 70.4285 110.817C70.7311 110.62 71.1336 110.521 71.636 110.521C72.0718 110.521 72.4535 110.609 72.781 110.784C73.1086 110.956 73.3626 111.221 73.543 111.579C73.7262 111.934 73.8178 112.387 73.8178 112.936V117H72.8352V113.003C72.8352 112.495 72.7033 112.102 72.4396 111.825C72.1787 111.544 71.8164 111.404 71.3529 111.404C71.0309 111.404 70.7422 111.472 70.4868 111.608C70.2342 111.744 70.0344 111.942 69.8873 112.203C69.7429 112.464 69.6707 112.781 69.6707 113.153ZM78.6654 117.133C78.0492 117.133 77.5176 116.997 77.0707 116.725C76.6266 116.45 76.2838 116.067 76.0423 115.576C75.8036 115.082 75.6842 114.507 75.6842 113.852C75.6842 113.197 75.8036 112.62 76.0423 112.12C76.2838 111.618 76.6196 111.226 77.0499 110.946C77.4829 110.663 77.9881 110.521 78.5655 110.521C78.8986 110.521 79.2275 110.577 79.5523 110.688C79.877 110.799 80.1727 110.979 80.4391 111.229C80.7056 111.476 80.918 111.804 81.0762 112.212C81.2344 112.62 81.3135 113.122 81.3135 113.719V114.135H76.3837V113.286H80.3142C80.3142 112.925 80.2421 112.603 80.0977 112.32C79.9562 112.037 79.7535 111.813 79.4898 111.65C79.2289 111.486 78.9208 111.404 78.5655 111.404C78.1741 111.404 77.8354 111.501 77.5495 111.695C77.2664 111.887 77.0485 112.137 76.8958 112.445C76.7432 112.753 76.6668 113.083 76.6668 113.436V114.002C76.6668 114.485 76.7501 114.895 76.9167 115.23C77.086 115.564 77.3205 115.818 77.6203 115.992C77.9201 116.164 78.2685 116.251 78.6654 116.251C78.9236 116.251 79.1567 116.214 79.3649 116.142C79.5759 116.067 79.7577 115.956 79.9104 115.809C80.063 115.659 80.181 115.473 80.2643 115.251L81.2136 115.518C81.1137 115.84 80.9457 116.123 80.7098 116.367C80.4738 116.609 80.1824 116.797 79.8354 116.933C79.4884 117.067 79.0984 117.133 78.6654 117.133ZM83.1768 117V110.605H84.1261V111.571H84.1927C84.3093 111.254 84.5203 110.997 84.8256 110.8C85.131 110.603 85.4752 110.505 85.8582 110.505C85.9304 110.505 86.0206 110.506 86.1289 110.509C86.2371 110.512 86.319 110.516 86.3745 110.521V111.521C86.3412 111.512 86.2649 111.5 86.1455 111.483C86.0289 111.464 85.9054 111.454 85.775 111.454C85.4641 111.454 85.1865 111.519 84.9422 111.65C84.7007 111.777 84.5092 111.955 84.3676 112.183C84.2288 112.407 84.1594 112.664 84.1594 112.953V117H83.1768ZM90.3946 117.133C89.7784 117.133 89.2468 116.997 88.7999 116.725C88.3558 116.45 88.013 116.067 87.7715 115.576C87.5327 115.082 87.4134 114.507 87.4134 113.852C87.4134 113.197 87.5327 112.62 87.7715 112.12C88.013 111.618 88.3488 111.226 88.7791 110.946C89.2121 110.663 89.7173 110.521 90.2947 110.521C90.6278 110.521 90.9567 110.577 91.2815 110.688C91.6062 110.799 91.9019 110.979 92.1683 111.229C92.4348 111.476 92.6472 111.804 92.8054 112.212C92.9636 112.62 93.0427 113.122 93.0427 113.719V114.135H88.1129V113.286H92.0434C92.0434 112.925 91.9713 112.603 91.8269 112.32C91.6853 112.037 91.4827 111.813 91.219 111.65C90.9581 111.486 90.65 111.404 90.2947 111.404C89.9033 111.404 89.5646 111.501 89.2787 111.695C88.9956 111.887 88.7777 112.137 88.625 112.445C88.4724 112.753 88.396 113.083 88.396 113.436V114.002C88.396 114.485 88.4793 114.895 88.6458 115.23C88.8152 115.564 89.0497 115.818 89.3495 115.992C89.6493 116.164 89.9977 116.251 90.3946 116.251C90.6527 116.251 90.8859 116.214 91.0941 116.142C91.3051 116.067 91.4869 115.956 91.6395 115.809C91.7922 115.659 91.9102 115.473 91.9935 115.251L92.9428 115.518C92.8429 115.84 92.6749 116.123 92.439 116.367C92.203 116.609 91.9116 116.797 91.5646 116.933C91.2176 117.067 90.8276 117.133 90.3946 117.133ZM98.9365 114.385V110.605H99.9191V117H98.9365V115.917H98.8698C98.7199 116.242 98.4868 116.518 98.1703 116.746C97.8539 116.971 97.4542 117.083 96.9712 117.083C96.5715 117.083 96.2162 116.996 95.9053 116.821C95.5944 116.643 95.3501 116.377 95.1725 116.022C94.9948 115.663 94.906 115.212 94.906 114.668V110.605H95.8886V114.602C95.8886 115.068 96.0191 115.44 96.28 115.718C96.5437 115.995 96.8796 116.134 97.2876 116.134C97.5319 116.134 97.7803 116.071 98.0329 115.947C98.2883 115.822 98.502 115.63 98.6741 115.372C98.849 115.114 98.9365 114.785 98.9365 114.385ZM102.087 117V110.605H103.037V111.604H103.12C103.253 111.262 103.468 110.997 103.765 110.809C104.062 110.617 104.419 110.521 104.835 110.521C105.257 110.521 105.608 110.617 105.889 110.809C106.172 110.997 106.393 111.262 106.551 111.604H106.617C106.781 111.274 107.027 111.011 107.354 110.817C107.682 110.62 108.075 110.521 108.533 110.521C109.105 110.521 109.572 110.7 109.936 111.058C110.3 111.414 110.481 111.967 110.481 112.72V117H109.499V112.72C109.499 112.248 109.37 111.911 109.112 111.708C108.853 111.505 108.549 111.404 108.2 111.404C107.75 111.404 107.402 111.54 107.155 111.812C106.908 112.081 106.784 112.423 106.784 112.836V117H105.785V112.62C105.785 112.256 105.667 111.963 105.431 111.741C105.195 111.516 104.891 111.404 104.519 111.404C104.264 111.404 104.025 111.472 103.803 111.608C103.584 111.744 103.406 111.933 103.27 112.174C103.137 112.413 103.07 112.689 103.07 113.003V117H102.087Z" fill="#9A9A9A"/>
<path d="M189.423 118.066H190.105V117.137C191.854 117.017 192.837 115.984 192.837 114.685C192.837 113.086 191.321 112.57 190.439 112.337L190.105 112.245V109.285C190.988 109.372 191.629 109.847 191.721 110.605H192.72C192.679 109.389 191.613 108.464 190.105 108.364V107.407H189.423V108.377C187.994 108.523 186.924 109.43 186.924 110.738C186.924 111.887 187.757 112.57 189.09 112.953L189.423 113.049V116.201C188.548 116.109 187.832 115.659 187.757 114.802H186.691C186.787 116.113 187.786 117.029 189.423 117.137V118.066ZM190.105 116.201V113.244L190.139 113.253C191.038 113.502 191.838 113.819 191.838 114.668C191.838 115.505 191.113 116.088 190.105 116.201ZM189.423 112.062C188.79 111.883 187.924 111.533 187.924 110.688C187.924 109.967 188.507 109.418 189.423 109.297V112.062ZM195.02 117H196.102L199.9 109.439V108.473H194.437V109.389H198.834V109.455L195.02 117ZM204.818 108.473H203.785L201.654 109.888V110.938L203.735 109.555H203.785V117H204.818V108.473ZM210.637 108.473H209.604L207.472 109.888V110.938L209.554 109.555H209.604V117H210.637V108.473ZM213.458 117H218.837V116.084H214.873V116.017L216.789 113.969C218.254 112.399 218.687 111.666 218.687 110.721C218.687 109.405 217.621 108.356 216.122 108.356C214.628 108.356 213.491 109.372 213.491 110.871H214.474C214.474 109.901 215.102 109.256 216.089 109.256C217.013 109.256 217.721 109.822 217.721 110.721C217.721 111.508 217.259 112.091 216.272 113.169L213.458 116.251V117ZM223.64 108.356C221.908 108.335 220.792 109.639 220.792 111.204C220.792 112.853 222.008 114.035 223.473 114.035C224.356 114.035 225.106 113.602 225.572 112.903H225.639C225.639 115.001 224.823 116.201 223.507 116.201C222.607 116.201 222.058 115.634 221.875 114.852H220.859C221.059 116.201 222.074 117.117 223.507 117.117C225.422 117.117 226.605 115.418 226.605 112.387C226.605 109.256 225.039 108.373 223.64 108.356ZM223.64 109.272C224.706 109.272 225.489 110.188 225.489 111.187C225.489 112.203 224.656 113.119 223.607 113.119C222.557 113.119 221.791 112.27 221.791 111.204C221.791 110.138 222.591 109.272 223.64 109.272Z" fill="#9292C1"/>
<path d="M289.931 108.473H288.898L286.766 109.888V110.938L288.848 109.555H288.898V117H289.931V108.473ZM293.73 115.834H292.664L292.614 116.3C292.493 117.429 292.256 118.553 292.148 119.082H292.897C293.097 118.516 293.522 117.233 293.663 116.284L293.73 115.834ZM298.463 117.117C300.116 117.117 301.344 116.08 301.344 114.685C301.344 113.602 300.703 112.815 299.629 112.636V112.57C300.491 112.308 301.028 111.6 301.028 110.638C301.028 109.43 300.074 108.356 298.496 108.356C297.022 108.356 295.798 109.264 295.748 110.605H296.748C296.785 109.755 297.593 109.256 298.48 109.256C299.421 109.256 300.029 109.826 300.029 110.688C300.029 111.587 299.325 112.17 298.313 112.17H297.63V113.086H298.313C299.608 113.086 300.328 113.744 300.328 114.685C300.328 115.589 299.541 116.201 298.446 116.201C297.46 116.201 296.677 115.693 296.614 114.868H295.565C295.628 116.209 296.81 117.117 298.463 117.117ZM303.416 117H308.795V116.084H304.831V116.017L306.747 113.969C308.212 112.399 308.645 111.666 308.645 110.721C308.645 109.405 307.58 108.356 306.081 108.356C304.586 108.356 303.449 109.372 303.449 110.871H304.432C304.432 109.901 305.06 109.256 306.047 109.256C306.972 109.256 307.679 109.822 307.679 110.721C307.679 111.508 307.217 112.091 306.23 113.169L303.416 116.251V117ZM313.665 117.117C315.547 117.117 316.629 115.522 316.629 112.736C316.629 109.972 315.53 108.356 313.665 108.356C311.799 108.356 310.7 109.972 310.7 112.736C310.7 115.522 311.783 117.117 313.665 117.117ZM313.665 116.201C312.424 116.201 311.7 114.956 311.7 112.736C311.7 110.521 312.432 109.256 313.665 109.256C314.897 109.256 315.63 110.521 315.63 112.736C315.63 114.956 314.906 116.201 313.665 116.201Z" fill="white"/>
</g>
<g clip-path="url(#clip11_35_243)">
<g clip-path="url(#clip12_35_243)">
<path d="M339.025 116.667L333.882 110L344.168 110L339.025 116.667Z" fill="#FF2D2E"/>
</g>
</g>
<g clip-path="url(#clip13_35_243)">
<g clip-path="url(#clip14_35_243)">
<path d="M25.0326 146H30.029V145.084H26.0652V137.473H25.0326V146ZM30.3965 138.389H33.0779V146H34.1105V138.389H36.792V137.473H30.3965V138.389ZM45.261 140.137C44.9445 138.389 43.5455 137.356 41.8301 137.356C39.6483 137.356 38.0661 139.038 38.0661 141.736C38.0661 144.434 39.6483 146.117 41.8301 146.117C43.5455 146.117 44.9445 145.084 45.261 143.335H44.2284C43.9785 144.518 42.9626 145.151 41.8301 145.151C40.2812 145.151 39.0654 143.951 39.0654 141.736C39.0654 139.521 40.2812 138.322 41.8301 138.322C42.9626 138.322 43.9785 138.955 44.2284 140.137H45.261Z" fill="white"/>
<path d="M54.6304 146H59.6268V145.084H55.663V137.473H54.6304V146ZM61.4609 146H62.4436V139.605H61.4609V146ZM61.9606 138.539C62.3437 138.539 62.6601 138.239 62.6601 137.872C62.6601 137.506 62.3437 137.206 61.9606 137.206C61.5775 137.206 61.2611 137.506 61.2611 137.872C61.2611 138.239 61.5775 138.539 61.9606 138.539ZM67.3932 139.605H66.0275V138.072H65.0449V139.605H64.0789V140.437H65.0449V144.434C65.0449 145.55 65.9442 146.083 66.777 146.083C67.1434 146.083 67.3765 146.017 67.5098 145.967L67.3099 145.084C67.2267 145.101 67.0934 145.134 66.8769 145.134C66.4439 145.134 66.0275 145.001 66.0275 144.168V140.437H67.3932V139.605ZM71.8525 146.133C73.1516 146.133 74.1009 145.484 74.4007 144.518L73.4514 144.251C73.2016 144.917 72.6228 145.251 71.8525 145.251C70.6992 145.251 69.9039 144.505 69.8581 143.135H74.5007V142.719C74.5007 140.337 73.085 139.521 71.7526 139.521C70.0205 139.521 68.8713 140.887 68.8713 142.852C68.8713 144.818 70.0039 146.133 71.8525 146.133ZM69.8581 142.286C69.9247 141.291 70.6284 140.404 71.7526 140.404C72.8185 140.404 73.5014 141.203 73.5014 142.286H69.8581ZM78.9621 146.133C80.3777 146.133 81.3104 145.267 81.477 144.135H80.4943C80.3111 144.834 79.7282 145.251 78.9621 145.251C77.7962 145.251 77.0468 144.285 77.0468 142.802C77.0468 141.353 77.8129 140.404 78.9621 140.404C79.8281 140.404 80.3444 140.937 80.4943 141.52H81.477C81.3104 140.321 80.2945 139.521 78.9454 139.521C77.2133 139.521 76.0641 140.887 76.0641 142.836C76.0641 144.751 77.1634 146.133 78.9621 146.133ZM85.8801 146.133C87.6122 146.133 88.778 144.818 88.778 142.836C88.778 140.837 87.6122 139.521 85.8801 139.521C84.148 139.521 82.9822 140.837 82.9822 142.836C82.9822 144.818 84.148 146.133 85.8801 146.133ZM85.8801 145.251C84.5644 145.251 83.9648 144.118 83.9648 142.836C83.9648 141.553 84.5644 140.404 85.8801 140.404C87.1958 140.404 87.7954 141.553 87.7954 142.836C87.7954 144.118 87.1958 145.251 85.8801 145.251ZM90.6465 146H91.6292V139.605H90.6465V146ZM91.1462 138.539C91.5292 138.539 91.8457 138.239 91.8457 137.872C91.8457 137.506 91.5292 137.206 91.1462 137.206C90.7631 137.206 90.4467 137.506 90.4467 137.872C90.4467 138.239 90.7631 138.539 91.1462 138.539ZM94.78 142.153C94.78 141.037 95.4712 140.404 96.4122 140.404C97.3241 140.404 97.8778 140.999 97.8778 142.003V146H98.8605V141.936C98.8605 140.304 97.9903 139.521 96.6953 139.521C95.7294 139.521 95.1298 139.954 94.83 140.604H94.7467V139.605H93.7974V146H94.78V142.153Z" fill="#9A9A9A"/>
<path d="M189.423 147.066H190.105V146.137C191.854 146.017 192.837 144.984 192.837 143.685C192.837 142.086 191.321 141.57 190.439 141.337L190.105 141.245V138.285C190.988 138.372 191.629 138.847 191.721 139.605H192.72C192.679 138.389 191.613 137.464 190.105 137.364V136.407H189.423V137.377C187.994 137.523 186.924 138.43 186.924 139.738C186.924 140.887 187.757 141.57 189.09 141.953L189.423 142.049V145.201C188.548 145.109 187.832 144.659 187.757 143.802H186.691C186.787 145.113 187.786 146.029 189.423 146.137V147.066ZM190.105 145.201V142.244L190.139 142.253C191.038 142.502 191.838 142.819 191.838 143.668C191.838 144.505 191.113 145.088 190.105 145.201ZM189.423 141.062C188.79 140.883 187.924 140.533 187.924 139.688C187.924 138.967 188.507 138.418 189.423 138.297V141.062ZM197.751 137.473H196.718L194.587 138.888V139.938L196.669 138.555H196.718V146H197.751V137.473ZM203.303 146.117C205.006 146.117 206.193 145.121 206.201 143.735C206.193 142.657 205.473 141.741 204.553 141.57V141.52C205.352 141.312 205.877 140.529 205.885 139.621C205.877 138.322 204.786 137.356 203.303 137.356C201.804 137.356 200.714 138.322 200.722 139.621C200.714 140.529 201.238 141.312 202.054 141.52V141.57C201.117 141.741 200.397 142.657 200.405 143.735C200.397 145.121 201.584 146.117 203.303 146.117ZM203.303 145.201C202.133 145.201 201.413 144.601 201.421 143.685C201.413 142.723 202.208 142.036 203.303 142.036C204.382 142.036 205.177 142.723 205.185 143.685C205.177 144.601 204.457 145.201 203.303 145.201ZM203.303 141.153C202.371 141.153 201.713 140.571 201.721 139.688C201.713 138.822 202.346 138.256 203.303 138.256C204.244 138.256 204.877 138.822 204.886 139.688C204.877 140.571 204.219 141.153 203.303 141.153ZM210.997 146.117C212.721 146.137 213.845 144.838 213.845 143.252C213.845 141.603 212.625 140.421 211.163 140.421C210.285 140.421 209.531 140.849 209.065 141.553H208.998C209.002 139.475 209.81 138.272 211.13 138.272C212.029 138.272 212.571 138.838 212.762 139.605H213.778C213.57 138.28 212.562 137.356 211.13 137.356C209.211 137.356 208.032 139.055 208.032 142.069C208.032 145.221 209.598 146.1 210.997 146.117ZM210.997 145.201C209.927 145.201 209.144 144.289 209.148 143.269C209.152 142.248 209.973 141.337 211.03 141.337C212.075 141.337 212.846 142.194 212.846 143.252C212.846 144.335 212.042 145.201 210.997 145.201ZM218.682 146.117C220.406 146.137 221.53 144.838 221.53 143.252C221.53 141.603 220.31 140.421 218.849 140.421C217.97 140.421 217.216 140.849 216.75 141.553H216.683C216.688 139.475 217.495 138.272 218.815 138.272C219.715 138.272 220.256 138.838 220.447 139.605H221.463C221.255 138.28 220.248 137.356 218.815 137.356C216.896 137.356 215.718 139.055 215.718 142.069C215.718 145.221 217.283 146.1 218.682 146.117ZM218.682 145.201C217.612 145.201 216.829 144.289 216.833 143.269C216.838 142.248 217.658 141.337 218.715 141.337C219.76 141.337 220.531 142.194 220.531 143.252C220.531 144.335 219.727 145.201 218.682 145.201ZM226.534 137.473H225.501L223.369 138.888V139.938L225.451 138.555H225.501V146H226.534V137.473Z" fill="#9292C1"/>
<path d="M286.933 146H292.312V145.084H288.348V145.017L290.264 142.969C291.729 141.399 292.162 140.666 292.162 139.721C292.162 138.405 291.096 137.356 289.597 137.356C288.103 137.356 286.966 138.372 286.966 139.871H287.949C287.949 138.901 288.577 138.256 289.564 138.256C290.489 138.256 291.196 138.822 291.196 139.721C291.196 140.508 290.734 141.091 289.747 142.169L286.933 145.251V146ZM295.883 144.834H294.817L294.767 145.3C294.646 146.429 294.409 147.553 294.3 148.082H295.05C295.25 147.516 295.674 146.233 295.816 145.284L295.883 144.834ZM300.034 137.473H299.001L296.869 138.888V139.938L298.951 138.555H299.001V146H300.034V137.473ZM302.655 144.251H306.669V146H307.651V144.251H308.817V143.335H307.651V137.473H306.402L302.655 143.402V144.251ZM306.669 143.335H303.771V143.269L306.602 138.788H306.669V143.335ZM313.527 146.117C315.409 146.117 316.492 144.522 316.492 141.736C316.492 138.972 315.393 137.356 313.527 137.356C311.662 137.356 310.563 138.972 310.563 141.736C310.563 144.522 311.645 146.117 313.527 146.117ZM313.527 145.201C312.287 145.201 311.562 143.956 311.562 141.736C311.562 139.521 312.295 138.256 313.527 138.256C314.76 138.256 315.493 139.521 315.493 141.736C315.493 143.956 314.768 145.201 313.527 145.201Z" fill="white"/>
</g>
<g clip-path="url(#clip15_35_243)">
<g clip-path="url(#clip16_35_243)">
<path d="M339.025 139L344.168 145.667H333.882L339.025 139Z" fill="#00B929"/>
</g>
</g>
</g>
<g clip-path="url(#clip17_35_243)">
<g clip-path="url(#clip18_35_243)">
<path d="M25.3824 175L26.2401 172.585H29.6876L30.5453 175H31.6279L28.4968 166.473H27.4309L24.2998 175H25.3824ZM26.5648 171.669L27.9305 167.822H27.9972L29.3629 171.669H26.5648ZM35.9561 175C38.5543 175 40.0199 173.384 40.0199 170.72C40.0199 168.072 38.5543 166.473 36.0727 166.473H33.3246V175H35.9561ZM34.3572 174.084V167.389H36.0061C38.0046 167.389 39.0206 168.655 39.0206 170.72C39.0206 172.802 38.0046 174.084 35.8895 174.084H34.3572ZM42.0695 175L42.9272 172.585H46.3747L47.2325 175H48.315L45.1839 166.473H44.118L40.9869 175H42.0695ZM43.252 171.669L44.6177 167.822H44.6843L46.05 171.669H43.252Z" fill="white"/>
<path d="M64.2059 169.137C63.8894 167.389 62.4904 166.356 60.775 166.356C58.5932 166.356 57.011 168.038 57.011 170.736C57.011 173.434 58.5932 175.117 60.775 175.117C62.4904 175.117 63.8894 174.084 64.2059 172.335H63.1733C62.9234 173.518 61.9075 174.151 60.775 174.151C59.2261 174.151 58.0103 172.951 58.0103 170.736C58.0103 168.521 59.2261 167.322 60.775 167.322C61.9075 167.322 62.9234 167.955 63.1733 169.137H64.2059ZM67.9917 175.15C69.1076 175.15 69.6905 174.55 69.8904 174.134H69.9403V175H70.923V170.786C70.923 168.754 69.3741 168.521 68.558 168.521C67.592 168.521 66.4928 168.854 65.9931 170.02L66.9258 170.353C67.1423 169.887 67.6545 169.387 68.5913 169.387C69.4948 169.387 69.9403 169.866 69.9403 170.686V170.72C69.9403 171.194 69.4573 171.153 68.2915 171.303C67.1049 171.457 65.8099 171.719 65.8099 173.185C65.8099 174.434 66.7759 175.15 67.9917 175.15ZM68.1416 174.267C67.3588 174.267 66.7926 173.917 66.7926 173.235C66.7926 172.485 67.4754 172.252 68.2415 172.152C68.6579 172.102 69.7738 171.985 69.9403 171.786V172.685C69.9403 173.484 69.3075 174.267 68.1416 174.267ZM73.085 175H74.0676V170.953C74.0676 170.087 74.7505 169.454 75.6831 169.454C75.9455 169.454 76.2161 169.504 76.2827 169.521V168.521C76.1703 168.513 75.9121 168.505 75.7664 168.505C75.0003 168.505 74.3341 168.938 74.1009 169.571H74.0343V168.605H73.085V175ZM80.0363 175.133C81.2688 175.133 81.6851 174.367 81.9017 174.017H82.0182V175H82.9676V166.473H81.9849V169.62H81.9017C81.6851 169.287 81.3021 168.521 80.053 168.521C78.4374 168.521 77.3216 169.804 77.3216 171.819C77.3216 173.851 78.4374 175.133 80.0363 175.133ZM80.1695 174.251C78.9371 174.251 78.3042 173.168 78.3042 171.802C78.3042 170.453 78.9204 169.404 80.1695 169.404C81.3687 169.404 82.0016 170.37 82.0016 171.802C82.0016 173.251 81.352 174.251 80.1695 174.251ZM87.1542 175.15C88.2701 175.15 88.853 174.55 89.0528 174.134H89.1028V175H90.0854V170.786C90.0854 168.754 88.5365 168.521 87.7204 168.521C86.7545 168.521 85.6552 168.854 85.1556 170.02L86.0883 170.353C86.3048 169.887 86.8169 169.387 87.7538 169.387C88.6573 169.387 89.1028 169.866 89.1028 170.686V170.72C89.1028 171.194 88.6198 171.153 87.454 171.303C86.2673 171.457 84.9724 171.719 84.9724 173.185C84.9724 174.434 85.9384 175.15 87.1542 175.15ZM87.3041 174.267C86.5213 174.267 85.955 173.917 85.955 173.235C85.955 172.485 86.6379 172.252 87.404 172.152C87.8204 172.102 88.9362 171.985 89.1028 171.786V172.685C89.1028 173.484 88.4699 174.267 87.3041 174.267ZM93.2301 171.153C93.2301 170.037 93.9213 169.404 94.8623 169.404C95.7741 169.404 96.3279 169.999 96.3279 171.003V175H97.3105V170.936C97.3105 169.304 96.4403 168.521 95.1454 168.521C94.1794 168.521 93.5798 168.954 93.2801 169.604H93.1968V168.605H92.2475V175H93.2301V171.153ZM102.073 175.133C103.805 175.133 104.971 173.818 104.971 171.836C104.971 169.837 103.805 168.521 102.073 168.521C100.341 168.521 99.1748 169.837 99.1748 171.836C99.1748 173.818 100.341 175.133 102.073 175.133ZM102.073 174.251C100.757 174.251 100.157 173.118 100.157 171.836C100.157 170.553 100.757 169.404 102.073 169.404C103.389 169.404 103.988 170.553 103.988 171.836C103.988 173.118 103.389 174.251 102.073 174.251Z" fill="#9A9A9A"/>
<path d="M189.423 176.066H190.105V175.137C191.854 175.017 192.837 173.984 192.837 172.685C192.837 171.086 191.321 170.57 190.439 170.337L190.105 170.245V167.285C190.988 167.372 191.629 167.847 191.721 168.605H192.72C192.679 167.389 191.613 166.464 190.105 166.364V165.407H189.423V166.377C187.994 166.523 186.924 167.43 186.924 168.738C186.924 169.887 187.757 170.57 189.09 170.953L189.423 171.049V174.201C188.548 174.109 187.832 173.659 187.757 172.802H186.691C186.787 174.113 187.786 175.029 189.423 175.137V176.066ZM190.105 174.201V171.244L190.139 171.253C191.038 171.502 191.838 171.819 191.838 172.668C191.838 173.505 191.113 174.088 190.105 174.201ZM189.423 170.062C188.79 169.883 187.924 169.533 187.924 168.688C187.924 167.967 188.507 167.418 189.423 167.297V170.062ZM197.634 175.117C199.287 175.117 200.516 174.08 200.516 172.685C200.516 171.602 199.875 170.815 198.8 170.636V170.57C199.662 170.308 200.199 169.6 200.199 168.638C200.199 167.43 199.246 166.356 197.668 166.356C196.194 166.356 194.97 167.264 194.92 168.605H195.919C195.957 167.755 196.764 167.256 197.651 167.256C198.592 167.256 199.2 167.826 199.2 168.688C199.2 169.587 198.496 170.17 197.485 170.17H196.802V171.086H197.485C198.78 171.086 199.5 171.744 199.5 172.685C199.5 173.589 198.713 174.201 197.618 174.201C196.631 174.201 195.848 173.693 195.786 172.868H194.737C194.799 174.209 195.982 175.117 197.634 175.117ZM202.854 175H203.936L207.734 167.439V166.473H202.271V167.389H206.668V167.455L202.854 175ZM212.652 166.473H211.619L209.488 167.888V168.938L211.569 167.555H211.619V175H212.652V166.473ZM218.304 175.117C220.028 175.137 221.152 173.838 221.152 172.252C221.152 170.603 219.932 169.421 218.471 169.421C217.592 169.421 216.839 169.849 216.372 170.553H216.306C216.31 168.475 217.118 167.272 218.437 167.272C219.337 167.272 219.878 167.838 220.07 168.605H221.086C220.877 167.28 219.87 166.356 218.437 166.356C216.518 166.356 215.34 168.055 215.34 171.069C215.34 174.221 216.905 175.1 218.304 175.117ZM218.304 174.201C217.234 174.201 216.451 173.289 216.456 172.269C216.46 171.248 217.28 170.337 218.338 170.337C219.383 170.337 220.153 171.194 220.153 172.252C220.153 173.335 219.349 174.201 218.304 174.201ZM225.989 175.117C227.713 175.137 228.837 173.838 228.837 172.252C228.837 170.603 227.617 169.421 226.156 169.421C225.277 169.421 224.524 169.849 224.057 170.553H223.991C223.995 168.475 224.803 167.272 226.123 167.272C227.022 167.272 227.563 167.838 227.755 168.605H228.771C228.563 167.28 227.555 166.356 226.123 166.356C224.203 166.356 223.025 168.055 223.025 171.069C223.025 174.221 224.59 175.1 225.989 175.117ZM225.989 174.201C224.919 174.201 224.137 173.289 224.141 172.269C224.145 171.248 224.965 170.337 226.023 170.337C227.068 170.337 227.838 171.194 227.838 172.252C227.838 173.335 227.034 174.201 225.989 174.201Z" fill="#9292C1"/>
<path d="M289.931 166.473H288.898L286.766 167.888V168.938L288.848 167.555H288.898V175H289.931V166.473ZM293.73 173.834H292.664L292.614 174.3C292.493 175.429 292.256 176.553 292.148 177.082H292.897C293.097 176.516 293.522 175.233 293.663 174.284L293.73 173.834ZM298.537 166.356C296.805 166.335 295.689 167.639 295.689 169.204C295.689 170.853 296.905 172.035 298.37 172.035C299.253 172.035 300.003 171.602 300.469 170.903H300.536C300.536 173.001 299.719 174.201 298.404 174.201C297.504 174.201 296.955 173.634 296.772 172.852H295.756C295.955 174.201 296.971 175.117 298.404 175.117C300.319 175.117 301.502 173.418 301.502 170.387C301.502 167.256 299.936 166.373 298.537 166.356ZM298.537 167.272C299.603 167.272 300.386 168.188 300.386 169.187C300.386 170.203 299.553 171.119 298.504 171.119C297.454 171.119 296.688 170.27 296.688 169.204C296.688 168.138 297.488 167.272 298.537 167.272ZM303.545 175H304.627L308.425 167.439V166.473H302.962V167.389H307.359V167.455L303.545 175ZM312.993 175.117C314.717 175.137 315.841 173.838 315.841 172.252C315.841 170.603 314.621 169.421 313.16 169.421C312.281 169.421 311.528 169.849 311.061 170.553H310.995C310.999 168.475 311.807 167.272 313.127 167.272C314.026 167.272 314.567 167.838 314.759 168.605H315.775C315.567 167.28 314.559 166.356 313.127 166.356C311.207 166.356 310.029 168.055 310.029 171.069C310.029 174.221 311.594 175.1 312.993 175.117ZM312.993 174.201C311.923 174.201 311.141 173.289 311.145 172.269C311.149 171.248 311.969 170.337 313.027 170.337C314.072 170.337 314.842 171.194 314.842 172.252C314.842 173.335 314.038 174.201 312.993 174.201Z" fill="white"/>
</g>
<g clip-path="url(#clip19_35_243)">
<g clip-path="url(#clip20_35_243)">
<path d="M339.025 168L344.168 174.667H333.882L339.025 168Z" fill="#00B929"/>
</g>
</g>
</g>
<g clip-path="url(#clip21_35_243)">
<g clip-path="url(#clip22_35_243)">
<path d="M31.8944 198.137C31.5779 196.389 30.1789 195.356 28.4635 195.356C26.2817 195.356 24.6995 197.038 24.6995 199.736C24.6995 202.434 26.2817 204.117 28.4635 204.117C30.1789 204.117 31.5779 203.084 31.8944 201.335H30.8618C30.612 202.518 29.596 203.151 28.4635 203.151C26.9146 203.151 25.6988 201.951 25.6988 199.736C25.6988 197.521 26.9146 196.322 28.4635 196.322C29.596 196.322 30.612 196.955 30.8618 198.137H31.8944ZM34.2812 204L35.139 201.585H38.5865L39.4442 204H40.5268L37.3957 195.473H36.3298L33.1987 204H34.2812ZM35.4637 200.669L36.8294 196.822H36.8961L38.2618 200.669H35.4637ZM42.2235 204H43.2561V201.235L44.322 200.036L47.2866 204H48.5357L44.9549 199.32L48.5357 195.473H47.1867L43.3561 199.703H43.2561V195.473H42.2235V204ZM50.2408 204H55.4537V203.084H51.2734V200.186H55.1206V199.27H51.2734V196.389H55.3871V195.473H50.2408V204Z" fill="white"/>
<path d="M64.9491 204H65.9817V200.886H67.847C69.8331 200.886 70.7283 199.678 70.7283 198.171C70.7283 196.664 69.8331 195.473 67.8304 195.473H64.9491V204ZM65.9817 199.97V196.389H67.7971C69.1836 196.389 69.7124 197.147 69.7124 198.171C69.7124 199.195 69.1836 199.97 67.8137 199.97H65.9817ZM74.509 204.15C75.6249 204.15 76.2078 203.55 76.4076 203.134H76.4576V204H77.4402V199.786C77.4402 197.754 75.8913 197.521 75.0752 197.521C74.1093 197.521 73.01 197.854 72.5104 199.02L73.4431 199.353C73.6596 198.887 74.1717 198.387 75.1086 198.387C76.0121 198.387 76.4576 198.866 76.4576 199.686V199.72C76.4576 200.194 75.9746 200.153 74.8088 200.303C73.6221 200.457 72.3272 200.719 72.3272 202.185C72.3272 203.434 73.2932 204.15 74.509 204.15ZM74.6589 203.267C73.8761 203.267 73.3098 202.917 73.3098 202.235C73.3098 201.485 73.9927 201.252 74.7588 201.152C75.1752 201.102 76.291 200.985 76.4576 200.786V201.685C76.4576 202.484 75.8247 203.267 74.6589 203.267ZM80.5849 200.153C80.5849 199.037 81.2761 198.404 82.2171 198.404C83.1289 198.404 83.6827 198.999 83.6827 200.003V204H84.6653V199.936C84.6653 198.304 83.7951 197.521 82.5002 197.521C81.5342 197.521 80.9346 197.954 80.6348 198.604H80.5516V197.605H79.6022V204H80.5849V200.153ZM89.4276 204.133C90.8432 204.133 91.7759 203.267 91.9424 202.135H90.9598C90.7766 202.834 90.1937 203.251 89.4276 203.251C88.2617 203.251 87.5123 202.285 87.5123 200.802C87.5123 199.353 88.2784 198.404 89.4276 198.404C90.2936 198.404 90.8099 198.937 90.9598 199.52H91.9424C91.7759 198.321 90.76 197.521 89.4109 197.521C87.6788 197.521 86.5296 198.887 86.5296 200.836C86.5296 202.751 87.6288 204.133 89.4276 204.133ZM95.6294 204.15C96.7453 204.15 97.3282 203.55 97.5281 203.134H97.578V204H98.5607V199.786C98.5607 197.754 97.0118 197.521 96.1957 197.521C95.2297 197.521 94.1305 197.854 93.6308 199.02L94.5635 199.353C94.78 198.887 95.2922 198.387 96.229 198.387C97.1325 198.387 97.578 198.866 97.578 199.686V199.72C97.578 200.194 97.095 200.153 95.9292 200.303C94.7425 200.457 93.4476 200.719 93.4476 202.185C93.4476 203.434 94.4136 204.15 95.6294 204.15ZM95.7793 203.267C94.9965 203.267 94.4303 202.917 94.4303 202.235C94.4303 201.485 95.1131 201.252 95.8792 201.152C96.2956 201.102 97.4115 200.985 97.578 200.786V201.685C97.578 202.484 96.9451 203.267 95.7793 203.267ZM100.723 204H101.705V201.606L102.392 200.969L104.786 204H106.036L103.133 200.336L105.836 197.605H104.62L101.822 200.453H101.705V195.473H100.723V204ZM109.887 204.133C111.186 204.133 112.135 203.484 112.435 202.518L111.486 202.251C111.236 202.917 110.657 203.251 109.887 203.251C108.734 203.251 107.938 202.505 107.893 201.135H112.535V200.719C112.535 198.337 111.119 197.521 109.787 197.521C108.055 197.521 106.906 198.887 106.906 200.852C106.906 202.818 108.038 204.133 109.887 204.133ZM107.893 200.286C107.959 199.291 108.663 198.404 109.787 198.404C110.853 198.404 111.536 199.203 111.536 200.286H107.893Z" fill="#9A9A9A"/>
<path d="M189.423 205.066H190.105V204.137C191.854 204.017 192.837 202.984 192.837 201.685C192.837 200.086 191.321 199.57 190.439 199.337L190.105 199.245V196.285C190.988 196.372 191.629 196.847 191.721 197.605H192.72C192.679 196.389 191.613 195.464 190.105 195.364V194.407H189.423V195.377C187.994 195.523 186.924 196.43 186.924 197.738C186.924 198.887 187.757 199.57 189.09 199.953L189.423 200.049V203.201C188.548 203.109 187.832 202.659 187.757 201.802H186.691C186.787 203.113 187.786 204.029 189.423 204.137V205.066ZM190.105 203.201V200.244L190.139 200.253C191.038 200.502 191.838 200.819 191.838 201.668C191.838 202.505 191.113 203.088 190.105 203.201ZM189.423 199.062C188.79 198.883 187.924 198.533 187.924 197.688C187.924 196.967 188.507 196.418 189.423 196.297V199.062ZM195.02 204H196.102L199.9 196.439V195.473H194.437V196.389H198.834V196.455L195.02 204ZM201.82 204H207.2V203.084H203.236V203.017L205.151 200.969C206.617 199.399 207.05 198.666 207.05 197.721C207.05 196.405 205.984 195.356 204.485 195.356C202.99 195.356 201.853 196.372 201.853 197.871H202.836C202.836 196.901 203.465 196.256 204.452 196.256C205.376 196.256 206.084 196.822 206.084 197.721C206.084 198.508 205.622 199.091 204.635 200.169L201.82 203.251V204ZM212.119 204.117C213.843 204.137 214.967 202.838 214.967 201.252C214.967 199.603 213.747 198.421 212.286 198.421C211.407 198.421 210.653 198.849 210.187 199.553H210.12C210.125 197.475 210.932 196.272 212.252 196.272C213.152 196.272 213.693 196.838 213.884 197.605H214.9C214.692 196.28 213.685 195.356 212.252 195.356C210.333 195.356 209.154 197.055 209.154 200.069C209.154 203.221 210.72 204.1 212.119 204.117ZM212.119 203.201C211.049 203.201 210.266 202.289 210.27 201.269C210.274 200.248 211.095 199.337 212.152 199.337C213.197 199.337 213.968 200.194 213.968 201.252C213.968 202.335 213.164 203.201 212.119 203.201ZM219.638 204.117C221.261 204.117 222.452 202.917 222.452 201.285C222.452 199.632 221.303 198.421 219.738 198.421C219.163 198.421 218.605 198.625 218.255 198.904H218.205L218.505 196.389H222.069V195.473H217.639L217.123 199.67L218.089 199.786C218.443 199.532 219.046 199.349 219.571 199.353C220.658 199.362 221.453 200.186 221.453 201.302C221.453 202.397 220.687 203.201 219.638 203.201C218.763 203.201 218.068 202.638 217.989 201.868H216.99C217.052 203.167 218.172 204.117 219.638 204.117ZM227.256 204.117C229.138 204.117 230.221 202.522 230.221 199.736C230.221 196.972 229.122 195.356 227.256 195.356C225.391 195.356 224.292 196.972 224.292 199.736C224.292 202.522 225.374 204.117 227.256 204.117ZM227.256 203.201C226.015 203.201 225.291 201.956 225.291 199.736C225.291 197.521 226.024 196.256 227.256 196.256C228.489 196.256 229.221 197.521 229.221 199.736C229.221 201.956 228.497 203.201 227.256 203.201Z" fill="#9292C1"/>
<path d="M289.931 195.473H288.898L286.766 196.888V197.938L288.848 196.555H288.898V204H289.931V195.473ZM293.73 202.834H292.664L292.614 203.3C292.493 204.429 292.256 205.553 292.148 206.082H292.897C293.097 205.516 293.522 204.233 293.663 203.284L293.73 202.834ZM298.537 195.356C296.805 195.335 295.689 196.639 295.689 198.204C295.689 199.853 296.905 201.035 298.37 201.035C299.253 201.035 300.003 200.602 300.469 199.903H300.536C300.536 202.001 299.719 203.201 298.404 203.201C297.504 203.201 296.955 202.634 296.772 201.852H295.756C295.955 203.201 296.971 204.117 298.404 204.117C300.319 204.117 301.502 202.418 301.502 199.387C301.502 196.256 299.936 195.373 298.537 195.356ZM298.537 196.272C299.603 196.272 300.386 197.188 300.386 198.187C300.386 199.203 299.553 200.119 298.504 200.119C297.454 200.119 296.688 199.27 296.688 198.204C296.688 197.138 297.488 196.272 298.537 196.272ZM306.289 204.117C308.171 204.117 309.253 202.522 309.253 199.736C309.253 196.972 308.154 195.356 306.289 195.356C304.423 195.356 303.324 196.972 303.324 199.736C303.324 202.522 304.407 204.117 306.289 204.117ZM306.289 203.201C305.048 203.201 304.323 201.956 304.323 199.736C304.323 197.521 305.056 196.256 306.289 196.256C307.521 196.256 308.254 197.521 308.254 199.736C308.254 201.956 307.53 203.201 306.289 203.201ZM314.085 204.117C315.738 204.117 316.967 203.08 316.967 201.685C316.967 200.602 316.325 199.815 315.251 199.636V199.57C316.113 199.308 316.65 198.6 316.65 197.638C316.65 196.43 315.697 195.356 314.119 195.356C312.645 195.356 311.421 196.264 311.371 197.605H312.37C312.407 196.755 313.215 196.256 314.102 196.256C315.043 196.256 315.651 196.826 315.651 197.688C315.651 198.587 314.947 199.17 313.935 199.17H313.253V200.086H313.935C315.23 200.086 315.951 200.744 315.951 201.685C315.951 202.589 315.164 203.201 314.069 203.201C313.082 203.201 312.299 202.693 312.237 201.868H311.187C311.25 203.209 312.432 204.117 314.085 204.117Z" fill="white"/>
</g>
<g clip-path="url(#clip23_35_243)">
<g clip-path="url(#clip24_35_243)">
<path d="M339.025 203.667L333.882 197L344.168 197L339.025 203.667Z" fill="#FF2D2E"/>
</g>
</g>
</g>
<defs>
<clipPath id="clip0_35_243">
<rect width="320" height="17" fill="white" transform="translate(24 17)"/>
</clipPath>
<clipPath id="clip1_35_243">
<rect width="320" height="17" fill="white" transform="translate(24 17)"/>
</clipPath>
<clipPath id="clip2_35_243">
<rect width="321" height="17" fill="white" transform="translate(24 46)"/>
</clipPath>
<clipPath id="clip3_35_243">
<rect width="304" height="17" fill="white" transform="translate(24 46)"/>
</clipPath>
<clipPath id="clip4_35_243">
<rect width="12" height="17" fill="white" transform="translate(333.025 46)"/>
</clipPath>
<clipPath id="clip5_35_243">
<rect width="12" height="20" fill="white" transform="translate(333.025 44.5)"/>
</clipPath>
<clipPath id="clip6_35_243">
<rect width="321" height="17" fill="white" transform="translate(24 75)"/>
</clipPath>
<clipPath id="clip7_35_243">
<rect width="304" height="17" fill="white" transform="translate(24 75)"/>
</clipPath>
<clipPath id="clip8_35_243">
<rect width="12" height="17" fill="white" transform="translate(333.025 75)"/>
</clipPath>
<clipPath id="clip9_35_243">
<rect width="12" height="20" fill="white" transform="translate(333.025 73.5)"/>
</clipPath>
<clipPath id="clip10_35_243">
<rect width="304" height="17" fill="white" transform="translate(24 104)"/>
</clipPath>
<clipPath id="clip11_35_243">
<rect width="12" height="17" fill="white" transform="translate(333.025 104)"/>
</clipPath>
<clipPath id="clip12_35_243">
<rect width="12" height="20" fill="white" transform="translate(333.025 102.5)"/>
</clipPath>
<clipPath id="clip13_35_243">
<rect width="321" height="17" fill="white" transform="translate(24 133)"/>
</clipPath>
<clipPath id="clip14_35_243">
<rect width="304" height="17" fill="white" transform="translate(24 133)"/>
</clipPath>
<clipPath id="clip15_35_243">
<rect width="12" height="17" fill="white" transform="translate(333.025 133)"/>
</clipPath>
<clipPath id="clip16_35_243">
<rect width="12" height="20" fill="white" transform="translate(333.025 131.5)"/>
</clipPath>
<clipPath id="clip17_35_243">
<rect width="321" height="17" fill="white" transform="translate(24 162)"/>
</clipPath>
<clipPath id="clip18_35_243">
<rect width="304" height="17" fill="white" transform="translate(24 162)"/>
</clipPath>
<clipPath id="clip19_35_243">
<rect width="12" height="17" fill="white" transform="translate(333.025 162)"/>
</clipPath>
<clipPath id="clip20_35_243">
<rect width="12" height="20" fill="white" transform="translate(333.025 160.5)"/>
</clipPath>
<clipPath id="clip21_35_243">
<rect width="321" height="17" fill="white" transform="translate(24 191)"/>
</clipPath>
<clipPath id="clip22_35_243">
<rect width="304" height="17" fill="white" transform="translate(24 191)"/>
</clipPath>
<clipPath id="clip23_35_243">
<rect width="12" height="17" fill="white" transform="translate(333.025 191)"/>
</clipPath>
<clipPath id="clip24_35_243">
<rect width="12" height="20" fill="white" transform="translate(333.025 189.5)"/>
</clipPath>
</defs>
</svg>
