<svg width="332" height="47" viewBox="0 0 332 47" fill="none" xmlns="http://www.w3.org/2000/svg">
<rect x="-6.10352e-05" y="0.75769" width="44.9767" height="45.5657" rx="22.4883" fill="#00FFA3"/>
<rect x="7.30078" y="7.54056" width="32" height="32" rx="16" fill="#00FFA3"/>
<g clip-path="url(#clip0_26_187)">
<path d="M23.2986 11.5406L23.1376 12.0875V27.9567L23.2986 28.1173L30.6648 23.7631L23.2986 11.5406Z" fill="#343434"/>
<path d="M23.2986 11.5406L15.9323 23.7631L23.2986 28.1173V20.4148V11.5406Z" fill="#8C8C8C"/>
<path d="M23.2986 29.512L23.2079 29.6226V35.2755L23.2986 35.5404L30.6693 25.16L23.2986 29.512Z" fill="#3C3C3B"/>
<path d="M23.2986 35.5404V29.512L15.9323 25.16L23.2986 35.5404Z" fill="#8C8C8C"/>
<path d="M23.2986 28.1173L30.6648 23.7631L23.2986 20.4148V28.1173Z" fill="#141414"/>
<path d="M15.9323 23.7631L23.2986 28.1173V20.4148L15.9323 23.7631Z" fill="#393939"/>
</g>
<path d="M57.96 20.5467V9.34666H64.984V11.2987H59.912V13.5707H63.936V15.5227H59.912V18.5947H64.984V20.5467H57.96ZM75.5412 9.34666V11.2987H72.1172V20.5467H70.1652V11.2987H66.7412V9.34666H75.5412ZM84.0513 9.34666H86.0033V20.5467H84.0513V15.5227H79.4113V20.5467H77.4593V9.34666H79.4113V13.5707H84.0513V9.34666Z" fill="white"/>
<path d="M57.72 40.7782V32.3782H62.874V33.3862H58.728V35.7742H62.124V36.7822H58.728V39.7702H62.874V40.7782H57.72ZM67.5367 35.7862H66.1747L66.1687 40.7782H65.1607L65.1667 35.7862H64.1347V34.7782H65.1667L65.1607 32.8942H66.1687L66.1747 34.7782H67.5367V35.7862ZM74.1563 37.0462V40.7782H73.1483V37.2682C73.1483 36.9642 73.0743 36.6882 72.9263 36.4402C72.7783 36.1922 72.5803 35.9962 72.3323 35.8522C72.0843 35.7042 71.8083 35.6302 71.5043 35.6302C71.2043 35.6302 70.9283 35.7042 70.6763 35.8522C70.4283 35.9962 70.2303 36.1922 70.0823 36.4402C69.9343 36.6882 69.8603 36.9642 69.8603 37.2682V40.7782H68.8523V31.7782H69.8603V35.5282C70.0723 35.2482 70.3403 35.0262 70.6643 34.8622C70.9883 34.6942 71.3403 34.6102 71.7203 34.6102C72.1683 34.6102 72.5763 34.7202 72.9443 34.9402C73.3163 35.1562 73.6103 35.4482 73.8263 35.8162C74.0463 36.1842 74.1563 36.5942 74.1563 37.0462ZM78.119 40.9342C77.567 40.9342 77.063 40.7922 76.607 40.5082C76.155 40.2242 75.793 39.8442 75.521 39.3682C75.253 38.8882 75.119 38.3582 75.119 37.7782C75.119 37.3382 75.197 36.9282 75.353 36.5482C75.509 36.1642 75.723 35.8282 75.995 35.5402C76.271 35.2482 76.591 35.0202 76.955 34.8562C77.319 34.6922 77.707 34.6102 78.119 34.6102C78.571 34.6102 78.985 34.7022 79.361 34.8862C79.741 35.0662 80.065 35.3182 80.333 35.6422C80.605 35.9662 80.807 36.3422 80.939 36.7702C81.075 37.1982 81.125 37.6562 81.089 38.1442H76.193C76.241 38.4842 76.353 38.7882 76.529 39.0562C76.705 39.3202 76.929 39.5302 77.201 39.6862C77.477 39.8422 77.783 39.9222 78.119 39.9262C78.479 39.9262 78.805 39.8342 79.097 39.6502C79.389 39.4622 79.625 39.2062 79.805 38.8822L80.831 39.1222C80.591 39.6542 80.229 40.0902 79.745 40.4302C79.261 40.7662 78.719 40.9342 78.119 40.9342ZM76.163 37.3522H80.075C80.043 37.0162 79.935 36.7102 79.751 36.4342C79.567 36.1542 79.333 35.9302 79.049 35.7622C78.765 35.5942 78.455 35.5102 78.119 35.5102C77.783 35.5102 77.475 35.5922 77.195 35.7562C76.915 35.9202 76.683 36.1422 76.499 36.4222C76.319 36.6982 76.207 37.0082 76.163 37.3522ZM82.3401 40.7782V34.7782H83.3481V35.5282C83.5601 35.2482 83.8281 35.0262 84.1521 34.8622C84.4761 34.6942 84.8281 34.6102 85.2081 34.6102C85.4401 34.6102 85.6641 34.6402 85.8801 34.7002L85.4721 35.7082C85.3081 35.6562 85.1481 35.6302 84.9921 35.6302C84.6921 35.6302 84.4161 35.7042 84.1641 35.8522C83.9161 35.9962 83.7181 36.1922 83.5701 36.4402C83.4221 36.6882 83.3481 36.9642 83.3481 37.2682V40.7782H82.3401ZM89.1928 40.9342C88.6408 40.9342 88.1368 40.7922 87.6808 40.5082C87.2288 40.2242 86.8668 39.8442 86.5948 39.3682C86.3268 38.8882 86.1928 38.3582 86.1928 37.7782C86.1928 37.3382 86.2708 36.9282 86.4268 36.5482C86.5828 36.1642 86.7968 35.8282 87.0688 35.5402C87.3448 35.2482 87.6648 35.0202 88.0288 34.8562C88.3928 34.6922 88.7808 34.6102 89.1928 34.6102C89.6448 34.6102 90.0588 34.7022 90.4348 34.8862C90.8148 35.0662 91.1388 35.3182 91.4068 35.6422C91.6788 35.9662 91.8808 36.3422 92.0128 36.7702C92.1488 37.1982 92.1988 37.6562 92.1628 38.1442H87.2668C87.3148 38.4842 87.4268 38.7882 87.6028 39.0562C87.7788 39.3202 88.0028 39.5302 88.2748 39.6862C88.5508 39.8422 88.8568 39.9222 89.1928 39.9262C89.5528 39.9262 89.8788 39.8342 90.1708 39.6502C90.4628 39.4622 90.6988 39.2062 90.8788 38.8822L91.9048 39.1222C91.6648 39.6542 91.3028 40.0902 90.8188 40.4302C90.3348 40.7662 89.7928 40.9342 89.1928 40.9342ZM87.2368 37.3522H91.1488C91.1168 37.0162 91.0088 36.7102 90.8248 36.4342C90.6408 36.1542 90.4068 35.9302 90.1228 35.7622C89.8388 35.5942 89.5288 35.5102 89.1928 35.5102C88.8568 35.5102 88.5488 35.5922 88.2688 35.7562C87.9888 35.9202 87.7568 36.1422 87.5728 36.4222C87.3928 36.6982 87.2808 37.0082 87.2368 37.3522ZM93.0918 38.4982V34.7782H94.0998V38.2762C94.0998 38.5802 94.1738 38.8562 94.3218 39.1042C94.4698 39.3522 94.6678 39.5502 94.9158 39.6982C95.1678 39.8422 95.4438 39.9142 95.7438 39.9142C96.0478 39.9142 96.3218 39.8422 96.5658 39.6982C96.8138 39.5502 97.0118 39.3522 97.1598 39.1042C97.3078 38.8562 97.3818 38.5802 97.3818 38.2762V34.7782H98.3898L98.3958 40.7782H97.3878L97.3818 40.0162C97.1698 40.2962 96.9018 40.5202 96.5778 40.6882C96.2538 40.8522 95.9038 40.9342 95.5278 40.9342C95.0798 40.9342 94.6698 40.8262 94.2978 40.6102C93.9298 40.3902 93.6358 40.0962 93.4158 39.7282C93.1998 39.3602 93.0918 38.9502 93.0918 38.4982ZM99.8414 40.7782V34.7782H100.849V35.5282C101.061 35.2482 101.327 35.0262 101.647 34.8622C101.971 34.6942 102.323 34.6102 102.703 34.6102C103.147 34.6102 103.553 34.7182 103.921 34.9342C104.289 35.1502 104.579 35.4362 104.791 35.7922C105.003 35.4362 105.291 35.1502 105.655 34.9342C106.023 34.7182 106.427 34.6102 106.867 34.6102C107.319 34.6102 107.729 34.7202 108.097 34.9402C108.465 35.1562 108.757 35.4482 108.973 35.8162C109.193 36.1842 109.303 36.5942 109.303 37.0462V40.7782H108.295V37.2862C108.295 36.9902 108.223 36.7162 108.079 36.4642C107.935 36.2122 107.741 36.0102 107.497 35.8582C107.253 35.7062 106.983 35.6302 106.687 35.6302C106.391 35.6302 106.121 35.7022 105.877 35.8462C105.633 35.9862 105.439 36.1822 105.295 36.4342C105.151 36.6822 105.079 36.9662 105.079 37.2862V40.7782H104.071V37.2862C104.071 36.9662 103.999 36.6822 103.855 36.4342C103.711 36.1822 103.515 35.9862 103.267 35.8462C103.023 35.7022 102.753 35.6302 102.457 35.6302C102.165 35.6302 101.895 35.7062 101.647 35.8582C101.403 36.0102 101.209 36.2122 101.065 36.4642C100.921 36.7162 100.849 36.9902 100.849 37.2862V40.7782H99.8414Z" fill="#A0A0A0"/>
<path d="M270.994 12.1557C270.621 12.1511 270.271 12.2117 269.944 12.3377C269.622 12.4591 269.358 12.6271 269.153 12.8417C268.948 13.0564 268.845 13.3061 268.845 13.5907C268.845 13.9407 268.941 14.2067 269.132 14.3887C269.323 14.5707 269.58 14.7061 269.902 14.7947C270.229 14.8787 270.593 14.9557 270.994 15.0257C271.638 15.1284 272.233 15.2987 272.779 15.5367C273.33 15.7747 273.771 16.0921 274.102 16.4887C274.438 16.8807 274.606 17.3637 274.606 17.9377C274.606 18.4651 274.466 18.9341 274.186 19.3447C273.906 19.7507 273.53 20.0797 273.059 20.3317C272.592 20.5791 272.077 20.7354 271.512 20.8007V22.2217H270.483V20.8007C270.012 20.7541 269.564 20.6421 269.139 20.4647C268.719 20.2874 268.353 20.0517 268.04 19.7577C267.727 19.4637 267.501 19.1231 267.361 18.7357L268.726 18.2247C268.805 18.4487 268.957 18.6494 269.181 18.8267C269.41 18.9994 269.68 19.1347 269.993 19.2327C270.31 19.3307 270.644 19.3797 270.994 19.3797C271.367 19.3797 271.717 19.3191 272.044 19.1977C272.375 19.0764 272.641 18.9084 272.842 18.6937C273.047 18.4791 273.15 18.2271 273.15 17.9377C273.15 17.6391 273.043 17.3941 272.828 17.2027C272.618 17.0114 272.347 16.8597 272.016 16.7477C271.689 16.6357 271.349 16.5517 270.994 16.4957C270.308 16.3837 269.692 16.2204 269.146 16.0057C268.605 15.7911 268.175 15.4901 267.858 15.1027C267.545 14.7154 267.389 14.2114 267.389 13.5907C267.389 13.0634 267.529 12.5944 267.809 12.1837C268.089 11.7731 268.462 11.4441 268.929 11.1967C269.4 10.9447 269.918 10.7884 270.483 10.7277V9.28575H271.512V10.7277C271.969 10.7744 272.408 10.8864 272.828 11.0637C273.253 11.2411 273.624 11.4767 273.941 11.7707C274.258 12.0601 274.489 12.4054 274.634 12.8067L273.255 13.3037C273.176 13.0751 273.024 12.8767 272.8 12.7087C272.576 12.5361 272.305 12.4007 271.988 12.3027C271.675 12.2047 271.344 12.1557 270.994 12.1557ZM276.036 20.6537V19.3587C276.367 19.0834 276.747 18.7637 277.177 18.3997C277.606 18.0311 278.042 17.6414 278.486 17.2307C278.929 16.8154 279.337 16.4024 279.711 15.9917C280.084 15.5764 280.385 15.1844 280.614 14.8157C280.847 14.4424 280.964 14.1181 280.964 13.8427C280.964 13.5301 280.887 13.2454 280.733 12.9887C280.583 12.7274 280.38 12.5197 280.124 12.3657C279.867 12.2071 279.582 12.1277 279.27 12.1277C278.957 12.1277 278.67 12.2071 278.409 12.3657C278.152 12.5197 277.944 12.7274 277.786 12.9887C277.632 13.2454 277.555 13.5301 277.555 13.8427H276.099C276.099 13.2501 276.243 12.7157 276.533 12.2397C276.827 11.7591 277.212 11.3787 277.688 11.0987C278.168 10.8141 278.696 10.6717 279.27 10.6717C279.848 10.6717 280.376 10.8141 280.852 11.0987C281.328 11.3834 281.708 11.7661 281.993 12.2467C282.277 12.7227 282.42 13.2547 282.42 13.8427C282.42 14.1694 282.352 14.5054 282.217 14.8507C282.081 15.1961 281.892 15.5484 281.65 15.9077C281.412 16.2671 281.134 16.6311 280.817 16.9997C280.499 17.3684 280.159 17.7371 279.795 18.1057C279.431 18.4744 279.06 18.8384 278.682 19.1977H282.504V20.6537H276.036ZM284.177 21.4377L284.611 19.0717H286.067L285.143 21.4377H284.177ZM290.993 20.8357C290.372 20.8357 289.81 20.6864 289.306 20.3877C288.806 20.0844 288.41 19.6831 288.116 19.1837C287.826 18.6797 287.682 18.1291 287.682 17.5317H289.138C289.138 17.8724 289.222 18.1827 289.39 18.4627C289.558 18.7427 289.782 18.9667 290.062 19.1347C290.342 19.2981 290.652 19.3797 290.993 19.3797C291.329 19.3797 291.637 19.2981 291.917 19.1347C292.197 18.9667 292.421 18.7427 292.589 18.4627C292.757 18.1827 292.841 17.8724 292.841 17.5317C292.841 17.1911 292.764 16.8807 292.61 16.6007C292.456 16.3161 292.225 16.0897 291.917 15.9217C291.609 15.7491 291.217 15.6627 290.741 15.6627H288.27L289.264 10.8537H294.003V12.3097H290.447L290.062 14.2067L290.909 14.2207C291.576 14.2347 292.162 14.3887 292.666 14.6827C293.174 14.9721 293.573 15.3641 293.863 15.8587C294.152 16.3487 294.297 16.9064 294.297 17.5317C294.297 17.9844 294.21 18.4114 294.038 18.8127C293.865 19.2094 293.627 19.5594 293.324 19.8627C293.025 20.1661 292.675 20.4041 292.274 20.5767C291.877 20.7494 291.45 20.8357 290.993 20.8357ZM297.592 20.6537L299.573 17.2237C299.102 17.3124 298.642 17.2937 298.194 17.1677C297.751 17.0371 297.352 16.8247 296.997 16.5307C296.642 16.2321 296.36 15.8704 296.15 15.4457C295.94 15.0211 295.835 14.5544 295.835 14.0457C295.835 13.5837 295.921 13.1497 296.094 12.7437C296.271 12.3331 296.514 11.9737 296.822 11.6657C297.13 11.3531 297.487 11.1104 297.893 10.9377C298.304 10.7604 298.742 10.6717 299.209 10.6717C299.82 10.6717 300.38 10.8234 300.889 11.1267C301.398 11.4301 301.804 11.8384 302.107 12.3517C302.41 12.8604 302.562 13.4251 302.562 14.0457C302.562 14.3677 302.522 14.6617 302.443 14.9277C302.368 15.1937 302.249 15.4737 302.086 15.7677L299.279 20.6537H297.592ZM299.195 15.9567C299.568 15.9567 299.9 15.8681 300.189 15.6907C300.478 15.5087 300.705 15.2731 300.868 14.9837C301.036 14.6897 301.12 14.3747 301.12 14.0387C301.12 13.6747 301.031 13.3481 300.854 13.0587C300.677 12.7694 300.441 12.5407 300.147 12.3727C299.858 12.2047 299.545 12.1207 299.209 12.1207C298.836 12.1207 298.504 12.2117 298.215 12.3937C297.926 12.5757 297.697 12.8137 297.529 13.1077C297.361 13.3971 297.277 13.7074 297.277 14.0387C297.277 14.3887 297.361 14.7107 297.529 15.0047C297.702 15.2941 297.933 15.5251 298.222 15.6977C298.511 15.8704 298.836 15.9567 299.195 15.9567ZM307.477 20.8357C306.898 20.8357 306.375 20.7051 305.909 20.4437C305.447 20.1777 305.048 19.8114 304.712 19.3447C304.376 18.8781 304.119 18.3391 303.942 17.7277C303.764 17.1117 303.676 16.4537 303.676 15.7537C303.676 15.0537 303.764 14.3957 303.942 13.7797C304.119 13.1637 304.376 12.6247 304.712 12.1627C305.048 11.6961 305.447 11.3321 305.909 11.0707C306.375 10.8047 306.898 10.6717 307.477 10.6717C308.046 10.6717 308.564 10.8047 309.031 11.0707C309.497 11.3321 309.894 11.6961 310.221 12.1627C310.552 12.6247 310.806 13.1637 310.984 13.7797C311.161 14.3957 311.25 15.0537 311.25 15.7537C311.25 16.4537 311.161 17.1117 310.984 17.7277C310.806 18.3391 310.552 18.8781 310.221 19.3447C309.894 19.8114 309.497 20.1777 309.031 20.4437C308.564 20.7051 308.046 20.8357 307.477 20.8357ZM307.477 19.3797C308.013 19.3797 308.459 19.2117 308.814 18.8757C309.173 18.5351 309.441 18.0894 309.619 17.5387C309.796 16.9881 309.885 16.3931 309.885 15.7537C309.885 15.0817 309.791 14.4727 309.605 13.9267C309.423 13.3761 309.152 12.9397 308.793 12.6177C308.438 12.2911 307.999 12.1277 307.477 12.1277C307.061 12.1277 306.7 12.2257 306.392 12.4217C306.088 12.6177 305.836 12.8861 305.636 13.2267C305.44 13.5674 305.29 13.9547 305.188 14.3887C305.09 14.8227 305.041 15.2777 305.041 15.7537C305.041 16.3931 305.132 16.9881 305.314 17.5387C305.496 18.0894 305.766 18.5351 306.126 18.8757C306.49 19.2117 306.94 19.3797 307.477 19.3797ZM313.267 20.8357C313.052 20.8357 312.87 20.7611 312.721 20.6117C312.576 20.4624 312.504 20.2804 312.504 20.0657C312.504 19.8557 312.576 19.6761 312.721 19.5267C312.87 19.3774 313.052 19.3027 313.267 19.3027C313.482 19.3027 313.664 19.3774 313.813 19.5267C313.962 19.6761 314.037 19.8557 314.037 20.0657C314.037 20.2804 313.962 20.4624 313.813 20.6117C313.664 20.7611 313.482 20.8357 313.267 20.8357ZM319.384 20.8357C318.806 20.8357 318.283 20.7051 317.816 20.4437C317.354 20.1777 316.955 19.8114 316.619 19.3447C316.283 18.8781 316.027 18.3391 315.849 17.7277C315.672 17.1117 315.583 16.4537 315.583 15.7537C315.583 15.0537 315.672 14.3957 315.849 13.7797C316.027 13.1637 316.283 12.6247 316.619 12.1627C316.955 11.6961 317.354 11.3321 317.816 11.0707C318.283 10.8047 318.806 10.6717 319.384 10.6717C319.954 10.6717 320.472 10.8047 320.938 11.0707C321.405 11.3321 321.802 11.6961 322.128 12.1627C322.46 12.6247 322.714 13.1637 322.891 13.7797C323.069 14.3957 323.157 15.0537 323.157 15.7537C323.157 16.4537 323.069 17.1117 322.891 17.7277C322.714 18.3391 322.46 18.8781 322.128 19.3447C321.802 19.8114 321.405 20.1777 320.938 20.4437C320.472 20.7051 319.954 20.8357 319.384 20.8357ZM319.384 19.3797C319.921 19.3797 320.367 19.2117 320.721 18.8757C321.081 18.5351 321.349 18.0894 321.526 17.5387C321.704 16.9881 321.792 16.3931 321.792 15.7537C321.792 15.0817 321.699 14.4727 321.512 13.9267C321.33 13.3761 321.06 12.9397 320.7 12.6177C320.346 12.2911 319.907 12.1277 319.384 12.1277C318.969 12.1277 318.607 12.2257 318.299 12.4217C317.996 12.6177 317.744 12.8861 317.543 13.2267C317.347 13.5674 317.198 13.9547 317.095 14.3887C316.997 14.8227 316.948 15.2777 316.948 15.7537C316.948 16.3931 317.039 16.9881 317.221 17.5387C317.403 18.0894 317.674 18.5351 318.033 18.8757C318.397 19.2117 318.848 19.3797 319.384 19.3797ZM327.813 20.8357C327.234 20.8357 326.711 20.7051 326.245 20.4437C325.783 20.1777 325.384 19.8114 325.048 19.3447C324.712 18.8781 324.455 18.3391 324.278 17.7277C324.1 17.1117 324.012 16.4537 324.012 15.7537C324.012 15.0537 324.1 14.3957 324.278 13.7797C324.455 13.1637 324.712 12.6247 325.048 12.1627C325.384 11.6961 325.783 11.3321 326.245 11.0707C326.711 10.8047 327.234 10.6717 327.813 10.6717C328.382 10.6717 328.9 10.8047 329.367 11.0707C329.833 11.3321 330.23 11.6961 330.557 12.1627C330.888 12.6247 331.142 13.1637 331.32 13.7797C331.497 14.3957 331.586 15.0537 331.586 15.7537C331.586 16.4537 331.497 17.1117 331.32 17.7277C331.142 18.3391 330.888 18.8781 330.557 19.3447C330.23 19.8114 329.833 20.1777 329.367 20.4437C328.9 20.7051 328.382 20.8357 327.813 20.8357ZM327.813 19.3797C328.349 19.3797 328.795 19.2117 329.15 18.8757C329.509 18.5351 329.777 18.0894 329.955 17.5387C330.132 16.9881 330.221 16.3931 330.221 15.7537C330.221 15.0817 330.127 14.4727 329.941 13.9267C329.759 13.3761 329.488 12.9397 329.129 12.6177C328.774 12.2911 328.335 12.1277 327.813 12.1277C327.397 12.1277 327.036 12.2257 326.728 12.4217C326.424 12.6177 326.172 12.8861 325.972 13.2267C325.776 13.5674 325.626 13.9547 325.524 14.3887C325.426 14.8227 325.377 15.2777 325.377 15.7537C325.377 16.3931 325.468 16.9881 325.65 17.5387C325.832 18.0894 326.102 18.5351 326.462 18.8757C326.826 19.2117 327.276 19.3797 327.813 19.3797Z" fill="white"/>
<path d="M298.359 38.0711V35.6951H295.983V34.4471H298.359V32.0711H299.607V34.4471H301.983V35.6951H299.607V38.0711H298.359ZM305.962 38.8271C305.43 38.8271 304.948 38.6991 304.516 38.4431C304.088 38.1831 303.748 37.8391 303.496 37.4111C303.248 36.9791 303.124 36.5071 303.124 35.9951H304.372C304.372 36.2871 304.444 36.5531 304.588 36.7931C304.732 37.0331 304.924 37.2251 305.164 37.3691C305.404 37.5091 305.67 37.5791 305.962 37.5791C306.25 37.5791 306.514 37.5091 306.754 37.3691C306.994 37.2251 307.186 37.0331 307.33 36.7931C307.474 36.5531 307.546 36.2871 307.546 35.9951C307.546 35.7031 307.48 35.4371 307.348 35.1971C307.216 34.9531 307.018 34.7591 306.754 34.6151C306.49 34.4671 306.154 34.3931 305.746 34.3931H303.628L304.48 30.2711H308.542V31.5191H305.494L305.164 33.1451L305.89 33.1571C306.462 33.1691 306.964 33.3011 307.396 33.5531C307.832 33.8011 308.174 34.1371 308.422 34.5611C308.67 34.9811 308.794 35.4591 308.794 35.9951C308.794 36.3831 308.72 36.7491 308.572 37.0931C308.424 37.4331 308.22 37.7331 307.96 37.9931C307.704 38.2531 307.404 38.4571 307.06 38.6051C306.72 38.7531 306.354 38.8271 305.962 38.8271ZM310.887 38.8271C310.703 38.8271 310.547 38.7631 310.419 38.6351C310.295 38.5071 310.233 38.3511 310.233 38.1671C310.233 37.9871 310.295 37.8331 310.419 37.7051C310.547 37.5771 310.703 37.5131 310.887 37.5131C311.071 37.5131 311.227 37.5771 311.355 37.7051C311.483 37.8331 311.547 37.9871 311.547 38.1671C311.547 38.3511 311.483 38.5071 311.355 38.6351C311.227 38.7631 311.071 38.8271 310.887 38.8271ZM312.992 38.6711V37.5611C313.276 37.3251 313.602 37.0511 313.97 36.7391C314.338 36.4231 314.712 36.0891 315.092 35.7371C315.472 35.3811 315.822 35.0271 316.142 34.6751C316.462 34.3191 316.72 33.9831 316.916 33.6671C317.116 33.3471 317.216 33.0691 317.216 32.8331C317.216 32.5651 317.15 32.3211 317.018 32.1011C316.89 31.8771 316.716 31.6991 316.496 31.5671C316.276 31.4311 316.032 31.3631 315.764 31.3631C315.496 31.3631 315.25 31.4311 315.026 31.5671C314.806 31.6991 314.628 31.8771 314.492 32.1011C314.36 32.3211 314.294 32.5651 314.294 32.8331H313.046C313.046 32.3251 313.17 31.8671 313.418 31.4591C313.67 31.0471 314 30.7211 314.408 30.4811C314.82 30.2371 315.272 30.1151 315.764 30.1151C316.26 30.1151 316.712 30.2371 317.12 30.4811C317.528 30.7251 317.854 31.0531 318.098 31.4651C318.342 31.8731 318.464 32.3291 318.464 32.8331C318.464 33.1131 318.406 33.4011 318.29 33.6971C318.174 33.9931 318.012 34.2951 317.804 34.6031C317.6 34.9111 317.362 35.2231 317.09 35.5391C316.818 35.8551 316.526 36.1711 316.214 36.4871C315.902 36.8031 315.584 37.1151 315.26 37.4231H318.536V38.6711H312.992ZM320.972 38.6711V31.5191H319.97L320.312 30.2711H322.22V38.6711H320.972ZM324.562 38.6711L329.41 30.2711H330.85L326.002 38.6711H324.562ZM325.576 33.7931C325.272 33.7931 324.992 33.7191 324.736 33.5711C324.484 33.4191 324.282 33.2171 324.13 32.9651C323.978 32.7091 323.902 32.4271 323.902 32.1191C323.902 31.7991 323.978 31.5131 324.13 31.2611C324.286 31.0091 324.49 30.8111 324.742 30.6671C324.998 30.5191 325.276 30.4451 325.576 30.4451C325.884 30.4451 326.164 30.5211 326.416 30.6731C326.668 30.8211 326.87 31.0211 327.022 31.2731C327.174 31.5251 327.25 31.8071 327.25 32.1191C327.25 32.4351 327.172 32.7191 327.016 32.9711C326.864 33.2231 326.66 33.4231 326.404 33.5711C326.152 33.7191 325.876 33.7931 325.576 33.7931ZM325.576 32.9111C325.8 32.9111 325.988 32.8351 326.14 32.6831C326.292 32.5271 326.368 32.3391 326.368 32.1191C326.368 31.8951 326.292 31.7071 326.14 31.5551C325.988 31.3991 325.8 31.3211 325.576 31.3211C325.356 31.3211 325.168 31.3991 325.012 31.5551C324.86 31.7071 324.784 31.8951 324.784 32.1191C324.784 32.3391 324.86 32.5271 325.012 32.6831C325.168 32.8351 325.356 32.9111 325.576 32.9111ZM329.848 38.5091C329.536 38.5091 329.252 38.4311 328.996 38.2751C328.744 38.1151 328.542 37.9091 328.39 37.6571C328.242 37.4011 328.168 37.1251 328.168 36.8291C328.168 36.5171 328.246 36.2351 328.402 35.9831C328.558 35.7271 328.762 35.5251 329.014 35.3771C329.27 35.2251 329.548 35.1491 329.848 35.1491C330.164 35.1491 330.448 35.2271 330.7 35.3831C330.952 35.5391 331.152 35.7451 331.3 36.0011C331.448 36.2571 331.522 36.5331 331.522 36.8291C331.522 37.1371 331.446 37.4191 331.294 37.6751C331.146 37.9271 330.944 38.1291 330.688 38.2811C330.436 38.4331 330.156 38.5091 329.848 38.5091ZM329.848 37.6271C330.064 37.6271 330.25 37.5491 330.406 37.3931C330.562 37.2371 330.64 37.0491 330.64 36.8291C330.64 36.6091 330.562 36.4211 330.406 36.2651C330.25 36.1091 330.064 36.0311 329.848 36.0311C329.628 36.0311 329.438 36.1091 329.278 36.2651C329.122 36.4211 329.044 36.6091 329.044 36.8291C329.044 37.0491 329.122 37.2371 329.278 37.3931C329.438 37.5491 329.628 37.6271 329.848 37.6271Z" fill="#FF002E"/>
<path d="M235 12.3947L226.089 10.8105C222.59 10.1884 219.1 11.9494 217.522 15.1336L215.558 19.0939C214.298 21.6365 211.428 22.9482 208.68 22.2377L197.835 19.4332C194.889 18.6714 191.766 19.6469 189.777 21.9501L180.49 32.7061C178.027 35.559 173.574 35.4607 171.239 32.5019L156.872 14.2972C155.924 13.0957 154.477 12.3947 152.947 12.3947L135 12.3947" stroke="#FF002E" stroke-width="2" stroke-linecap="round"/>
<rect x="130" y="5.54666" width="25" height="25.285" fill="url(#paint0_linear_26_187)"/>
<rect width="25" height="25.285" transform="matrix(-1 0 0 1 239 5.54666)" fill="url(#paint1_linear_26_187)"/>
<defs>
<linearGradient id="paint0_linear_26_187" x1="135.5" y1="30.8317" x2="153" y2="30.8317" gradientUnits="userSpaceOnUse">
<stop stop-color="#0F111E"/>
<stop offset="1" stop-color="#0F111E" stop-opacity="0"/>
</linearGradient>
<linearGradient id="paint1_linear_26_187" x1="5.5" y1="25.285" x2="23" y2="25.285" gradientUnits="userSpaceOnUse">
<stop stop-color="#0F111E"/>
<stop offset="1" stop-color="#0F111E" stop-opacity="0"/>
</linearGradient>
<clipPath id="clip0_26_187">
<rect width="24" height="24" fill="white" transform="translate(11.3008 11.5406)"/>
</clipPath>
</defs>
</svg>
