<svg width="332" height="49" viewBox="0 0 332 49" fill="none" xmlns="http://www.w3.org/2000/svg">
<rect x="-6.10352e-05" y="0.75769" width="44.9767" height="47.4095" rx="22.4883" fill="#F7931A"/>
<g clip-path="url(#clip0_26_175)">
<path d="M38.8565 28.5446C36.6027 37.5848 27.4464 43.0866 18.4051 40.8322C9.36751 38.5784 3.86579 29.4215 6.12055 20.382C8.37334 11.3407 17.5297 5.83861 26.5682 8.09238C35.6089 10.3462 41.1103 19.5041 38.8563 28.5447L38.8564 28.5446H38.8565Z" fill="#F7931A"/>
<path d="M29.9294 22.0582C30.2653 19.8125 28.5556 18.6053 26.2176 17.8L26.9761 14.758L25.1243 14.2966L24.386 17.2585C23.8992 17.1371 23.3993 17.0227 22.9024 16.9093L23.6461 13.9278L21.7955 13.4664L21.0366 16.5074C20.6338 16.4157 20.2381 16.3251 19.8542 16.2295L19.8564 16.22L17.3028 15.5823L16.8102 17.5601C16.8102 17.5601 18.184 17.875 18.1551 17.8944C18.9049 18.0815 19.0405 18.5779 19.018 18.9714L18.1541 22.4369C18.2057 22.45 18.2727 22.469 18.3466 22.4987C18.2848 22.4834 18.2191 22.4666 18.1508 22.4503L16.9399 27.305C16.8483 27.5328 16.6157 27.8747 16.0914 27.7449C16.11 27.7718 14.7455 27.409 14.7455 27.409L13.8262 29.5287L16.2359 30.1294C16.6842 30.2418 17.1235 30.3595 17.5561 30.4701L16.7899 33.5469L18.6395 34.0084L19.3983 30.9641C19.9036 31.1013 20.394 31.2278 20.874 31.3471L20.1177 34.377L21.9696 34.8384L22.7358 31.7673C25.8934 32.3649 28.2677 32.1239 29.2671 29.2679C30.0723 26.9684 29.227 25.6421 27.5658 24.7771C28.7757 24.4981 29.6871 23.7023 29.9301 22.0584L29.9295 22.058L29.9294 22.0582ZM25.6986 27.9909C25.1263 30.2903 21.2547 29.0473 19.9995 28.7356L21.0163 24.6593C22.2715 24.9726 26.2967 25.5927 25.6987 27.9909H25.6986ZM26.2713 22.0248C25.7492 24.1164 22.5268 23.0538 21.4815 22.7932L22.4034 19.0963C23.4488 19.3568 26.8151 19.8431 26.2714 22.0248H26.2713Z" fill="white"/>
</g>
<path d="M57.96 16.4238V5.22383H62.04C62.632 5.22383 63.1653 5.34649 63.64 5.59183C64.12 5.83183 64.4986 6.17849 64.776 6.63183C65.0586 7.07983 65.2 7.61049 65.2 8.22383C65.2 8.49583 65.16 8.77049 65.08 9.04783C65 9.32516 64.8773 9.57583 64.712 9.79983C64.5466 10.0185 64.3333 10.1812 64.072 10.2878C64.4186 10.3732 64.7013 10.5278 64.92 10.7518C65.1386 10.9758 65.3093 11.2398 65.432 11.5438C65.5546 11.8425 65.6373 12.1492 65.68 12.4638C65.728 12.7732 65.752 13.0612 65.752 13.3278C65.752 13.9198 65.6053 14.4478 65.312 14.9118C65.0186 15.3758 64.624 15.7438 64.128 16.0158C63.6373 16.2878 63.0933 16.4238 62.496 16.4238H57.96ZM59.912 14.7518H62.296C62.616 14.7518 62.904 14.6745 63.16 14.5198C63.416 14.3652 63.6213 14.1518 63.776 13.8798C63.9306 13.6078 64.008 13.2985 64.008 12.9518C64.008 12.6532 63.9306 12.3705 63.776 12.1038C63.6213 11.8372 63.416 11.6212 63.16 11.4558C62.904 11.2905 62.616 11.2078 62.296 11.2078H59.912V14.7518ZM59.912 9.55983H61.816C62.2106 9.55983 62.5466 9.43716 62.824 9.19183C63.1066 8.94649 63.248 8.62116 63.248 8.21583C63.248 7.78383 63.1066 7.45849 62.824 7.23983C62.5466 7.01583 62.2106 6.90383 61.816 6.90383H59.912V9.55983ZM75.51 5.22383V7.17583H72.086V16.4238H70.134V7.17583H66.71V5.22383H75.51ZM81.9715 16.6318C81.2141 16.6318 80.5021 16.4825 79.8355 16.1838C79.1688 15.8798 78.5821 15.4612 78.0755 14.9278C77.5741 14.3945 77.1795 13.7785 76.8915 13.0798C76.6088 12.3758 76.4675 11.6238 76.4675 10.8238C76.4675 10.0185 76.6088 9.26649 76.8915 8.56783C77.1795 7.86383 77.5741 7.24783 78.0755 6.71983C78.5821 6.18649 79.1688 5.77049 79.8355 5.47183C80.5021 5.16783 81.2141 5.01583 81.9715 5.01583C82.8781 5.01583 83.7128 5.22649 84.4755 5.64783C85.2381 6.06383 85.8701 6.62116 86.3715 7.31983L84.6275 8.25583C84.3128 7.86649 83.9208 7.55449 83.4515 7.31983C82.9875 7.08516 82.4941 6.96783 81.9715 6.96783C81.4808 6.96783 81.0195 7.06916 80.5875 7.27183C80.1555 7.46916 79.7768 7.74649 79.4515 8.10383C79.1261 8.45583 78.8728 8.86649 78.6915 9.33583C78.5101 9.79983 78.4195 10.2958 78.4195 10.8238C78.4195 11.3572 78.5101 11.8558 78.6915 12.3198C78.8781 12.7838 79.1341 13.1945 79.4595 13.5518C79.7848 13.9038 80.1608 14.1812 80.5875 14.3838C81.0195 14.5812 81.4808 14.6798 81.9715 14.6798C82.5048 14.6798 83.0008 14.5625 83.4595 14.3278C83.9235 14.0878 84.3128 13.7732 84.6275 13.3838L86.3715 14.3278C85.8701 15.0212 85.2381 15.5785 84.4755 15.9998C83.7128 16.4212 82.8781 16.6318 81.9715 16.6318Z" fill="white"/>
<path d="M57.72 36.6553V28.2553H60.618C61.034 28.2553 61.412 28.3413 61.752 28.5133C62.096 28.6813 62.368 28.9273 62.568 29.2513C62.768 29.5753 62.868 29.9633 62.868 30.4153C62.868 30.6593 62.826 30.8953 62.742 31.1233C62.662 31.3473 62.55 31.5413 62.406 31.7053C62.266 31.8653 62.106 31.9733 61.926 32.0293C62.178 32.0933 62.392 32.2073 62.568 32.3713C62.744 32.5313 62.886 32.7193 62.994 32.9353C63.106 33.1513 63.186 33.3773 63.234 33.6133C63.282 33.8493 63.306 34.0773 63.306 34.2973C63.306 34.7613 63.2 35.1713 62.988 35.5273C62.78 35.8793 62.5 36.1553 62.148 36.3553C61.796 36.5553 61.408 36.6553 60.984 36.6553H57.72ZM58.728 35.7673H60.894C61.17 35.7673 61.42 35.6973 61.644 35.5573C61.872 35.4133 62.054 35.2173 62.19 34.9693C62.326 34.7213 62.394 34.4413 62.394 34.1293C62.394 33.8533 62.326 33.5933 62.19 33.3493C62.054 33.1013 61.872 32.9013 61.644 32.7493C61.42 32.5973 61.17 32.5213 60.894 32.5213H58.728V35.7673ZM58.728 31.6513H60.522C60.89 31.6513 61.204 31.5433 61.464 31.3273C61.728 31.1073 61.86 30.8013 61.86 30.4093C61.86 29.9853 61.728 29.6693 61.464 29.4613C61.204 29.2493 60.89 29.1433 60.522 29.1433H58.728V31.6513ZM64.7451 30.6553H65.7531V36.6553H64.7451V30.6553ZM65.2611 29.6773C65.1011 29.6773 64.9671 29.6253 64.8591 29.5213C64.7511 29.4173 64.6971 29.2873 64.6971 29.1313C64.6971 28.9753 64.7511 28.8453 64.8591 28.7413C64.9671 28.6373 65.0991 28.5853 65.2551 28.5853C65.4111 28.5853 65.5431 28.6373 65.6511 28.7413C65.7591 28.8453 65.8131 28.9753 65.8131 29.1313C65.8131 29.2873 65.7591 29.4173 65.6511 29.5213C65.5471 29.6253 65.4171 29.6773 65.2611 29.6773ZM70.5423 31.6633H69.1803L69.1743 36.6553H68.1663L68.1723 31.6633H67.1403V30.6553H68.1723L68.1663 28.7713H69.1743L69.1803 30.6553H70.5423V31.6633ZM75.8396 35.0713L76.7396 35.5573C76.4676 35.9373 76.1216 36.2413 75.7016 36.4693C75.2856 36.6973 74.8336 36.8113 74.3456 36.8113C73.7936 36.8113 73.2896 36.6693 72.8336 36.3853C72.3816 36.1013 72.0196 35.7213 71.7476 35.2453C71.4796 34.7653 71.3456 34.2353 71.3456 33.6553C71.3456 33.2153 71.4236 32.8053 71.5796 32.4253C71.7356 32.0413 71.9496 31.7053 72.2216 31.4173C72.4976 31.1253 72.8176 30.8973 73.1816 30.7333C73.5456 30.5693 73.9336 30.4873 74.3456 30.4873C74.8336 30.4873 75.2856 30.6013 75.7016 30.8293C76.1216 31.0573 76.4676 31.3633 76.7396 31.7473L75.8396 32.2333C75.6476 31.9973 75.4196 31.8153 75.1556 31.6873C74.8916 31.5593 74.6216 31.4953 74.3456 31.4953C73.9736 31.4953 73.6356 31.5953 73.3316 31.7953C73.0316 31.9913 72.7936 32.2533 72.6176 32.5813C72.4416 32.9093 72.3536 33.2673 72.3536 33.6553C72.3536 34.0433 72.4416 34.4013 72.6176 34.7293C72.7976 35.0533 73.0376 35.3133 73.3376 35.5093C73.6416 35.7053 73.9776 35.8033 74.3456 35.8033C74.6416 35.8033 74.9196 35.7353 75.1796 35.5993C75.4396 35.4633 75.6596 35.2873 75.8396 35.0713ZM80.5973 36.8113C80.0453 36.8113 79.5413 36.6693 79.0853 36.3853C78.6333 36.1013 78.2713 35.7213 77.9993 35.2453C77.7313 34.7653 77.5973 34.2353 77.5973 33.6553C77.5973 33.2153 77.6753 32.8053 77.8313 32.4253C77.9873 32.0413 78.2013 31.7053 78.4733 31.4173C78.7493 31.1253 79.0693 30.8973 79.4333 30.7333C79.7973 30.5693 80.1853 30.4873 80.5973 30.4873C81.1493 30.4873 81.6513 30.6293 82.1033 30.9133C82.5593 31.1973 82.9213 31.5793 83.1893 32.0593C83.4613 32.5393 83.5973 33.0713 83.5973 33.6553C83.5973 34.0913 83.5193 34.4993 83.3633 34.8793C83.2073 35.2593 82.9913 35.5953 82.7153 35.8873C82.4433 36.1753 82.1253 36.4013 81.7613 36.5653C81.4013 36.7293 81.0133 36.8113 80.5973 36.8113ZM80.5973 35.8033C80.9733 35.8033 81.3113 35.7053 81.6113 35.5093C81.9153 35.3093 82.1533 35.0473 82.3253 34.7233C82.5013 34.3953 82.5893 34.0393 82.5893 33.6553C82.5893 33.2633 82.4993 32.9033 82.3193 32.5753C82.1433 32.2473 81.9053 31.9853 81.6053 31.7893C81.3053 31.5933 80.9693 31.4953 80.5973 31.4953C80.2213 31.4953 79.8833 31.5953 79.5833 31.7953C79.2833 31.9913 79.0453 32.2533 78.8693 32.5813C78.6933 32.9093 78.6053 33.2673 78.6053 33.6553C78.6053 34.0553 78.6953 34.4193 78.8753 34.7473C79.0553 35.0713 79.2973 35.3293 79.6013 35.5213C79.9053 35.7093 80.2373 35.8033 80.5973 35.8033ZM84.7481 30.6553H85.7561V36.6553H84.7481V30.6553ZM85.2641 29.6773C85.1041 29.6773 84.9701 29.6253 84.8621 29.5213C84.7541 29.4173 84.7001 29.2873 84.7001 29.1313C84.7001 28.9753 84.7541 28.8453 84.8621 28.7413C84.9701 28.6373 85.1021 28.5853 85.2581 28.5853C85.4141 28.5853 85.5461 28.6373 85.6541 28.7413C85.7621 28.8453 85.8161 28.9753 85.8161 29.1313C85.8161 29.2873 85.7621 29.4173 85.6541 29.5213C85.5501 29.6253 85.4201 29.6773 85.2641 29.6773ZM92.7062 32.9233V36.6553H91.6982V33.1453C91.6982 32.8413 91.6242 32.5653 91.4762 32.3173C91.3282 32.0693 91.1302 31.8733 90.8822 31.7293C90.6342 31.5813 90.3582 31.5073 90.0542 31.5073C89.7542 31.5073 89.4782 31.5813 89.2262 31.7293C88.9782 31.8733 88.7802 32.0693 88.6322 32.3173C88.4842 32.5653 88.4102 32.8413 88.4102 33.1453V36.6553H87.4022V30.6553H88.4102V31.4053C88.6222 31.1253 88.8902 30.9033 89.2142 30.7393C89.5382 30.5713 89.8902 30.4873 90.2702 30.4873C90.7182 30.4873 91.1262 30.5973 91.4942 30.8173C91.8662 31.0333 92.1602 31.3253 92.3762 31.6933C92.5962 32.0613 92.7062 32.4713 92.7062 32.9233Z" fill="#A0A0A0"/>
<path d="M263.864 8.03291C263.491 8.02825 263.141 8.08891 262.814 8.21491C262.492 8.33625 262.229 8.50425 262.023 8.71891C261.818 8.93358 261.715 9.18325 261.715 9.46791C261.715 9.81791 261.811 10.0839 262.002 10.2659C262.194 10.4479 262.45 10.5832 262.772 10.6719C263.099 10.7559 263.463 10.8329 263.864 10.9029C264.508 11.0056 265.103 11.1759 265.649 11.4139C266.2 11.6519 266.641 11.9692 266.972 12.3659C267.308 12.7579 267.476 13.2409 267.476 13.8149C267.476 14.3422 267.336 14.8112 267.056 15.2219C266.776 15.6279 266.401 15.9569 265.929 16.2089C265.463 16.4562 264.947 16.6126 264.382 16.6779V18.0989H263.353V16.6779C262.882 16.6312 262.434 16.5192 262.009 16.3419C261.589 16.1646 261.223 15.9289 260.91 15.6349C260.598 15.3409 260.371 15.0002 260.231 14.6129L261.596 14.1019C261.676 14.3259 261.827 14.5266 262.051 14.7039C262.28 14.8766 262.551 15.0119 262.863 15.1099C263.181 15.2079 263.514 15.2569 263.864 15.2569C264.238 15.2569 264.588 15.1962 264.914 15.0749C265.246 14.9536 265.512 14.7856 265.712 14.5709C265.918 14.3562 266.02 14.1042 266.02 13.8149C266.02 13.5162 265.913 13.2712 265.698 13.0799C265.488 12.8886 265.218 12.7369 264.886 12.6249C264.56 12.5129 264.219 12.4289 263.864 12.3729C263.178 12.2609 262.562 12.0976 262.016 11.8829C261.475 11.6682 261.046 11.3672 260.728 10.9799C260.416 10.5926 260.259 10.0886 260.259 9.46791C260.259 8.94058 260.399 8.47158 260.679 8.06091C260.959 7.65025 261.333 7.32125 261.799 7.07391C262.271 6.82191 262.789 6.66558 263.353 6.60491V5.16291H264.382V6.60491C264.84 6.65158 265.278 6.76358 265.698 6.94091C266.123 7.11825 266.494 7.35391 266.811 7.64791C267.129 7.93725 267.36 8.28258 267.504 8.68391L266.125 9.18091C266.046 8.95225 265.894 8.75391 265.67 8.58591C265.446 8.41325 265.176 8.27791 264.858 8.17991C264.546 8.08191 264.214 8.03291 263.864 8.03291ZM271.874 16.7129C271.281 16.7129 270.749 16.5752 270.278 16.2999C269.811 16.0246 269.443 15.6559 269.172 15.1939C268.901 14.7319 268.766 14.2186 268.766 13.6539H270.222C270.222 13.9479 270.292 14.2162 270.432 14.4589C270.572 14.7016 270.766 14.8952 271.013 15.0399C271.26 15.1846 271.547 15.2569 271.874 15.2569C272.168 15.2569 272.441 15.1846 272.693 15.0399C272.945 14.8952 273.148 14.7016 273.302 14.4589C273.456 14.2162 273.533 13.9479 273.533 13.6539C273.533 13.2806 273.435 12.9679 273.239 12.7159C273.043 12.4639 272.77 12.2772 272.42 12.1559C272.075 12.0299 271.676 11.9669 271.223 11.9669V10.8189C271.839 10.8189 272.331 10.6976 272.7 10.4549C273.069 10.2122 273.253 9.85058 273.253 9.36991C273.253 9.11791 273.185 8.88925 273.05 8.68391C272.919 8.47391 272.744 8.30825 272.525 8.18691C272.31 8.06091 272.079 7.99791 271.832 7.99791C271.575 7.99791 271.328 8.06091 271.09 8.18691C270.857 8.30825 270.665 8.47391 270.516 8.68391C270.367 8.88925 270.292 9.11791 270.292 9.36991H268.836C268.836 8.98258 268.915 8.61858 269.074 8.27791C269.237 7.93258 269.457 7.63158 269.732 7.37491C270.012 7.11358 270.329 6.91058 270.684 6.76591C271.043 6.61658 271.419 6.54191 271.811 6.54191C272.324 6.54191 272.8 6.67025 273.239 6.92691C273.682 7.17891 274.037 7.51958 274.303 7.94891C274.574 8.37358 274.709 8.84725 274.709 9.36991C274.709 9.78525 274.606 10.1796 274.401 10.5529C274.2 10.9216 273.92 11.1829 273.561 11.3369C273.874 11.4489 274.135 11.6262 274.345 11.8689C274.56 12.1069 274.721 12.3822 274.828 12.6949C274.935 13.0029 274.989 13.3226 274.989 13.6539C274.989 14.2139 274.847 14.7272 274.562 15.1939C274.277 15.6559 273.897 16.0246 273.421 16.2999C272.95 16.5752 272.434 16.7129 271.874 16.7129ZM279.467 16.7129C278.842 16.7129 278.27 16.5589 277.752 16.2509C277.234 15.9382 276.819 15.5229 276.506 15.0049C276.198 14.4822 276.044 13.9059 276.044 13.2759C276.044 12.9399 276.084 12.6366 276.163 12.3659C276.243 12.0952 276.364 11.8106 276.527 11.5119L279.285 6.73091H280.979L279.068 10.0349C279.456 9.96025 279.834 9.95791 280.202 10.0279C280.576 10.0932 280.926 10.2216 281.252 10.4129C281.579 10.5996 281.866 10.8376 282.113 11.1269C282.365 11.4116 282.561 11.7359 282.701 12.0999C282.841 12.4639 282.911 12.8559 282.911 13.2759C282.911 13.7472 282.82 14.1906 282.638 14.6059C282.461 15.0212 282.214 15.3876 281.896 15.7049C281.584 16.0176 281.217 16.2649 280.797 16.4469C280.382 16.6242 279.939 16.7129 279.467 16.7129ZM279.467 15.2569C279.85 15.2569 280.191 15.1636 280.489 14.9769C280.788 14.7902 281.024 14.5452 281.196 14.2419C281.369 13.9386 281.455 13.6166 281.455 13.2759C281.455 12.9166 281.367 12.5876 281.189 12.2889C281.017 11.9902 280.781 11.7522 280.482 11.5749C280.184 11.3929 279.85 11.3019 279.481 11.3019C279.099 11.3019 278.758 11.3952 278.459 11.5819C278.161 11.7686 277.925 12.0112 277.752 12.3099C277.584 12.6086 277.5 12.9306 277.5 13.2759C277.5 13.6539 277.591 13.9922 277.773 14.2909C277.96 14.5896 278.203 14.8252 278.501 14.9979C278.8 15.1706 279.122 15.2569 279.467 15.2569ZM284.177 17.3149L284.611 14.9489H286.067L285.143 17.3149H284.177ZM290.993 16.7129C290.372 16.7129 289.81 16.5636 289.306 16.2649C288.806 15.9616 288.41 15.5602 288.116 15.0609C287.826 14.5569 287.682 14.0062 287.682 13.4089H289.138C289.138 13.7496 289.222 14.0599 289.39 14.3399C289.558 14.6199 289.782 14.8439 290.062 15.0119C290.342 15.1752 290.652 15.2569 290.993 15.2569C291.329 15.2569 291.637 15.1752 291.917 15.0119C292.197 14.8439 292.421 14.6199 292.589 14.3399C292.757 14.0599 292.841 13.7496 292.841 13.4089C292.841 13.0682 292.764 12.7579 292.61 12.4779C292.456 12.1932 292.225 11.9669 291.917 11.7989C291.609 11.6262 291.217 11.5399 290.741 11.5399H288.27L289.264 6.73091H294.003V8.18691H290.447L290.062 10.0839L290.909 10.0979C291.576 10.1119 292.162 10.2659 292.666 10.5599C293.174 10.8492 293.573 11.2412 293.863 11.7359C294.152 12.2259 294.297 12.7836 294.297 13.4089C294.297 13.8616 294.21 14.2886 294.038 14.6899C293.865 15.0866 293.627 15.4366 293.324 15.7399C293.025 16.0432 292.675 16.2812 292.274 16.4539C291.877 16.6266 291.45 16.7129 290.993 16.7129ZM297.592 16.5309L299.573 13.1009C299.102 13.1896 298.642 13.1709 298.194 13.0449C297.751 12.9142 297.352 12.7019 296.997 12.4079C296.642 12.1092 296.36 11.7476 296.15 11.3229C295.94 10.8982 295.835 10.4316 295.835 9.92291C295.835 9.46091 295.921 9.02691 296.094 8.62091C296.271 8.21025 296.514 7.85091 296.822 7.54291C297.13 7.23025 297.487 6.98758 297.893 6.81491C298.304 6.63758 298.742 6.54891 299.209 6.54891C299.82 6.54891 300.38 6.70058 300.889 7.00391C301.398 7.30725 301.804 7.71558 302.107 8.22891C302.41 8.73758 302.562 9.30225 302.562 9.92291C302.562 10.2449 302.522 10.5389 302.443 10.8049C302.368 11.0709 302.249 11.3509 302.086 11.6449L299.279 16.5309H297.592ZM299.195 11.8339C299.568 11.8339 299.9 11.7452 300.189 11.5679C300.478 11.3859 300.705 11.1502 300.868 10.8609C301.036 10.5669 301.12 10.2519 301.12 9.91591C301.12 9.55191 301.031 9.22525 300.854 8.93591C300.677 8.64658 300.441 8.41791 300.147 8.24991C299.858 8.08191 299.545 7.99791 299.209 7.99791C298.836 7.99791 298.504 8.08891 298.215 8.27091C297.926 8.45291 297.697 8.69091 297.529 8.98491C297.361 9.27425 297.277 9.58458 297.277 9.91591C297.277 10.2659 297.361 10.5879 297.529 10.8819C297.702 11.1712 297.933 11.4022 298.222 11.5749C298.511 11.7476 298.836 11.8339 299.195 11.8339ZM307.477 16.7129C306.898 16.7129 306.375 16.5822 305.909 16.3209C305.447 16.0549 305.048 15.6886 304.712 15.2219C304.376 14.7552 304.119 14.2162 303.942 13.6049C303.764 12.9889 303.676 12.3309 303.676 11.6309C303.676 10.9309 303.764 10.2729 303.942 9.65691C304.119 9.04091 304.376 8.50191 304.712 8.03991C305.048 7.57325 305.447 7.20925 305.909 6.94791C306.375 6.68191 306.898 6.54891 307.477 6.54891C308.046 6.54891 308.564 6.68191 309.031 6.94791C309.497 7.20925 309.894 7.57325 310.221 8.03991C310.552 8.50191 310.806 9.04091 310.984 9.65691C311.161 10.2729 311.25 10.9309 311.25 11.6309C311.25 12.3309 311.161 12.9889 310.984 13.6049C310.806 14.2162 310.552 14.7552 310.221 15.2219C309.894 15.6886 309.497 16.0549 309.031 16.3209C308.564 16.5822 308.046 16.7129 307.477 16.7129ZM307.477 15.2569C308.013 15.2569 308.459 15.0889 308.814 14.7529C309.173 14.4122 309.441 13.9666 309.619 13.4159C309.796 12.8652 309.885 12.2702 309.885 11.6309C309.885 10.9589 309.791 10.3499 309.605 9.80391C309.423 9.25325 309.152 8.81691 308.793 8.49491C308.438 8.16825 307.999 8.00491 307.477 8.00491C307.061 8.00491 306.7 8.10291 306.392 8.29891C306.088 8.49491 305.836 8.76325 305.636 9.10391C305.44 9.44458 305.29 9.83191 305.188 10.2659C305.09 10.6999 305.041 11.1549 305.041 11.6309C305.041 12.2702 305.132 12.8652 305.314 13.4159C305.496 13.9666 305.766 14.4122 306.126 14.7529C306.49 15.0889 306.94 15.2569 307.477 15.2569ZM313.267 16.7129C313.052 16.7129 312.87 16.6382 312.721 16.4889C312.576 16.3396 312.504 16.1576 312.504 15.9429C312.504 15.7329 312.576 15.5532 312.721 15.4039C312.87 15.2546 313.052 15.1799 313.267 15.1799C313.482 15.1799 313.664 15.2546 313.813 15.4039C313.962 15.5532 314.037 15.7329 314.037 15.9429C314.037 16.1576 313.962 16.3396 313.813 16.4889C313.664 16.6382 313.482 16.7129 313.267 16.7129ZM319.384 16.7129C318.806 16.7129 318.283 16.5822 317.816 16.3209C317.354 16.0549 316.955 15.6886 316.619 15.2219C316.283 14.7552 316.027 14.2162 315.849 13.6049C315.672 12.9889 315.583 12.3309 315.583 11.6309C315.583 10.9309 315.672 10.2729 315.849 9.65691C316.027 9.04091 316.283 8.50191 316.619 8.03991C316.955 7.57325 317.354 7.20925 317.816 6.94791C318.283 6.68191 318.806 6.54891 319.384 6.54891C319.954 6.54891 320.472 6.68191 320.938 6.94791C321.405 7.20925 321.802 7.57325 322.128 8.03991C322.46 8.50191 322.714 9.04091 322.891 9.65691C323.069 10.2729 323.157 10.9309 323.157 11.6309C323.157 12.3309 323.069 12.9889 322.891 13.6049C322.714 14.2162 322.46 14.7552 322.128 15.2219C321.802 15.6886 321.405 16.0549 320.938 16.3209C320.472 16.5822 319.954 16.7129 319.384 16.7129ZM319.384 15.2569C319.921 15.2569 320.367 15.0889 320.721 14.7529C321.081 14.4122 321.349 13.9666 321.526 13.4159C321.704 12.8652 321.792 12.2702 321.792 11.6309C321.792 10.9589 321.699 10.3499 321.512 9.80391C321.33 9.25325 321.06 8.81691 320.7 8.49491C320.346 8.16825 319.907 8.00491 319.384 8.00491C318.969 8.00491 318.607 8.10291 318.299 8.29891C317.996 8.49491 317.744 8.76325 317.543 9.10391C317.347 9.44458 317.198 9.83191 317.095 10.2659C316.997 10.6999 316.948 11.1549 316.948 11.6309C316.948 12.2702 317.039 12.8652 317.221 13.4159C317.403 13.9666 317.674 14.4122 318.033 14.7529C318.397 15.0889 318.848 15.2569 319.384 15.2569ZM327.813 16.7129C327.234 16.7129 326.711 16.5822 326.245 16.3209C325.783 16.0549 325.384 15.6886 325.048 15.2219C324.712 14.7552 324.455 14.2162 324.278 13.6049C324.1 12.9889 324.012 12.3309 324.012 11.6309C324.012 10.9309 324.1 10.2729 324.278 9.65691C324.455 9.04091 324.712 8.50191 325.048 8.03991C325.384 7.57325 325.783 7.20925 326.245 6.94791C326.711 6.68191 327.234 6.54891 327.813 6.54891C328.382 6.54891 328.9 6.68191 329.367 6.94791C329.833 7.20925 330.23 7.57325 330.557 8.03991C330.888 8.50191 331.142 9.04091 331.32 9.65691C331.497 10.2729 331.586 10.9309 331.586 11.6309C331.586 12.3309 331.497 12.9889 331.32 13.6049C331.142 14.2162 330.888 14.7552 330.557 15.2219C330.23 15.6886 329.833 16.0549 329.367 16.3209C328.9 16.5822 328.382 16.7129 327.813 16.7129ZM327.813 15.2569C328.349 15.2569 328.795 15.0889 329.15 14.7529C329.509 14.4122 329.777 13.9666 329.955 13.4159C330.132 12.8652 330.221 12.2702 330.221 11.6309C330.221 10.9589 330.127 10.3499 329.941 9.80391C329.759 9.25325 329.488 8.81691 329.129 8.49491C328.774 8.16825 328.335 8.00491 327.813 8.00491C327.397 8.00491 327.036 8.10291 326.728 8.29891C326.424 8.49491 326.172 8.76325 325.972 9.10391C325.776 9.44458 325.626 9.83191 325.524 10.2659C325.426 10.6999 325.377 11.1549 325.377 11.6309C325.377 12.2702 325.468 12.8652 325.65 13.4159C325.832 13.9666 326.102 14.4122 326.462 14.7529C326.826 15.0889 327.276 15.2569 327.813 15.2569Z" fill="white"/>
<path d="M298.617 33.9482V31.5722H296.241V30.3242H298.617V27.9482H299.865V30.3242H302.241V31.5722H299.865V33.9482H298.617ZM306.196 34.7042C305.66 34.7042 305.17 34.5722 304.726 34.3082C304.282 34.0402 303.926 33.6842 303.658 33.2402C303.394 32.7922 303.262 32.2982 303.262 31.7582C303.262 31.4702 303.296 31.2102 303.364 30.9782C303.432 30.7462 303.536 30.5022 303.676 30.2462L306.04 26.1482H307.492L305.854 28.9802C306.186 28.9162 306.51 28.9142 306.826 28.9742C307.146 29.0302 307.446 29.1402 307.726 29.3042C308.006 29.4642 308.252 29.6682 308.464 29.9162C308.68 30.1602 308.848 30.4382 308.968 30.7502C309.088 31.0622 309.148 31.3982 309.148 31.7582C309.148 32.1622 309.07 32.5422 308.914 32.8982C308.762 33.2542 308.55 33.5682 308.278 33.8402C308.01 34.1082 307.696 34.3202 307.336 34.4762C306.98 34.6282 306.6 34.7042 306.196 34.7042ZM306.196 33.4562C306.524 33.4562 306.816 33.3762 307.072 33.2162C307.328 33.0562 307.53 32.8462 307.678 32.5862C307.826 32.3262 307.9 32.0502 307.9 31.7582C307.9 31.4502 307.824 31.1682 307.672 30.9122C307.524 30.6562 307.322 30.4522 307.066 30.3002C306.81 30.1442 306.524 30.0662 306.208 30.0662C305.88 30.0662 305.588 30.1462 305.332 30.3062C305.076 30.4662 304.874 30.6742 304.726 30.9302C304.582 31.1862 304.51 31.4622 304.51 31.7582C304.51 32.0822 304.588 32.3722 304.744 32.6282C304.904 32.8842 305.112 33.0862 305.368 33.2342C305.624 33.3822 305.9 33.4562 306.196 33.4562ZM310.887 34.7042C310.703 34.7042 310.547 34.6402 310.419 34.5122C310.295 34.3842 310.233 34.2282 310.233 34.0442C310.233 33.8642 310.295 33.7102 310.419 33.5822C310.547 33.4542 310.703 33.3902 310.887 33.3902C311.071 33.3902 311.227 33.4542 311.355 33.5822C311.483 33.7102 311.547 33.8642 311.547 34.0442C311.547 34.2282 311.483 34.3842 311.355 34.5122C311.227 34.6402 311.071 34.7042 310.887 34.7042ZM312.992 34.5482V33.4382C313.276 33.2022 313.602 32.9282 313.97 32.6162C314.338 32.3002 314.712 31.9662 315.092 31.6142C315.472 31.2582 315.822 30.9042 316.142 30.5522C316.462 30.1962 316.72 29.8602 316.916 29.5442C317.116 29.2242 317.216 28.9462 317.216 28.7102C317.216 28.4422 317.15 28.1982 317.018 27.9782C316.89 27.7542 316.716 27.5762 316.496 27.4442C316.276 27.3082 316.032 27.2402 315.764 27.2402C315.496 27.2402 315.25 27.3082 315.026 27.4442C314.806 27.5762 314.628 27.7542 314.492 27.9782C314.36 28.1982 314.294 28.4422 314.294 28.7102H313.046C313.046 28.2022 313.17 27.7442 313.418 27.3362C313.67 26.9242 314 26.5982 314.408 26.3582C314.82 26.1142 315.272 25.9922 315.764 25.9922C316.26 25.9922 316.712 26.1142 317.12 26.3582C317.528 26.6022 317.854 26.9302 318.098 27.3422C318.342 27.7502 318.464 28.2062 318.464 28.7102C318.464 28.9902 318.406 29.2782 318.29 29.5742C318.174 29.8702 318.012 30.1722 317.804 30.4802C317.6 30.7882 317.362 31.1002 317.09 31.4162C316.818 31.7322 316.526 32.0482 316.214 32.3642C315.902 32.6802 315.584 32.9922 315.26 33.3002H318.536V34.5482H312.992ZM320.972 34.5482V27.3962H319.97L320.312 26.1482H322.22V34.5482H320.972ZM324.562 34.5482L329.41 26.1482H330.85L326.002 34.5482H324.562ZM325.576 29.6702C325.272 29.6702 324.992 29.5962 324.736 29.4482C324.484 29.2962 324.282 29.0942 324.13 28.8422C323.978 28.5862 323.902 28.3042 323.902 27.9962C323.902 27.6762 323.978 27.3902 324.13 27.1382C324.286 26.8862 324.49 26.6882 324.742 26.5442C324.998 26.3962 325.276 26.3222 325.576 26.3222C325.884 26.3222 326.164 26.3982 326.416 26.5502C326.668 26.6982 326.87 26.8982 327.022 27.1502C327.174 27.4022 327.25 27.6842 327.25 27.9962C327.25 28.3122 327.172 28.5962 327.016 28.8482C326.864 29.1002 326.66 29.3002 326.404 29.4482C326.152 29.5962 325.876 29.6702 325.576 29.6702ZM325.576 28.7882C325.8 28.7882 325.988 28.7122 326.14 28.5602C326.292 28.4042 326.368 28.2162 326.368 27.9962C326.368 27.7722 326.292 27.5842 326.14 27.4322C325.988 27.2762 325.8 27.1982 325.576 27.1982C325.356 27.1982 325.168 27.2762 325.012 27.4322C324.86 27.5842 324.784 27.7722 324.784 27.9962C324.784 28.2162 324.86 28.4042 325.012 28.5602C325.168 28.7122 325.356 28.7882 325.576 28.7882ZM329.848 34.3862C329.536 34.3862 329.252 34.3082 328.996 34.1522C328.744 33.9922 328.542 33.7862 328.39 33.5342C328.242 33.2782 328.168 33.0022 328.168 32.7062C328.168 32.3942 328.246 32.1122 328.402 31.8602C328.558 31.6042 328.762 31.4022 329.014 31.2542C329.27 31.1022 329.548 31.0262 329.848 31.0262C330.164 31.0262 330.448 31.1042 330.7 31.2602C330.952 31.4162 331.152 31.6222 331.3 31.8782C331.448 32.1342 331.522 32.4102 331.522 32.7062C331.522 33.0142 331.446 33.2962 331.294 33.5522C331.146 33.8042 330.944 34.0062 330.688 34.1582C330.436 34.3102 330.156 34.3862 329.848 34.3862ZM329.848 33.5042C330.064 33.5042 330.25 33.4262 330.406 33.2702C330.562 33.1142 330.64 32.9262 330.64 32.7062C330.64 32.4862 330.562 32.2982 330.406 32.1422C330.25 31.9862 330.064 31.9082 329.848 31.9082C329.628 31.9082 329.438 31.9862 329.278 32.1422C329.122 32.2982 329.044 32.4862 329.044 32.7062C329.044 32.9262 329.122 33.1142 329.278 33.2702C329.438 33.4262 329.628 33.5042 329.848 33.5042Z" fill="#0AFF96"/>
<path d="M135 31.4498L143.911 33.034C147.41 33.6561 150.9 31.8951 152.478 28.7109L154.442 24.7506C155.702 22.208 158.572 20.8963 161.32 21.6068L172.165 24.4113C175.111 25.1732 178.234 24.1976 180.223 21.8944L189.51 11.1384C191.973 8.28548 196.426 8.38376 198.761 11.3426L213.128 29.5473C214.076 30.7488 215.523 31.4498 217.053 31.4498L235 31.4498" stroke="#0AFF96" stroke-width="2" stroke-linecap="round"/>
<rect x="130" y="11.9593" width="25" height="25.285" fill="url(#paint0_linear_26_175)"/>
<rect width="25" height="25.285" transform="matrix(-1 0 0 1 239 11.9593)" fill="url(#paint1_linear_26_175)"/>
<defs>
<linearGradient id="paint0_linear_26_175" x1="135.5" y1="37.2443" x2="153" y2="37.2443" gradientUnits="userSpaceOnUse">
<stop stop-color="#0F111E"/>
<stop offset="1" stop-color="#0F111E" stop-opacity="0"/>
</linearGradient>
<linearGradient id="paint1_linear_26_175" x1="5.5" y1="25.285" x2="23" y2="25.285" gradientUnits="userSpaceOnUse">
<stop stop-color="#0F111E"/>
<stop offset="1" stop-color="#0F111E" stop-opacity="0"/>
</linearGradient>
<clipPath id="clip0_26_175">
<rect width="33.75" height="33.75" fill="white" transform="translate(5.61328 7.58742)"/>
</clipPath>
</defs>
</svg>
