<svg width="332" height="50" viewBox="0 0 332 50" fill="none" xmlns="http://www.w3.org/2000/svg">
<rect x="-6.10352e-05" y="0.75769" width="45" height="46" rx="22.5" fill="#CFFFF3"/>
<rect x="6.49994" y="7.75769" width="32" height="32" rx="16" fill="#CFFFF3"/>
<g clip-path="url(#clip0_26_200)">
<path d="M34.1396 26.6605C32.5369 33.0892 26.0257 37.0015 19.5963 35.3984C13.1696 33.7957 9.25727 27.2842 10.8607 20.8561C12.4626 14.4267 18.9738 10.5141 25.4012 12.1168C31.8301 13.7195 35.7423 20.2317 34.1394 26.6607L34.1395 26.6605H34.1396Z" fill="#CFFFF3"/>
<g clip-path="url(#clip1_26_200)">
<path d="M18.5724 26.39C18.6494 26.313 18.7553 26.2681 18.8676 26.2681H29.0504C29.2365 26.2681 29.3296 26.4927 29.198 26.6242L27.1865 28.6358C27.1095 28.7128 27.0036 28.7577 26.8913 28.7577H16.7084C16.5224 28.7577 16.4293 28.5331 16.5609 28.4016L18.5724 26.39Z" fill="url(#paint0_linear_26_200)"/>
<path d="M18.5724 18.8796C18.6526 18.8026 18.7585 18.7577 18.8676 18.7577H29.0504C29.2365 18.7577 29.3296 18.9823 29.198 19.1138L27.1865 21.1254C27.1095 21.2023 27.0036 21.2473 26.8913 21.2473H16.7084C16.5224 21.2473 16.4293 21.0227 16.5609 20.8912L18.5724 18.8796Z" fill="url(#paint1_linear_26_200)"/>
<path d="M27.1865 22.6108C27.1095 22.5338 27.0036 22.4889 26.8913 22.4889H16.7084C16.5224 22.4889 16.4293 22.7134 16.5609 22.845L18.5724 24.8565C18.6494 24.9335 18.7553 24.9784 18.8676 24.9784H29.0504C29.2365 24.9784 29.3296 24.7539 29.198 24.6223L27.1865 22.6108Z" fill="url(#paint2_linear_26_200)"/>
</g>
</g>
<path d="M61.992 25.9846C61.3733 25.9846 60.7786 25.8886 60.208 25.6966C59.6426 25.4993 59.1466 25.2193 58.72 24.8566C58.2933 24.4886 57.9866 24.0486 57.8 23.5366L59.632 22.8646C59.7066 23.0779 59.8586 23.2726 60.088 23.4486C60.3173 23.6246 60.5973 23.7659 60.928 23.8726C61.2586 23.9793 61.6133 24.0326 61.992 24.0326C62.3813 24.0326 62.744 23.9739 63.08 23.8566C63.4213 23.7339 63.696 23.5659 63.904 23.3526C64.112 23.1339 64.216 22.8806 64.216 22.5926C64.216 22.2993 64.1066 22.0593 63.888 21.8726C63.6693 21.6806 63.3893 21.5286 63.048 21.4166C62.7066 21.3046 62.3546 21.2193 61.992 21.1606C61.1973 21.0379 60.4853 20.8486 59.856 20.5926C59.2266 20.3366 58.728 19.9819 58.36 19.5286C57.9973 19.0753 57.816 18.4886 57.816 17.7686C57.816 17.0913 58.0106 16.4993 58.4 15.9926C58.7893 15.4859 59.3013 15.0913 59.936 14.8086C60.5706 14.5259 61.256 14.3846 61.992 14.3846C62.6053 14.3846 63.1973 14.4806 63.768 14.6726C64.3386 14.8646 64.8373 15.1446 65.264 15.5126C65.696 15.8806 66.0053 16.3233 66.192 16.8406L64.352 17.5046C64.2773 17.2913 64.1253 17.0966 63.896 16.9206C63.6666 16.7446 63.3866 16.6059 63.056 16.5046C62.7253 16.3979 62.3706 16.3446 61.992 16.3446C61.6133 16.3393 61.2533 16.4006 60.912 16.5286C60.576 16.6513 60.3013 16.8193 60.088 17.0326C59.8746 17.2459 59.768 17.4913 59.768 17.7686C59.768 18.1259 59.8666 18.3953 60.064 18.5766C60.2666 18.7579 60.536 18.8913 60.872 18.9766C61.208 19.0566 61.5813 19.1313 61.992 19.2006C62.7386 19.3179 63.4293 19.5153 64.064 19.7926C64.6986 20.0699 65.208 20.4406 65.592 20.9046C65.976 21.3633 66.168 21.9259 66.168 22.5926C66.168 23.2699 65.976 23.8646 65.592 24.3766C65.208 24.8833 64.6986 25.2779 64.064 25.5606C63.4293 25.8433 62.7386 25.9846 61.992 25.9846ZM73.2768 25.9846C72.5195 25.9846 71.8075 25.8353 71.1408 25.5366C70.4742 25.2326 69.8875 24.8139 69.3808 24.2806C68.8742 23.7473 68.4768 23.1313 68.1888 22.4326C67.9008 21.7286 67.7568 20.9766 67.7568 20.1766C67.7568 19.3766 67.9008 18.6273 68.1888 17.9286C68.4768 17.2246 68.8742 16.6059 69.3808 16.0726C69.8875 15.5393 70.4742 15.1233 71.1408 14.8246C71.8075 14.5206 72.5195 14.3686 73.2768 14.3686C74.0395 14.3686 74.7542 14.5206 75.4208 14.8246C76.0875 15.1233 76.6742 15.5393 77.1808 16.0726C77.6875 16.6059 78.0822 17.2246 78.3648 17.9286C78.6528 18.6273 78.7968 19.3766 78.7968 20.1766C78.7968 20.9766 78.6528 21.7286 78.3648 22.4326C78.0822 23.1313 77.6875 23.7473 77.1808 24.2806C76.6742 24.8139 76.0875 25.2326 75.4208 25.5366C74.7542 25.8353 74.0395 25.9846 73.2768 25.9846ZM73.2768 24.0326C73.7675 24.0326 74.2288 23.9313 74.6608 23.7286C75.0928 23.5259 75.4715 23.2486 75.7968 22.8966C76.1275 22.5393 76.3835 22.1286 76.5648 21.6646C76.7515 21.2006 76.8448 20.7046 76.8448 20.1766C76.8448 19.6486 76.7515 19.1526 76.5648 18.6886C76.3782 18.2193 76.1195 17.8086 75.7888 17.4566C75.4635 17.1046 75.0848 16.8273 74.6528 16.6246C74.2262 16.4219 73.7675 16.3206 73.2768 16.3206C72.7862 16.3206 72.3248 16.4219 71.8928 16.6246C71.4608 16.8273 71.0795 17.1073 70.7488 17.4646C70.4235 17.8166 70.1675 18.2246 69.9808 18.6886C69.7995 19.1526 69.7088 19.6486 69.7088 20.1766C69.7088 20.7099 69.8022 21.2086 69.9888 21.6726C70.1755 22.1366 70.4315 22.5473 70.7568 22.9046C71.0875 23.2566 71.4662 23.5339 71.8928 23.7366C72.3248 23.9339 72.7862 24.0326 73.2768 24.0326ZM80.5687 25.7766V14.5766H82.5207V23.8246H87.1847V25.7766H80.5687Z" fill="white"/>
<path d="M60.678 46.1641C60.226 46.1641 59.79 46.0941 59.37 45.9541C58.95 45.8101 58.582 45.6061 58.266 45.3421C57.954 45.0781 57.732 44.7641 57.6 44.4001L58.542 44.0461C58.622 44.2701 58.77 44.4661 58.986 44.6341C59.206 44.7981 59.464 44.9261 59.76 45.0181C60.056 45.1101 60.362 45.1561 60.678 45.1561C61.038 45.1561 61.372 45.0981 61.68 44.9821C61.992 44.8621 62.244 44.6961 62.436 44.4841C62.628 44.2721 62.724 44.0241 62.724 43.7401C62.724 43.4481 62.624 43.2101 62.424 43.0261C62.224 42.8381 61.968 42.6901 61.656 42.5821C61.344 42.4701 61.018 42.3841 60.678 42.3241C60.098 42.2281 59.578 42.0921 59.118 41.9161C58.662 41.7361 58.3 41.4861 58.032 41.1661C57.768 40.8461 57.636 40.4241 57.636 39.9001C57.636 39.4121 57.776 38.9861 58.056 38.6221C58.34 38.2581 58.714 37.9761 59.178 37.7761C59.642 37.5761 60.142 37.4761 60.678 37.4761C61.122 37.4761 61.552 37.5461 61.968 37.6861C62.388 37.8221 62.758 38.0221 63.078 38.2861C63.398 38.5501 63.628 38.8721 63.768 39.2521L62.814 39.6001C62.734 39.3721 62.584 39.1761 62.364 39.0121C62.148 38.8441 61.892 38.7161 61.596 38.6281C61.304 38.5361 60.998 38.4901 60.678 38.4901C60.322 38.4861 59.99 38.5441 59.682 38.6641C59.374 38.7841 59.124 38.9501 58.932 39.1621C58.74 39.3741 58.644 39.6201 58.644 39.9001C58.644 40.2361 58.732 40.4941 58.908 40.6741C59.088 40.8501 59.332 40.9821 59.64 41.0701C59.948 41.1581 60.294 41.2361 60.678 41.3041C61.222 41.3961 61.726 41.5421 62.19 41.7421C62.654 41.9381 63.026 42.2001 63.306 42.5281C63.59 42.8561 63.732 43.2601 63.732 43.7401C63.732 44.2281 63.59 44.6541 63.306 45.0181C63.026 45.3821 62.654 45.6641 62.19 45.8641C61.726 46.0641 61.222 46.1641 60.678 46.1641ZM67.8656 46.1641C67.3136 46.1641 66.8096 46.0221 66.3536 45.7381C65.9016 45.4541 65.5396 45.0741 65.2676 44.5981C64.9996 44.1181 64.8656 43.5881 64.8656 43.0081C64.8656 42.5681 64.9436 42.1581 65.0996 41.7781C65.2556 41.3941 65.4696 41.0581 65.7416 40.7701C66.0176 40.4781 66.3376 40.2501 66.7016 40.0861C67.0656 39.9221 67.4536 39.8401 67.8656 39.8401C68.4176 39.8401 68.9196 39.9821 69.3716 40.2661C69.8276 40.5501 70.1896 40.9321 70.4576 41.4121C70.7296 41.8921 70.8656 42.4241 70.8656 43.0081C70.8656 43.4441 70.7876 43.8521 70.6316 44.2321C70.4756 44.6121 70.2596 44.9481 69.9836 45.2401C69.7116 45.5281 69.3936 45.7541 69.0296 45.9181C68.6696 46.0821 68.2816 46.1641 67.8656 46.1641ZM67.8656 45.1561C68.2416 45.1561 68.5796 45.0581 68.8796 44.8621C69.1836 44.6621 69.4216 44.4001 69.5936 44.0761C69.7696 43.7481 69.8576 43.3921 69.8576 43.0081C69.8576 42.6161 69.7676 42.2561 69.5876 41.9281C69.4116 41.6001 69.1736 41.3381 68.8736 41.1421C68.5736 40.9461 68.2376 40.8481 67.8656 40.8481C67.4896 40.8481 67.1516 40.9481 66.8516 41.1481C66.5516 41.3441 66.3136 41.6061 66.1376 41.9341C65.9616 42.2621 65.8736 42.6201 65.8736 43.0081C65.8736 43.4081 65.9636 43.7721 66.1436 44.1001C66.3236 44.4241 66.5656 44.6821 66.8696 44.8741C67.1736 45.0621 67.5056 45.1561 67.8656 45.1561ZM72.0398 46.0081V37.0081H73.0478V46.0081H72.0398ZM77.3104 46.1641C76.7584 46.1641 76.2544 46.0221 75.7984 45.7381C75.3464 45.4541 74.9844 45.0741 74.7124 44.5981C74.4444 44.1181 74.3104 43.5881 74.3104 43.0081C74.3104 42.5681 74.3884 42.1581 74.5444 41.7781C74.7004 41.3941 74.9144 41.0581 75.1864 40.7701C75.4624 40.4781 75.7824 40.2501 76.1464 40.0861C76.5104 39.9221 76.8984 39.8401 77.3104 39.8401C77.8624 39.8401 78.3644 39.9821 78.8164 40.2661C79.2724 40.5501 79.6344 40.9321 79.9024 41.4121C80.1744 41.8921 80.3104 42.4241 80.3104 43.0081C80.3104 43.4441 80.2324 43.8521 80.0764 44.2321C79.9204 44.6121 79.7044 44.9481 79.4284 45.2401C79.1564 45.5281 78.8384 45.7541 78.4744 45.9181C78.1144 46.0821 77.7264 46.1641 77.3104 46.1641ZM77.3104 45.1561C77.6864 45.1561 78.0244 45.0581 78.3244 44.8621C78.6284 44.6621 78.8664 44.4001 79.0384 44.0761C79.2144 43.7481 79.3024 43.3921 79.3024 43.0081C79.3024 42.6161 79.2124 42.2561 79.0324 41.9281C78.8564 41.6001 78.6184 41.3381 78.3184 41.1421C78.0184 40.9461 77.6824 40.8481 77.3104 40.8481C76.9344 40.8481 76.5964 40.9481 76.2964 41.1481C75.9964 41.3441 75.7584 41.6061 75.5824 41.9341C75.4064 42.2621 75.3184 42.6201 75.3184 43.0081C75.3184 43.4081 75.4084 43.7721 75.5884 44.1001C75.7684 44.4241 76.0104 44.6821 76.3144 44.8741C76.6184 45.0621 76.9504 45.1561 77.3104 45.1561ZM86.8473 42.2761V46.0081H85.8392V42.4981C85.8392 42.1941 85.7652 41.9181 85.6172 41.6701C85.4692 41.4221 85.2713 41.2261 85.0233 41.0821C84.7752 40.9341 84.4992 40.8601 84.1953 40.8601C83.8952 40.8601 83.6192 40.9341 83.3672 41.0821C83.1192 41.2261 82.9212 41.4221 82.7732 41.6701C82.6252 41.9181 82.5512 42.1941 82.5512 42.4981V46.0081H81.5432V40.0081H82.5512V40.7581C82.7632 40.4781 83.0312 40.2561 83.3552 40.0921C83.6792 39.9241 84.0312 39.8401 84.4113 39.8401C84.8593 39.8401 85.2673 39.9501 85.6353 40.1701C86.0073 40.3861 86.3013 40.6781 86.5173 41.0461C86.7373 41.4141 86.8473 41.8241 86.8473 42.2761ZM92.994 40.0081H94.002V46.0081H92.994L92.952 44.9941C92.764 45.3421 92.504 45.6241 92.172 45.8401C91.844 46.0561 91.452 46.1641 90.996 46.1641C90.556 46.1641 90.144 46.0821 89.76 45.9181C89.376 45.7501 89.036 45.5201 88.74 45.2281C88.448 44.9321 88.22 44.5921 88.056 44.2081C87.892 43.8241 87.81 43.4101 87.81 42.9661C87.81 42.5381 87.89 42.1341 88.05 41.7541C88.21 41.3741 88.432 41.0421 88.716 40.7581C89.004 40.4701 89.336 40.2461 89.712 40.0861C90.088 39.9221 90.492 39.8401 90.924 39.8401C91.396 39.8401 91.81 39.9521 92.166 40.1761C92.522 40.3961 92.81 40.6821 93.03 41.0341L92.994 40.0081ZM90.978 45.1861C91.374 45.1861 91.716 45.0901 92.004 44.8981C92.296 44.7021 92.52 44.4381 92.676 44.1061C92.836 43.7741 92.916 43.4081 92.916 43.0081C92.916 42.6001 92.836 42.2321 92.676 41.9041C92.516 41.5721 92.29 41.3101 91.998 41.1181C91.71 40.9221 91.37 40.8241 90.978 40.8241C90.582 40.8241 90.222 40.9221 89.898 41.1181C89.574 41.3141 89.316 41.5781 89.124 41.9101C88.936 42.2381 88.842 42.6041 88.842 43.0081C88.842 43.4121 88.94 43.7801 89.136 44.1121C89.332 44.4401 89.592 44.7021 89.916 44.8981C90.24 45.0901 90.594 45.1861 90.978 45.1861Z" fill="#A0A0A0"/>
<path d="M283.585 17.3857C283.212 17.381 282.862 17.4417 282.535 17.5677C282.213 17.689 281.95 17.857 281.744 18.0717C281.539 18.2864 281.436 18.536 281.436 18.8207C281.436 19.1707 281.532 19.4367 281.723 19.6187C281.915 19.8007 282.171 19.936 282.493 20.0247C282.82 20.1087 283.184 20.1857 283.585 20.2557C284.229 20.3584 284.824 20.5287 285.37 20.7667C285.921 21.0047 286.362 21.322 286.693 21.7187C287.029 22.1107 287.197 22.5937 287.197 23.1677C287.197 23.695 287.057 24.164 286.777 24.5747C286.497 24.9807 286.122 25.3097 285.65 25.5617C285.184 25.809 284.668 25.9654 284.103 26.0307V27.4517H283.074V26.0307C282.603 25.984 282.155 25.872 281.73 25.6947C281.31 25.5174 280.944 25.2817 280.631 24.9877C280.319 24.6937 280.092 24.353 279.952 23.9657L281.317 23.4547C281.397 23.6787 281.548 23.8794 281.772 24.0567C282.001 24.2294 282.272 24.3647 282.584 24.4627C282.902 24.5607 283.235 24.6097 283.585 24.6097C283.959 24.6097 284.309 24.549 284.635 24.4277C284.967 24.3064 285.233 24.1384 285.433 23.9237C285.639 23.709 285.741 23.457 285.741 23.1677C285.741 22.869 285.634 22.624 285.419 22.4327C285.209 22.2414 284.939 22.0897 284.607 21.9777C284.281 21.8657 283.94 21.7817 283.585 21.7257C282.899 21.6137 282.283 21.4504 281.737 21.2357C281.196 21.021 280.767 20.72 280.449 20.3327C280.137 19.9454 279.98 19.4414 279.98 18.8207C279.98 18.2934 280.12 17.8244 280.4 17.4137C280.68 17.003 281.054 16.674 281.52 16.4267C281.992 16.1747 282.51 16.0184 283.074 15.9577V14.5157H284.103V15.9577C284.561 16.0044 284.999 16.1164 285.419 16.2937C285.844 16.471 286.215 16.7067 286.532 17.0007C286.85 17.29 287.081 17.6354 287.225 18.0367L285.846 18.5337C285.767 18.305 285.615 18.1067 285.391 17.9387C285.167 17.766 284.897 17.6307 284.579 17.5327C284.267 17.4347 283.935 17.3857 283.585 17.3857ZM291.595 26.0657C291.002 26.0657 290.47 25.928 289.999 25.6527C289.532 25.3774 289.163 25.0087 288.893 24.5467C288.622 24.0847 288.487 23.5714 288.487 23.0067H289.943C289.943 23.3007 290.013 23.569 290.153 23.8117C290.293 24.0544 290.486 24.248 290.734 24.3927C290.981 24.5374 291.268 24.6097 291.595 24.6097C291.889 24.6097 292.162 24.5374 292.414 24.3927C292.666 24.248 292.869 24.0544 293.023 23.8117C293.177 23.569 293.254 23.3007 293.254 23.0067C293.254 22.6334 293.156 22.3207 292.96 22.0687C292.764 21.8167 292.491 21.63 292.141 21.5087C291.795 21.3827 291.396 21.3197 290.944 21.3197V20.1717C291.56 20.1717 292.052 20.0504 292.421 19.8077C292.789 19.565 292.974 19.2034 292.974 18.7227C292.974 18.4707 292.906 18.242 292.771 18.0367C292.64 17.8267 292.465 17.661 292.246 17.5397C292.031 17.4137 291.8 17.3507 291.553 17.3507C291.296 17.3507 291.049 17.4137 290.811 17.5397C290.577 17.661 290.386 17.8267 290.237 18.0367C290.087 18.242 290.013 18.4707 290.013 18.7227H288.557C288.557 18.3354 288.636 17.9714 288.795 17.6307C288.958 17.2854 289.177 16.9844 289.453 16.7277C289.733 16.4664 290.05 16.2634 290.405 16.1187C290.764 15.9694 291.14 15.8947 291.532 15.8947C292.045 15.8947 292.521 16.023 292.96 16.2797C293.403 16.5317 293.758 16.8724 294.024 17.3017C294.294 17.7264 294.43 18.2 294.43 18.7227C294.43 19.138 294.327 19.5324 294.122 19.9057C293.921 20.2744 293.641 20.5357 293.282 20.6897C293.594 20.8017 293.856 20.979 294.066 21.2217C294.28 21.4597 294.441 21.735 294.549 22.0477C294.656 22.3557 294.71 22.6754 294.71 23.0067C294.71 23.5667 294.567 24.08 294.283 24.5467C293.998 25.0087 293.618 25.3774 293.142 25.6527C292.67 25.928 292.155 26.0657 291.595 26.0657ZM297.592 25.8837L299.573 22.4537C299.102 22.5424 298.642 22.5237 298.194 22.3977C297.751 22.267 297.352 22.0547 296.997 21.7607C296.642 21.462 296.36 21.1004 296.15 20.6757C295.94 20.251 295.835 19.7844 295.835 19.2757C295.835 18.8137 295.921 18.3797 296.094 17.9737C296.271 17.563 296.514 17.2037 296.822 16.8957C297.13 16.583 297.487 16.3404 297.893 16.1677C298.304 15.9904 298.742 15.9017 299.209 15.9017C299.82 15.9017 300.38 16.0534 300.889 16.3567C301.398 16.66 301.804 17.0684 302.107 17.5817C302.41 18.0904 302.562 18.655 302.562 19.2757C302.562 19.5977 302.522 19.8917 302.443 20.1577C302.368 20.4237 302.249 20.7037 302.086 20.9977L299.279 25.8837H297.592ZM299.195 21.1867C299.568 21.1867 299.9 21.098 300.189 20.9207C300.478 20.7387 300.705 20.503 300.868 20.2137C301.036 19.9197 301.12 19.6047 301.12 19.2687C301.12 18.9047 301.031 18.578 300.854 18.2887C300.677 17.9994 300.441 17.7707 300.147 17.6027C299.858 17.4347 299.545 17.3507 299.209 17.3507C298.836 17.3507 298.504 17.4417 298.215 17.6237C297.926 17.8057 297.697 18.0437 297.529 18.3377C297.361 18.627 297.277 18.9374 297.277 19.2687C297.277 19.6187 297.361 19.9407 297.529 20.2347C297.702 20.524 297.933 20.755 298.222 20.9277C298.511 21.1004 298.836 21.1867 299.195 21.1867ZM307.477 26.0657C306.898 26.0657 306.375 25.935 305.909 25.6737C305.447 25.4077 305.048 25.0414 304.712 24.5747C304.376 24.108 304.119 23.569 303.942 22.9577C303.764 22.3417 303.676 21.6837 303.676 20.9837C303.676 20.2837 303.764 19.6257 303.942 19.0097C304.119 18.3937 304.376 17.8547 304.712 17.3927C305.048 16.926 305.447 16.562 305.909 16.3007C306.375 16.0347 306.898 15.9017 307.477 15.9017C308.046 15.9017 308.564 16.0347 309.031 16.3007C309.497 16.562 309.894 16.926 310.221 17.3927C310.552 17.8547 310.806 18.3937 310.984 19.0097C311.161 19.6257 311.25 20.2837 311.25 20.9837C311.25 21.6837 311.161 22.3417 310.984 22.9577C310.806 23.569 310.552 24.108 310.221 24.5747C309.894 25.0414 309.497 25.4077 309.031 25.6737C308.564 25.935 308.046 26.0657 307.477 26.0657ZM307.477 24.6097C308.013 24.6097 308.459 24.4417 308.814 24.1057C309.173 23.765 309.441 23.3194 309.619 22.7687C309.796 22.218 309.885 21.623 309.885 20.9837C309.885 20.3117 309.791 19.7027 309.605 19.1567C309.423 18.606 309.152 18.1697 308.793 17.8477C308.438 17.521 307.999 17.3577 307.477 17.3577C307.061 17.3577 306.7 17.4557 306.392 17.6517C306.088 17.8477 305.836 18.116 305.636 18.4567C305.44 18.7974 305.29 19.1847 305.188 19.6187C305.09 20.0527 305.041 20.5077 305.041 20.9837C305.041 21.623 305.132 22.218 305.314 22.7687C305.496 23.3194 305.766 23.765 306.126 24.1057C306.49 24.4417 306.94 24.6097 307.477 24.6097ZM313.267 26.0657C313.052 26.0657 312.87 25.991 312.721 25.8417C312.576 25.6924 312.504 25.5104 312.504 25.2957C312.504 25.0857 312.576 24.906 312.721 24.7567C312.87 24.6074 313.052 24.5327 313.267 24.5327C313.482 24.5327 313.664 24.6074 313.813 24.7567C313.962 24.906 314.037 25.0857 314.037 25.2957C314.037 25.5104 313.962 25.6924 313.813 25.8417C313.664 25.991 313.482 26.0657 313.267 26.0657ZM319.384 26.0657C318.806 26.0657 318.283 25.935 317.816 25.6737C317.354 25.4077 316.955 25.0414 316.619 24.5747C316.283 24.108 316.027 23.569 315.849 22.9577C315.672 22.3417 315.583 21.6837 315.583 20.9837C315.583 20.2837 315.672 19.6257 315.849 19.0097C316.027 18.3937 316.283 17.8547 316.619 17.3927C316.955 16.926 317.354 16.562 317.816 16.3007C318.283 16.0347 318.806 15.9017 319.384 15.9017C319.954 15.9017 320.472 16.0347 320.938 16.3007C321.405 16.562 321.802 16.926 322.128 17.3927C322.46 17.8547 322.714 18.3937 322.891 19.0097C323.069 19.6257 323.157 20.2837 323.157 20.9837C323.157 21.6837 323.069 22.3417 322.891 22.9577C322.714 23.569 322.46 24.108 322.128 24.5747C321.802 25.0414 321.405 25.4077 320.938 25.6737C320.472 25.935 319.954 26.0657 319.384 26.0657ZM319.384 24.6097C319.921 24.6097 320.367 24.4417 320.721 24.1057C321.081 23.765 321.349 23.3194 321.526 22.7687C321.704 22.218 321.792 21.623 321.792 20.9837C321.792 20.3117 321.699 19.7027 321.512 19.1567C321.33 18.606 321.06 18.1697 320.7 17.8477C320.346 17.521 319.907 17.3577 319.384 17.3577C318.969 17.3577 318.607 17.4557 318.299 17.6517C317.996 17.8477 317.744 18.116 317.543 18.4567C317.347 18.7974 317.198 19.1847 317.095 19.6187C316.997 20.0527 316.948 20.5077 316.948 20.9837C316.948 21.623 317.039 22.218 317.221 22.7687C317.403 23.3194 317.674 23.765 318.033 24.1057C318.397 24.4417 318.848 24.6097 319.384 24.6097ZM327.813 26.0657C327.234 26.0657 326.711 25.935 326.245 25.6737C325.783 25.4077 325.384 25.0414 325.048 24.5747C324.712 24.108 324.455 23.569 324.278 22.9577C324.1 22.3417 324.012 21.6837 324.012 20.9837C324.012 20.2837 324.1 19.6257 324.278 19.0097C324.455 18.3937 324.712 17.8547 325.048 17.3927C325.384 16.926 325.783 16.562 326.245 16.3007C326.711 16.0347 327.234 15.9017 327.813 15.9017C328.382 15.9017 328.9 16.0347 329.367 16.3007C329.833 16.562 330.23 16.926 330.557 17.3927C330.888 17.8547 331.142 18.3937 331.32 19.0097C331.497 19.6257 331.586 20.2837 331.586 20.9837C331.586 21.6837 331.497 22.3417 331.32 22.9577C331.142 23.569 330.888 24.108 330.557 24.5747C330.23 25.0414 329.833 25.4077 329.367 25.6737C328.9 25.935 328.382 26.0657 327.813 26.0657ZM327.813 24.6097C328.349 24.6097 328.795 24.4417 329.15 24.1057C329.509 23.765 329.777 23.3194 329.955 22.7687C330.132 22.218 330.221 21.623 330.221 20.9837C330.221 20.3117 330.127 19.7027 329.941 19.1567C329.759 18.606 329.488 18.1697 329.129 17.8477C328.774 17.521 328.335 17.3577 327.813 17.3577C327.397 17.3577 327.036 17.4557 326.728 17.6517C326.424 17.8477 326.172 18.116 325.972 18.4567C325.776 18.7974 325.626 19.1847 325.524 19.6187C325.426 20.0527 325.377 20.5077 325.377 20.9837C325.377 21.623 325.468 22.218 325.65 22.7687C325.832 23.3194 326.102 23.765 326.462 24.1057C326.826 24.4417 327.276 24.6097 327.813 24.6097Z" fill="white"/>
<path d="M298.429 43.301V40.925H296.053V39.677H298.429V37.301H299.677V39.677H302.053V40.925H299.677V43.301H298.429ZM303.254 43.901V42.791C303.538 42.555 303.864 42.281 304.232 41.969C304.6 41.653 304.974 41.319 305.354 40.967C305.734 40.611 306.084 40.257 306.404 39.905C306.724 39.549 306.982 39.213 307.178 38.897C307.378 38.577 307.478 38.299 307.478 38.063C307.478 37.795 307.412 37.551 307.28 37.331C307.152 37.107 306.978 36.929 306.758 36.797C306.538 36.661 306.294 36.593 306.026 36.593C305.758 36.593 305.512 36.661 305.288 36.797C305.068 36.929 304.89 37.107 304.754 37.331C304.622 37.551 304.556 37.795 304.556 38.063H303.308C303.308 37.555 303.432 37.097 303.68 36.689C303.932 36.277 304.262 35.951 304.67 35.711C305.082 35.467 305.534 35.345 306.026 35.345C306.522 35.345 306.974 35.467 307.382 35.711C307.79 35.955 308.116 36.283 308.36 36.695C308.604 37.103 308.726 37.559 308.726 38.063C308.726 38.343 308.668 38.631 308.552 38.927C308.436 39.223 308.274 39.525 308.066 39.833C307.862 40.141 307.624 40.453 307.352 40.769C307.08 41.085 306.788 41.401 306.476 41.717C306.164 42.033 305.846 42.345 305.522 42.653H308.798V43.901H303.254ZM310.887 44.057C310.703 44.057 310.547 43.993 310.419 43.865C310.295 43.737 310.233 43.581 310.233 43.397C310.233 43.217 310.295 43.063 310.419 42.935C310.547 42.807 310.703 42.743 310.887 42.743C311.071 42.743 311.227 42.807 311.355 42.935C311.483 43.063 311.547 43.217 311.547 43.397C311.547 43.581 311.483 43.737 311.355 43.865C311.227 43.993 311.071 44.057 310.887 44.057ZM312.992 43.901V42.791C313.276 42.555 313.602 42.281 313.97 41.969C314.338 41.653 314.712 41.319 315.092 40.967C315.472 40.611 315.822 40.257 316.142 39.905C316.462 39.549 316.72 39.213 316.916 38.897C317.116 38.577 317.216 38.299 317.216 38.063C317.216 37.795 317.15 37.551 317.018 37.331C316.89 37.107 316.716 36.929 316.496 36.797C316.276 36.661 316.032 36.593 315.764 36.593C315.496 36.593 315.25 36.661 315.026 36.797C314.806 36.929 314.628 37.107 314.492 37.331C314.36 37.551 314.294 37.795 314.294 38.063H313.046C313.046 37.555 313.17 37.097 313.418 36.689C313.67 36.277 314 35.951 314.408 35.711C314.82 35.467 315.272 35.345 315.764 35.345C316.26 35.345 316.712 35.467 317.12 35.711C317.528 35.955 317.854 36.283 318.098 36.695C318.342 37.103 318.464 37.559 318.464 38.063C318.464 38.343 318.406 38.631 318.29 38.927C318.174 39.223 318.012 39.525 317.804 39.833C317.6 40.141 317.362 40.453 317.09 40.769C316.818 41.085 316.526 41.401 316.214 41.717C315.902 42.033 315.584 42.345 315.26 42.653H318.536V43.901H312.992ZM320.972 43.901V36.749H319.97L320.312 35.501H322.22V43.901H320.972ZM324.562 43.901L329.41 35.501H330.85L326.002 43.901H324.562ZM325.576 39.023C325.272 39.023 324.992 38.949 324.736 38.801C324.484 38.649 324.282 38.447 324.13 38.195C323.978 37.939 323.902 37.657 323.902 37.349C323.902 37.029 323.978 36.743 324.13 36.491C324.286 36.239 324.49 36.041 324.742 35.897C324.998 35.749 325.276 35.675 325.576 35.675C325.884 35.675 326.164 35.751 326.416 35.903C326.668 36.051 326.87 36.251 327.022 36.503C327.174 36.755 327.25 37.037 327.25 37.349C327.25 37.665 327.172 37.949 327.016 38.201C326.864 38.453 326.66 38.653 326.404 38.801C326.152 38.949 325.876 39.023 325.576 39.023ZM325.576 38.141C325.8 38.141 325.988 38.065 326.14 37.913C326.292 37.757 326.368 37.569 326.368 37.349C326.368 37.125 326.292 36.937 326.14 36.785C325.988 36.629 325.8 36.551 325.576 36.551C325.356 36.551 325.168 36.629 325.012 36.785C324.86 36.937 324.784 37.125 324.784 37.349C324.784 37.569 324.86 37.757 325.012 37.913C325.168 38.065 325.356 38.141 325.576 38.141ZM329.848 43.739C329.536 43.739 329.252 43.661 328.996 43.505C328.744 43.345 328.542 43.139 328.39 42.887C328.242 42.631 328.168 42.355 328.168 42.059C328.168 41.747 328.246 41.465 328.402 41.213C328.558 40.957 328.762 40.755 329.014 40.607C329.27 40.455 329.548 40.379 329.848 40.379C330.164 40.379 330.448 40.457 330.7 40.613C330.952 40.769 331.152 40.975 331.3 41.231C331.448 41.487 331.522 41.763 331.522 42.059C331.522 42.367 331.446 42.649 331.294 42.905C331.146 43.157 330.944 43.359 330.688 43.511C330.436 43.663 330.156 43.739 329.848 43.739ZM329.848 42.857C330.064 42.857 330.25 42.779 330.406 42.623C330.562 42.467 330.64 42.279 330.64 42.059C330.64 41.839 330.562 41.651 330.406 41.495C330.25 41.339 330.064 41.261 329.848 41.261C329.628 41.261 329.438 41.339 329.278 41.495C329.122 41.651 329.044 41.839 329.044 42.059C329.044 42.279 329.122 42.467 329.278 42.623C329.438 42.779 329.628 42.857 329.848 42.857Z" fill="#FF002E"/>
<path d="M135 17.6247L143.911 16.0405C147.41 15.4184 150.9 17.1793 152.478 20.3635L154.442 24.3238C155.702 26.8665 158.572 28.1782 161.32 27.4676L172.165 24.6632C175.111 23.9013 178.234 24.8768 180.223 27.1801L189.51 37.9361C191.973 40.789 196.426 40.6907 198.761 37.7319L213.128 19.5271C214.076 18.3257 215.523 17.6247 217.053 17.6247L235 17.6247" stroke="#FF002E" stroke-width="2" stroke-linecap="round"/>
<rect x="130" y="10.7766" width="25" height="25.285" fill="url(#paint3_linear_26_200)"/>
<rect width="25" height="25.285" transform="matrix(-1 0 0 1 239 10.7766)" fill="url(#paint4_linear_26_200)"/>
<defs>
<linearGradient id="paint0_linear_26_200" x1="28.0777" y1="17.556" x2="21.0303" y2="31.0545" gradientUnits="userSpaceOnUse">
<stop stop-color="#00FFA3"/>
<stop offset="1" stop-color="#DC1FFF"/>
</linearGradient>
<linearGradient id="paint1_linear_26_200" x1="24.9962" y1="15.9473" x2="17.9488" y2="29.4458" gradientUnits="userSpaceOnUse">
<stop stop-color="#00FFA3"/>
<stop offset="1" stop-color="#DC1FFF"/>
</linearGradient>
<linearGradient id="paint2_linear_26_200" x1="26.5271" y1="16.7465" x2="19.4798" y2="30.2451" gradientUnits="userSpaceOnUse">
<stop stop-color="#00FFA3"/>
<stop offset="1" stop-color="#DC1FFF"/>
</linearGradient>
<linearGradient id="paint3_linear_26_200" x1="135.5" y1="36.0616" x2="153" y2="36.0616" gradientUnits="userSpaceOnUse">
<stop stop-color="#0F111E"/>
<stop offset="1" stop-color="#0F111E" stop-opacity="0"/>
</linearGradient>
<linearGradient id="paint4_linear_26_200" x1="5.5" y1="25.285" x2="23" y2="25.285" gradientUnits="userSpaceOnUse">
<stop stop-color="#0F111E"/>
<stop offset="1" stop-color="#0F111E" stop-opacity="0"/>
</linearGradient>
<clipPath id="clip0_26_200">
<rect width="24" height="24" fill="white" transform="translate(10.4999 11.7577)"/>
</clipPath>
<clipPath id="clip1_26_200">
<rect width="12.7591" height="10" fill="white" transform="translate(16.4999 18.7577)"/>
</clipPath>
</defs>
</svg>
